<?xml version="1.0" encoding="utf-8" standalone="no"?>
<!DOCTYPE svg PUBLIC "-//W3C//DTD SVG 1.1//EN"
  "http://www.w3.org/Graphics/SVG/1.1/DTD/svg11.dtd">
<svg xmlns:xlink="http://www.w3.org/1999/xlink" width="532.872082pt" height="262.952675pt" viewBox="0 0 532.872082 262.952675" xmlns="http://www.w3.org/2000/svg" version="1.1">
 <metadata>
  <rdf:RDF xmlns:dc="http://purl.org/dc/elements/1.1/" xmlns:cc="http://creativecommons.org/ns#" xmlns:rdf="http://www.w3.org/1999/02/22-rdf-syntax-ns#">
   <cc:Work>
    <dc:type rdf:resource="http://purl.org/dc/dcmitype/StillImage"/>
    <dc:date>2026-07-04T11:26:15.306935</dc:date>
    <dc:format>image/svg+xml</dc:format>
    <dc:creator>
     <cc:Agent>
      <dc:title>Matplotlib v3.10.8, https://matplotlib.org/</dc:title>
     </cc:Agent>
    </dc:creator>
   </cc:Work>
  </rdf:RDF>
 </metadata>
 <defs>
  <style type="text/css">*{stroke-linejoin: round; stroke-linecap: butt}</style>
 </defs>
 <g id="figure_1">
  <g id="patch_1">
   <path d="M 0 262.952675
L 532.872082 262.952675
L 532.872082 0
L 0 0
z
" style="fill: #ffffff"/>
  </g>
  <g id="axes_1">
   <g id="patch_2">
    <path d="M 53.853706 125.731952
L 503.709706 125.731952
L 503.709706 1.8
L 53.853706 1.8
z
" style="fill: #ffffff"/>
   </g>
   <g id="matplotlib.axis_1">
    <g id="xtick_1">
     <g id="line2d_1"/>
    </g>
    <g id="xtick_2">
     <g id="line2d_2"/>
    </g>
    <g id="xtick_3">
     <g id="line2d_3"/>
    </g>
    <g id="xtick_4">
     <g id="line2d_4"/>
    </g>
    <g id="xtick_5">
     <g id="line2d_5"/>
    </g>
    <g id="xtick_6">
     <g id="line2d_6"/>
    </g>
    <g id="xtick_7">
     <g id="line2d_7"/>
    </g>
    <g id="xtick_8">
     <g id="line2d_8"/>
    </g>
    <g id="xtick_9">
     <g id="line2d_9"/>
    </g>
    <g id="xtick_10">
     <g id="line2d_10"/>
    </g>
   </g>
   <g id="matplotlib.axis_2">
    <g id="ytick_1">
     <g id="line2d_11">
      <path d="M 53.853706 108.358314
L 503.709706 108.358314
" clip-path="url(#p8af331c843)" style="fill: none; stroke-dasharray: 1.85,0.8; stroke-dashoffset: 0; stroke: #b0b0b0; stroke-opacity: 0.35; stroke-width: 0.5"/>
     </g>
     <g id="line2d_12">
      <defs>
       <path id="m09f1ab2fed" d="M 0 0
L -3.5 0
" style="stroke: #000000; stroke-width: 0.8"/>
      </defs>
      <g>
       <use xlink:href="#m09f1ab2fed" x="53.853706" y="108.358314" style="stroke: #000000; stroke-width: 0.8"/>
      </g>
     </g>
     <g id="text_1">
      <!-- 0.2 -->
      <g transform="translate(31.268644 112.081548) scale(0.098 -0.098)">
       <defs>
        <path id="DejaVuSans-30" d="M 2034 4250
Q 1547 4250 1301 3770
Q 1056 3291 1056 2328
Q 1056 1369 1301 889
Q 1547 409 2034 409
Q 2525 409 2770 889
Q 3016 1369 3016 2328
Q 3016 3291 2770 3770
Q 2525 4250 2034 4250
z
M 2034 4750
Q 2819 4750 3233 4129
Q 3647 3509 3647 2328
Q 3647 1150 3233 529
Q 2819 -91 2034 -91
Q 1250 -91 836 529
Q 422 1150 422 2328
Q 422 3509 836 4129
Q 1250 4750 2034 4750
z
" transform="scale(0.015625)"/>
        <path id="DejaVuSans-2e" d="M 684 794
L 1344 794
L 1344 0
L 684 0
L 684 794
z
" transform="scale(0.015625)"/>
        <path id="DejaVuSans-32" d="M 1228 531
L 3431 531
L 3431 0
L 469 0
L 469 531
Q 828 903 1448 1529
Q 2069 2156 2228 2338
Q 2531 2678 2651 2914
Q 2772 3150 2772 3378
Q 2772 3750 2511 3984
Q 2250 4219 1831 4219
Q 1534 4219 1204 4116
Q 875 4013 500 3803
L 500 4441
Q 881 4594 1212 4672
Q 1544 4750 1819 4750
Q 2544 4750 2975 4387
Q 3406 4025 3406 3419
Q 3406 3131 3298 2873
Q 3191 2616 2906 2266
Q 2828 2175 2409 1742
Q 1991 1309 1228 531
z
" transform="scale(0.015625)"/>
       </defs>
       <use xlink:href="#DejaVuSans-30"/>
       <use xlink:href="#DejaVuSans-2e" transform="translate(63.623047 0)"/>
       <use xlink:href="#DejaVuSans-32" transform="translate(95.410156 0)"/>
      </g>
     </g>
    </g>
    <g id="ytick_2">
     <g id="line2d_13">
      <path d="M 53.853706 85.193463
L 503.709706 85.193463
" clip-path="url(#p8af331c843)" style="fill: none; stroke-dasharray: 1.85,0.8; stroke-dashoffset: 0; stroke: #b0b0b0; stroke-opacity: 0.35; stroke-width: 0.5"/>
     </g>
     <g id="line2d_14">
      <g>
       <use xlink:href="#m09f1ab2fed" x="53.853706" y="85.193463" style="stroke: #000000; stroke-width: 0.8"/>
      </g>
     </g>
     <g id="text_2">
      <!-- 0.4 -->
      <g transform="translate(31.268644 88.916697) scale(0.098 -0.098)">
       <defs>
        <path id="DejaVuSans-34" d="M 2419 4116
L 825 1625
L 2419 1625
L 2419 4116
z
M 2253 4666
L 3047 4666
L 3047 1625
L 3713 1625
L 3713 1100
L 3047 1100
L 3047 0
L 2419 0
L 2419 1100
L 313 1100
L 313 1709
L 2253 4666
z
" transform="scale(0.015625)"/>
       </defs>
       <use xlink:href="#DejaVuSans-30"/>
       <use xlink:href="#DejaVuSans-2e" transform="translate(63.623047 0)"/>
       <use xlink:href="#DejaVuSans-34" transform="translate(95.410156 0)"/>
      </g>
     </g>
    </g>
    <g id="ytick_3">
     <g id="line2d_15">
      <path d="M 53.853706 62.028612
L 503.709706 62.028612
" clip-path="url(#p8af331c843)" style="fill: none; stroke-dasharray: 1.85,0.8; stroke-dashoffset: 0; stroke: #b0b0b0; stroke-opacity: 0.35; stroke-width: 0.5"/>
     </g>
     <g id="line2d_16">
      <g>
       <use xlink:href="#m09f1ab2fed" x="53.853706" y="62.028612" style="stroke: #000000; stroke-width: 0.8"/>
      </g>
     </g>
     <g id="text_3">
      <!-- 0.6 -->
      <g transform="translate(31.268644 65.751847) scale(0.098 -0.098)">
       <defs>
        <path id="DejaVuSans-36" d="M 2113 2584
Q 1688 2584 1439 2293
Q 1191 2003 1191 1497
Q 1191 994 1439 701
Q 1688 409 2113 409
Q 2538 409 2786 701
Q 3034 994 3034 1497
Q 3034 2003 2786 2293
Q 2538 2584 2113 2584
z
M 3366 4563
L 3366 3988
Q 3128 4100 2886 4159
Q 2644 4219 2406 4219
Q 1781 4219 1451 3797
Q 1122 3375 1075 2522
Q 1259 2794 1537 2939
Q 1816 3084 2150 3084
Q 2853 3084 3261 2657
Q 3669 2231 3669 1497
Q 3669 778 3244 343
Q 2819 -91 2113 -91
Q 1303 -91 875 529
Q 447 1150 447 2328
Q 447 3434 972 4092
Q 1497 4750 2381 4750
Q 2619 4750 2861 4703
Q 3103 4656 3366 4563
z
" transform="scale(0.015625)"/>
       </defs>
       <use xlink:href="#DejaVuSans-30"/>
       <use xlink:href="#DejaVuSans-2e" transform="translate(63.623047 0)"/>
       <use xlink:href="#DejaVuSans-36" transform="translate(95.410156 0)"/>
      </g>
     </g>
    </g>
    <g id="ytick_4">
     <g id="line2d_17">
      <path d="M 53.853706 38.863761
L 503.709706 38.863761
" clip-path="url(#p8af331c843)" style="fill: none; stroke-dasharray: 1.85,0.8; stroke-dashoffset: 0; stroke: #b0b0b0; stroke-opacity: 0.35; stroke-width: 0.5"/>
     </g>
     <g id="line2d_18">
      <g>
       <use xlink:href="#m09f1ab2fed" x="53.853706" y="38.863761" style="stroke: #000000; stroke-width: 0.8"/>
      </g>
     </g>
     <g id="text_4">
      <!-- 0.8 -->
      <g transform="translate(31.268644 42.586996) scale(0.098 -0.098)">
       <defs>
        <path id="DejaVuSans-38" d="M 2034 2216
Q 1584 2216 1326 1975
Q 1069 1734 1069 1313
Q 1069 891 1326 650
Q 1584 409 2034 409
Q 2484 409 2743 651
Q 3003 894 3003 1313
Q 3003 1734 2745 1975
Q 2488 2216 2034 2216
z
M 1403 2484
Q 997 2584 770 2862
Q 544 3141 544 3541
Q 544 4100 942 4425
Q 1341 4750 2034 4750
Q 2731 4750 3128 4425
Q 3525 4100 3525 3541
Q 3525 3141 3298 2862
Q 3072 2584 2669 2484
Q 3125 2378 3379 2068
Q 3634 1759 3634 1313
Q 3634 634 3220 271
Q 2806 -91 2034 -91
Q 1263 -91 848 271
Q 434 634 434 1313
Q 434 1759 690 2068
Q 947 2378 1403 2484
z
M 1172 3481
Q 1172 3119 1398 2916
Q 1625 2713 2034 2713
Q 2441 2713 2670 2916
Q 2900 3119 2900 3481
Q 2900 3844 2670 4047
Q 2441 4250 2034 4250
Q 1625 4250 1398 4047
Q 1172 3844 1172 3481
z
" transform="scale(0.015625)"/>
       </defs>
       <use xlink:href="#DejaVuSans-30"/>
       <use xlink:href="#DejaVuSans-2e" transform="translate(63.623047 0)"/>
       <use xlink:href="#DejaVuSans-38" transform="translate(95.410156 0)"/>
      </g>
     </g>
    </g>
    <g id="ytick_5">
     <g id="line2d_19">
      <path d="M 53.853706 15.69891
L 503.709706 15.69891
" clip-path="url(#p8af331c843)" style="fill: none; stroke-dasharray: 1.85,0.8; stroke-dashoffset: 0; stroke: #b0b0b0; stroke-opacity: 0.35; stroke-width: 0.5"/>
     </g>
     <g id="line2d_20">
      <g>
       <use xlink:href="#m09f1ab2fed" x="53.853706" y="15.69891" style="stroke: #000000; stroke-width: 0.8"/>
      </g>
     </g>
     <g id="text_5">
      <!-- 1.0 -->
      <g transform="translate(31.268644 19.422145) scale(0.098 -0.098)">
       <defs>
        <path id="DejaVuSans-31" d="M 794 531
L 1825 531
L 1825 4091
L 703 3866
L 703 4441
L 1819 4666
L 2450 4666
L 2450 531
L 3481 531
L 3481 0
L 794 0
L 794 531
z
" transform="scale(0.015625)"/>
       </defs>
       <use xlink:href="#DejaVuSans-31"/>
       <use xlink:href="#DejaVuSans-2e" transform="translate(63.623047 0)"/>
       <use xlink:href="#DejaVuSans-30" transform="translate(95.410156 0)"/>
      </g>
     </g>
    </g>
    <g id="text_6">
     <!-- Held-out -->
     <g transform="translate(11.070094 89.97882) rotate(-90) scale(0.122 -0.122)">
      <defs>
       <path id="DejaVuSans-48" d="M 628 4666
L 1259 4666
L 1259 2753
L 3553 2753
L 3553 4666
L 4184 4666
L 4184 0
L 3553 0
L 3553 2222
L 1259 2222
L 1259 0
L 628 0
L 628 4666
z
" transform="scale(0.015625)"/>
       <path id="DejaVuSans-65" d="M 3597 1894
L 3597 1613
L 953 1613
Q 991 1019 1311 708
Q 1631 397 2203 397
Q 2534 397 2845 478
Q 3156 559 3463 722
L 3463 178
Q 3153 47 2828 -22
Q 2503 -91 2169 -91
Q 1331 -91 842 396
Q 353 884 353 1716
Q 353 2575 817 3079
Q 1281 3584 2069 3584
Q 2775 3584 3186 3129
Q 3597 2675 3597 1894
z
M 3022 2063
Q 3016 2534 2758 2815
Q 2500 3097 2075 3097
Q 1594 3097 1305 2825
Q 1016 2553 972 2059
L 3022 2063
z
" transform="scale(0.015625)"/>
       <path id="DejaVuSans-6c" d="M 603 4863
L 1178 4863
L 1178 0
L 603 0
L 603 4863
z
" transform="scale(0.015625)"/>
       <path id="DejaVuSans-64" d="M 2906 2969
L 2906 4863
L 3481 4863
L 3481 0
L 2906 0
L 2906 525
Q 2725 213 2448 61
Q 2172 -91 1784 -91
Q 1150 -91 751 415
Q 353 922 353 1747
Q 353 2572 751 3078
Q 1150 3584 1784 3584
Q 2172 3584 2448 3432
Q 2725 3281 2906 2969
z
M 947 1747
Q 947 1113 1208 752
Q 1469 391 1925 391
Q 2381 391 2643 752
Q 2906 1113 2906 1747
Q 2906 2381 2643 2742
Q 2381 3103 1925 3103
Q 1469 3103 1208 2742
Q 947 2381 947 1747
z
" transform="scale(0.015625)"/>
       <path id="DejaVuSans-2d" d="M 313 2009
L 1997 2009
L 1997 1497
L 313 1497
L 313 2009
z
" transform="scale(0.015625)"/>
       <path id="DejaVuSans-6f" d="M 1959 3097
Q 1497 3097 1228 2736
Q 959 2375 959 1747
Q 959 1119 1226 758
Q 1494 397 1959 397
Q 2419 397 2687 759
Q 2956 1122 2956 1747
Q 2956 2369 2687 2733
Q 2419 3097 1959 3097
z
M 1959 3584
Q 2709 3584 3137 3096
Q 3566 2609 3566 1747
Q 3566 888 3137 398
Q 2709 -91 1959 -91
Q 1206 -91 779 398
Q 353 888 353 1747
Q 353 2609 779 3096
Q 1206 3584 1959 3584
z
" transform="scale(0.015625)"/>
       <path id="DejaVuSans-75" d="M 544 1381
L 544 3500
L 1119 3500
L 1119 1403
Q 1119 906 1312 657
Q 1506 409 1894 409
Q 2359 409 2629 706
Q 2900 1003 2900 1516
L 2900 3500
L 3475 3500
L 3475 0
L 2900 0
L 2900 538
Q 2691 219 2414 64
Q 2138 -91 1772 -91
Q 1169 -91 856 284
Q 544 659 544 1381
z
M 1991 3584
L 1991 3584
z
" transform="scale(0.015625)"/>
       <path id="DejaVuSans-74" d="M 1172 4494
L 1172 3500
L 2356 3500
L 2356 3053
L 1172 3053
L 1172 1153
Q 1172 725 1289 603
Q 1406 481 1766 481
L 2356 481
L 2356 0
L 1766 0
Q 1100 0 847 248
Q 594 497 594 1153
L 594 3053
L 172 3053
L 172 3500
L 594 3500
L 594 4494
L 1172 4494
z
" transform="scale(0.015625)"/>
      </defs>
      <use xlink:href="#DejaVuSans-48"/>
      <use xlink:href="#DejaVuSans-65" transform="translate(75.195312 0)"/>
      <use xlink:href="#DejaVuSans-6c" transform="translate(136.71875 0)"/>
      <use xlink:href="#DejaVuSans-64" transform="translate(164.501953 0)"/>
      <use xlink:href="#DejaVuSans-2d" transform="translate(227.978516 0)"/>
      <use xlink:href="#DejaVuSans-6f" transform="translate(265.9375 0)"/>
      <use xlink:href="#DejaVuSans-75" transform="translate(327.119141 0)"/>
      <use xlink:href="#DejaVuSans-74" transform="translate(390.498047 0)"/>
     </g>
     <!-- reward -->
     <g transform="translate(24.731425 84.890085) rotate(-90) scale(0.122 -0.122)">
      <defs>
       <path id="DejaVuSans-72" d="M 2631 2963
Q 2534 3019 2420 3045
Q 2306 3072 2169 3072
Q 1681 3072 1420 2755
Q 1159 2438 1159 1844
L 1159 0
L 581 0
L 581 3500
L 1159 3500
L 1159 2956
Q 1341 3275 1631 3429
Q 1922 3584 2338 3584
Q 2397 3584 2469 3576
Q 2541 3569 2628 3553
L 2631 2963
z
" transform="scale(0.015625)"/>
       <path id="DejaVuSans-77" d="M 269 3500
L 844 3500
L 1563 769
L 2278 3500
L 2956 3500
L 3675 769
L 4391 3500
L 4966 3500
L 4050 0
L 3372 0
L 2619 2869
L 1863 0
L 1184 0
L 269 3500
z
" transform="scale(0.015625)"/>
       <path id="DejaVuSans-61" d="M 2194 1759
Q 1497 1759 1228 1600
Q 959 1441 959 1056
Q 959 750 1161 570
Q 1363 391 1709 391
Q 2188 391 2477 730
Q 2766 1069 2766 1631
L 2766 1759
L 2194 1759
z
M 3341 1997
L 3341 0
L 2766 0
L 2766 531
Q 2569 213 2275 61
Q 1981 -91 1556 -91
Q 1019 -91 701 211
Q 384 513 384 1019
Q 384 1609 779 1909
Q 1175 2209 1959 2209
L 2766 2209
L 2766 2266
Q 2766 2663 2505 2880
Q 2244 3097 1772 3097
Q 1472 3097 1187 3025
Q 903 2953 641 2809
L 641 3341
Q 956 3463 1253 3523
Q 1550 3584 1831 3584
Q 2591 3584 2966 3190
Q 3341 2797 3341 1997
z
" transform="scale(0.015625)"/>
      </defs>
      <use xlink:href="#DejaVuSans-72"/>
      <use xlink:href="#DejaVuSans-65" transform="translate(38.863281 0)"/>
      <use xlink:href="#DejaVuSans-77" transform="translate(100.386719 0)"/>
      <use xlink:href="#DejaVuSans-61" transform="translate(182.173828 0)"/>
      <use xlink:href="#DejaVuSans-72" transform="translate(243.453125 0)"/>
      <use xlink:href="#DejaVuSans-64" transform="translate(282.816406 0)"/>
     </g>
    </g>
   </g>
   <g id="LineCollection_1">
    <path d="M 70.085624 75.927523
L 70.085624 66.661582
" clip-path="url(#p8af331c843)" style="fill: none; stroke: #1f77b4; stroke-width: 1.15"/>
    <path d="M 116.462531 68.978067
L 116.462531 57.395642
" clip-path="url(#p8af331c843)" style="fill: none; stroke: #1f77b4; stroke-width: 1.15"/>
    <path d="M 162.839438 59.712127
L 162.839438 45.813217
" clip-path="url(#p8af331c843)" style="fill: none; stroke: #1f77b4; stroke-width: 1.15"/>
    <path d="M 209.216345 45.813217
L 209.216345 31.914306
" clip-path="url(#p8af331c843)" style="fill: none; stroke: #1f77b4; stroke-width: 1.15"/>
    <path d="M 255.593253 33.072549
L 255.593253 19.173638
" clip-path="url(#p8af331c843)" style="fill: none; stroke: #1f77b4; stroke-width: 1.15"/>
    <path d="M 301.97016 22.648366
L 301.97016 8.749455
" clip-path="url(#p8af331c843)" style="fill: none; stroke: #1f77b4; stroke-width: 1.15"/>
    <path d="M 348.347067 38.863761
L 348.347067 20.331881
" clip-path="url(#p8af331c843)" style="fill: none; stroke: #1f77b4; stroke-width: 1.15"/>
    <path d="M 394.723974 70.13631
L 394.723974 46.971459
" clip-path="url(#p8af331c843)" style="fill: none; stroke: #1f77b4; stroke-width: 1.15"/>
    <path d="M 441.100882 110.674799
L 441.100882 87.509948
" clip-path="url(#p8af331c843)" style="fill: none; stroke: #1f77b4; stroke-width: 1.15"/>
    <path d="M 487.477789 122.257224
L 487.477789 106.041829
" clip-path="url(#p8af331c843)" style="fill: none; stroke: #1f77b4; stroke-width: 1.15"/>
   </g>
   <g id="line2d_21">
    <defs>
     <path id="m097a195fcc" d="M 2.8 0
L -2.8 -0
" style="stroke: #1f77b4"/>
    </defs>
    <g clip-path="url(#p8af331c843)">
     <use xlink:href="#m097a195fcc" x="70.085624" y="75.927523" style="fill: #1f77b4; stroke: #1f77b4"/>
     <use xlink:href="#m097a195fcc" x="116.462531" y="68.978067" style="fill: #1f77b4; stroke: #1f77b4"/>
     <use xlink:href="#m097a195fcc" x="162.839438" y="59.712127" style="fill: #1f77b4; stroke: #1f77b4"/>
     <use xlink:href="#m097a195fcc" x="209.216345" y="45.813217" style="fill: #1f77b4; stroke: #1f77b4"/>
     <use xlink:href="#m097a195fcc" x="255.593253" y="33.072549" style="fill: #1f77b4; stroke: #1f77b4"/>
     <use xlink:href="#m097a195fcc" x="301.97016" y="22.648366" style="fill: #1f77b4; stroke: #1f77b4"/>
     <use xlink:href="#m097a195fcc" x="348.347067" y="38.863761" style="fill: #1f77b4; stroke: #1f77b4"/>
     <use xlink:href="#m097a195fcc" x="394.723974" y="70.13631" style="fill: #1f77b4; stroke: #1f77b4"/>
     <use xlink:href="#m097a195fcc" x="441.100882" y="110.674799" style="fill: #1f77b4; stroke: #1f77b4"/>
     <use xlink:href="#m097a195fcc" x="487.477789" y="122.257224" style="fill: #1f77b4; stroke: #1f77b4"/>
    </g>
   </g>
   <g id="line2d_22">
    <g clip-path="url(#p8af331c843)">
     <use xlink:href="#m097a195fcc" x="70.085624" y="66.661582" style="fill: #1f77b4; stroke: #1f77b4"/>
     <use xlink:href="#m097a195fcc" x="116.462531" y="57.395642" style="fill: #1f77b4; stroke: #1f77b4"/>
     <use xlink:href="#m097a195fcc" x="162.839438" y="45.813217" style="fill: #1f77b4; stroke: #1f77b4"/>
     <use xlink:href="#m097a195fcc" x="209.216345" y="31.914306" style="fill: #1f77b4; stroke: #1f77b4"/>
     <use xlink:href="#m097a195fcc" x="255.593253" y="19.173638" style="fill: #1f77b4; stroke: #1f77b4"/>
     <use xlink:href="#m097a195fcc" x="301.97016" y="8.749455" style="fill: #1f77b4; stroke: #1f77b4"/>
     <use xlink:href="#m097a195fcc" x="348.347067" y="20.331881" style="fill: #1f77b4; stroke: #1f77b4"/>
     <use xlink:href="#m097a195fcc" x="394.723974" y="46.971459" style="fill: #1f77b4; stroke: #1f77b4"/>
     <use xlink:href="#m097a195fcc" x="441.100882" y="87.509948" style="fill: #1f77b4; stroke: #1f77b4"/>
     <use xlink:href="#m097a195fcc" x="487.477789" y="106.041829" style="fill: #1f77b4; stroke: #1f77b4"/>
    </g>
   </g>
   <g id="line2d_23">
    <path d="M 53.853706 71.294552
L 503.709706 71.294552
" clip-path="url(#p8af331c843)" style="fill: none; stroke-dasharray: 3.885,1.68; stroke-dashoffset: 0; stroke: #1f77b4; stroke-width: 1.05"/>
   </g>
   <g id="line2d_24">
    <path d="M 93.274077 125.731952
L 93.274077 1.8
" clip-path="url(#p8af331c843)" style="fill: none; stroke-dasharray: 0.9,1.485; stroke-dashoffset: 0; stroke: #1f77b4; stroke-width: 0.9"/>
   </g>
   <g id="line2d_25">
    <path d="M 325.158613 125.731952
L 325.158613 1.8
" clip-path="url(#p8af331c843)" style="fill: none; stroke-dasharray: 0.9,1.485; stroke-dashoffset: 0; stroke: #1f77b4; stroke-width: 0.9"/>
   </g>
   <g id="line2d_26">
    <path d="M 417.912428 125.731952
L 417.912428 1.8
" clip-path="url(#p8af331c843)" style="fill: none; stroke-dasharray: 0.9,1.485; stroke-dashoffset: 0; stroke: #1f77b4; stroke-width: 0.9"/>
   </g>
   <g id="line2d_27">
    <path d="M 70.085624 71.294552
L 116.462531 63.186855
L 162.839438 52.762672
L 209.216345 38.863761
L 255.593253 26.123093
L 301.97016 15.69891
L 348.347067 29.597821
L 394.723974 58.553885
L 441.100882 99.092373
L 487.477789 114.149526
" clip-path="url(#p8af331c843)" style="fill: none; stroke: #1f77b4; stroke-width: 1.6; stroke-linecap: square"/>
    <defs>
     <path id="mff86533094" d="M 0 2.5
C 0.663008 2.5 1.29895 2.236584 1.767767 1.767767
C 2.236584 1.29895 2.5 0.663008 2.5 0
C 2.5 -0.663008 2.236584 -1.29895 1.767767 -1.767767
C 1.29895 -2.236584 0.663008 -2.5 0 -2.5
C -0.663008 -2.5 -1.29895 -2.236584 -1.767767 -1.767767
C -2.236584 -1.29895 -2.5 -0.663008 -2.5 0
C -2.5 0.663008 -2.236584 1.29895 -1.767767 1.767767
C -1.29895 2.236584 -0.663008 2.5 0 2.5
z
" style="stroke: #1f77b4"/>
    </defs>
    <g clip-path="url(#p8af331c843)">
     <use xlink:href="#mff86533094" x="70.085624" y="71.294552" style="fill: #1f77b4; stroke: #1f77b4"/>
     <use xlink:href="#mff86533094" x="116.462531" y="63.186855" style="fill: #1f77b4; stroke: #1f77b4"/>
     <use xlink:href="#mff86533094" x="162.839438" y="52.762672" style="fill: #1f77b4; stroke: #1f77b4"/>
     <use xlink:href="#mff86533094" x="209.216345" y="38.863761" style="fill: #1f77b4; stroke: #1f77b4"/>
     <use xlink:href="#mff86533094" x="255.593253" y="26.123093" style="fill: #1f77b4; stroke: #1f77b4"/>
     <use xlink:href="#mff86533094" x="301.97016" y="15.69891" style="fill: #1f77b4; stroke: #1f77b4"/>
     <use xlink:href="#mff86533094" x="348.347067" y="29.597821" style="fill: #1f77b4; stroke: #1f77b4"/>
     <use xlink:href="#mff86533094" x="394.723974" y="58.553885" style="fill: #1f77b4; stroke: #1f77b4"/>
     <use xlink:href="#mff86533094" x="441.100882" y="99.092373" style="fill: #1f77b4; stroke: #1f77b4"/>
     <use xlink:href="#mff86533094" x="487.477789" y="114.149526" style="fill: #1f77b4; stroke: #1f77b4"/>
    </g>
   </g>
   <g id="patch_3">
    <path d="M 53.853706 125.731952
L 53.853706 1.8
" style="fill: none; stroke: #000000; stroke-width: 0.8; stroke-linejoin: miter; stroke-linecap: square"/>
   </g>
   <g id="patch_4">
    <path d="M 53.853706 125.731952
L 503.709706 125.731952
" style="fill: none; stroke: #000000; stroke-width: 0.8; stroke-linejoin: miter; stroke-linecap: square"/>
   </g>
   <g id="text_7">
    <!-- positive-only ceiling -->
    <g transform="translate(437.05005 67.023161) scale(0.094 -0.094)">
     <defs>
      <path id="DejaVuSans-70" d="M 1159 525
L 1159 -1331
L 581 -1331
L 581 3500
L 1159 3500
L 1159 2969
Q 1341 3281 1617 3432
Q 1894 3584 2278 3584
Q 2916 3584 3314 3078
Q 3713 2572 3713 1747
Q 3713 922 3314 415
Q 2916 -91 2278 -91
Q 1894 -91 1617 61
Q 1341 213 1159 525
z
M 3116 1747
Q 3116 2381 2855 2742
Q 2594 3103 2138 3103
Q 1681 3103 1420 2742
Q 1159 2381 1159 1747
Q 1159 1113 1420 752
Q 1681 391 2138 391
Q 2594 391 2855 752
Q 3116 1113 3116 1747
z
" transform="scale(0.015625)"/>
      <path id="DejaVuSans-73" d="M 2834 3397
L 2834 2853
Q 2591 2978 2328 3040
Q 2066 3103 1784 3103
Q 1356 3103 1142 2972
Q 928 2841 928 2578
Q 928 2378 1081 2264
Q 1234 2150 1697 2047
L 1894 2003
Q 2506 1872 2764 1633
Q 3022 1394 3022 966
Q 3022 478 2636 193
Q 2250 -91 1575 -91
Q 1294 -91 989 -36
Q 684 19 347 128
L 347 722
Q 666 556 975 473
Q 1284 391 1588 391
Q 1994 391 2212 530
Q 2431 669 2431 922
Q 2431 1156 2273 1281
Q 2116 1406 1581 1522
L 1381 1569
Q 847 1681 609 1914
Q 372 2147 372 2553
Q 372 3047 722 3315
Q 1072 3584 1716 3584
Q 2034 3584 2315 3537
Q 2597 3491 2834 3397
z
" transform="scale(0.015625)"/>
      <path id="DejaVuSans-69" d="M 603 3500
L 1178 3500
L 1178 0
L 603 0
L 603 3500
z
M 603 4863
L 1178 4863
L 1178 4134
L 603 4134
L 603 4863
z
" transform="scale(0.015625)"/>
      <path id="DejaVuSans-76" d="M 191 3500
L 800 3500
L 1894 563
L 2988 3500
L 3597 3500
L 2284 0
L 1503 0
L 191 3500
z
" transform="scale(0.015625)"/>
      <path id="DejaVuSans-6e" d="M 3513 2113
L 3513 0
L 2938 0
L 2938 2094
Q 2938 2591 2744 2837
Q 2550 3084 2163 3084
Q 1697 3084 1428 2787
Q 1159 2491 1159 1978
L 1159 0
L 581 0
L 581 3500
L 1159 3500
L 1159 2956
Q 1366 3272 1645 3428
Q 1925 3584 2291 3584
Q 2894 3584 3203 3211
Q 3513 2838 3513 2113
z
" transform="scale(0.015625)"/>
      <path id="DejaVuSans-79" d="M 2059 -325
Q 1816 -950 1584 -1140
Q 1353 -1331 966 -1331
L 506 -1331
L 506 -850
L 844 -850
Q 1081 -850 1212 -737
Q 1344 -625 1503 -206
L 1606 56
L 191 3500
L 800 3500
L 1894 763
L 2988 3500
L 3597 3500
L 2059 -325
z
" transform="scale(0.015625)"/>
      <path id="DejaVuSans-20" transform="scale(0.015625)"/>
      <path id="DejaVuSans-63" d="M 3122 3366
L 3122 2828
Q 2878 2963 2633 3030
Q 2388 3097 2138 3097
Q 1578 3097 1268 2742
Q 959 2388 959 1747
Q 959 1106 1268 751
Q 1578 397 2138 397
Q 2388 397 2633 464
Q 2878 531 3122 666
L 3122 134
Q 2881 22 2623 -34
Q 2366 -91 2075 -91
Q 1284 -91 818 406
Q 353 903 353 1747
Q 353 2603 823 3093
Q 1294 3584 2113 3584
Q 2378 3584 2631 3529
Q 2884 3475 3122 3366
z
" transform="scale(0.015625)"/>
      <path id="DejaVuSans-67" d="M 2906 1791
Q 2906 2416 2648 2759
Q 2391 3103 1925 3103
Q 1463 3103 1205 2759
Q 947 2416 947 1791
Q 947 1169 1205 825
Q 1463 481 1925 481
Q 2391 481 2648 825
Q 2906 1169 2906 1791
z
M 3481 434
Q 3481 -459 3084 -895
Q 2688 -1331 1869 -1331
Q 1566 -1331 1297 -1286
Q 1028 -1241 775 -1147
L 775 -588
Q 1028 -725 1275 -790
Q 1522 -856 1778 -856
Q 2344 -856 2625 -561
Q 2906 -266 2906 331
L 2906 616
Q 2728 306 2450 153
Q 2172 0 1784 0
Q 1141 0 747 490
Q 353 981 353 1791
Q 353 2603 747 3093
Q 1141 3584 1784 3584
Q 2172 3584 2450 3431
Q 2728 3278 2906 2969
L 2906 3500
L 3481 3500
L 3481 434
z
" transform="scale(0.015625)"/>
     </defs>
     <use xlink:href="#DejaVuSans-70"/>
     <use xlink:href="#DejaVuSans-6f" transform="translate(63.476562 0)"/>
     <use xlink:href="#DejaVuSans-73" transform="translate(124.658203 0)"/>
     <use xlink:href="#DejaVuSans-69" transform="translate(176.757812 0)"/>
     <use xlink:href="#DejaVuSans-74" transform="translate(204.541016 0)"/>
     <use xlink:href="#DejaVuSans-69" transform="translate(243.75 0)"/>
     <use xlink:href="#DejaVuSans-76" transform="translate(271.533203 0)"/>
     <use xlink:href="#DejaVuSans-65" transform="translate(330.712891 0)"/>
     <use xlink:href="#DejaVuSans-2d" transform="translate(392.236328 0)"/>
     <use xlink:href="#DejaVuSans-6f" transform="translate(430.195312 0)"/>
     <use xlink:href="#DejaVuSans-6e" transform="translate(491.376953 0)"/>
     <use xlink:href="#DejaVuSans-6c" transform="translate(554.755859 0)"/>
     <use xlink:href="#DejaVuSans-79" transform="translate(582.539062 0)"/>
     <use xlink:href="#DejaVuSans-20" transform="translate(641.71875 0)"/>
     <use xlink:href="#DejaVuSans-63" transform="translate(673.505859 0)"/>
     <use xlink:href="#DejaVuSans-65" transform="translate(728.486328 0)"/>
     <use xlink:href="#DejaVuSans-69" transform="translate(790.009766 0)"/>
     <use xlink:href="#DejaVuSans-6c" transform="translate(817.792969 0)"/>
     <use xlink:href="#DejaVuSans-69" transform="translate(845.576172 0)"/>
     <use xlink:href="#DejaVuSans-6e" transform="translate(873.359375 0)"/>
     <use xlink:href="#DejaVuSans-67" transform="translate(936.738281 0)"/>
    </g>
   </g>
   <g id="text_8">
    <!-- useful -->
    <g transform="translate(105.611434 16.623077) scale(0.096 -0.096)">
     <defs>
      <path id="DejaVuSans-66" d="M 2375 4863
L 2375 4384
L 1825 4384
Q 1516 4384 1395 4259
Q 1275 4134 1275 3809
L 1275 3500
L 2222 3500
L 2222 3053
L 1275 3053
L 1275 0
L 697 0
L 697 3053
L 147 3053
L 147 3500
L 697 3500
L 697 3744
Q 697 4328 969 4595
Q 1241 4863 1831 4863
L 2375 4863
z
" transform="scale(0.015625)"/>
     </defs>
     <use xlink:href="#DejaVuSans-75"/>
     <use xlink:href="#DejaVuSans-73" transform="translate(63.378906 0)"/>
     <use xlink:href="#DejaVuSans-65" transform="translate(115.478516 0)"/>
     <use xlink:href="#DejaVuSans-66" transform="translate(177.001953 0)"/>
     <use xlink:href="#DejaVuSans-75" transform="translate(212.207031 0)"/>
     <use xlink:href="#DejaVuSans-6c" transform="translate(275.585938 0)"/>
    </g>
    <!-- repulsion -->
    <g transform="translate(98.118184 27.372977) scale(0.096 -0.096)">
     <use xlink:href="#DejaVuSans-72"/>
     <use xlink:href="#DejaVuSans-65" transform="translate(38.863281 0)"/>
     <use xlink:href="#DejaVuSans-70" transform="translate(100.386719 0)"/>
     <use xlink:href="#DejaVuSans-75" transform="translate(163.863281 0)"/>
     <use xlink:href="#DejaVuSans-6c" transform="translate(227.242188 0)"/>
     <use xlink:href="#DejaVuSans-73" transform="translate(255.025391 0)"/>
     <use xlink:href="#DejaVuSans-69" transform="translate(307.125 0)"/>
     <use xlink:href="#DejaVuSans-6f" transform="translate(334.908203 0)"/>
     <use xlink:href="#DejaVuSans-6e" transform="translate(396.089844 0)"/>
    </g>
   </g>
   <g id="text_9">
    <!-- over- -->
    <g transform="translate(363.115173 16.623077) scale(0.096 -0.096)">
     <use xlink:href="#DejaVuSans-6f"/>
     <use xlink:href="#DejaVuSans-76" transform="translate(61.181641 0)"/>
     <use xlink:href="#DejaVuSans-65" transform="translate(120.361328 0)"/>
     <use xlink:href="#DejaVuSans-72" transform="translate(181.884766 0)"/>
     <use xlink:href="#DejaVuSans-2d" transform="translate(216.623047 0)"/>
    </g>
    <!-- extrapolation -->
    <g transform="translate(343.285173 27.372977) scale(0.096 -0.096)">
     <defs>
      <path id="DejaVuSans-78" d="M 3513 3500
L 2247 1797
L 3578 0
L 2900 0
L 1881 1375
L 863 0
L 184 0
L 1544 1831
L 300 3500
L 978 3500
L 1906 2253
L 2834 3500
L 3513 3500
z
" transform="scale(0.015625)"/>
     </defs>
     <use xlink:href="#DejaVuSans-65"/>
     <use xlink:href="#DejaVuSans-78" transform="translate(59.773438 0)"/>
     <use xlink:href="#DejaVuSans-74" transform="translate(118.953125 0)"/>
     <use xlink:href="#DejaVuSans-72" transform="translate(158.162109 0)"/>
     <use xlink:href="#DejaVuSans-61" transform="translate(199.275391 0)"/>
     <use xlink:href="#DejaVuSans-70" transform="translate(260.554688 0)"/>
     <use xlink:href="#DejaVuSans-6f" transform="translate(324.03125 0)"/>
     <use xlink:href="#DejaVuSans-6c" transform="translate(385.212891 0)"/>
     <use xlink:href="#DejaVuSans-61" transform="translate(412.996094 0)"/>
     <use xlink:href="#DejaVuSans-74" transform="translate(474.275391 0)"/>
     <use xlink:href="#DejaVuSans-69" transform="translate(513.484375 0)"/>
     <use xlink:href="#DejaVuSans-6f" transform="translate(541.267578 0)"/>
     <use xlink:href="#DejaVuSans-6e" transform="translate(602.449219 0)"/>
    </g>
   </g>
   <g id="text_10">
    <!-- collapse -->
    <g transform="translate(446.92218 16.623077) scale(0.096 -0.096)">
     <use xlink:href="#DejaVuSans-63"/>
     <use xlink:href="#DejaVuSans-6f" transform="translate(54.980469 0)"/>
     <use xlink:href="#DejaVuSans-6c" transform="translate(116.162109 0)"/>
     <use xlink:href="#DejaVuSans-6c" transform="translate(143.945312 0)"/>
     <use xlink:href="#DejaVuSans-61" transform="translate(171.728516 0)"/>
     <use xlink:href="#DejaVuSans-70" transform="translate(233.007812 0)"/>
     <use xlink:href="#DejaVuSans-73" transform="translate(296.484375 0)"/>
     <use xlink:href="#DejaVuSans-65" transform="translate(348.583984 0)"/>
    </g>
   </g>
   <g id="text_11">
    <!-- layout draft -->
    <g transform="translate(58.352266 11.584924) scale(0.088 -0.088)">
     <use xlink:href="#DejaVuSans-6c"/>
     <use xlink:href="#DejaVuSans-61" transform="translate(27.783203 0)"/>
     <use xlink:href="#DejaVuSans-79" transform="translate(89.0625 0)"/>
     <use xlink:href="#DejaVuSans-6f" transform="translate(148.242188 0)"/>
     <use xlink:href="#DejaVuSans-75" transform="translate(209.423828 0)"/>
     <use xlink:href="#DejaVuSans-74" transform="translate(272.802734 0)"/>
     <use xlink:href="#DejaVuSans-20" transform="translate(312.011719 0)"/>
     <use xlink:href="#DejaVuSans-64" transform="translate(343.798828 0)"/>
     <use xlink:href="#DejaVuSans-72" transform="translate(407.275391 0)"/>
     <use xlink:href="#DejaVuSans-61" transform="translate(448.388672 0)"/>
     <use xlink:href="#DejaVuSans-66" transform="translate(509.667969 0)"/>
     <use xlink:href="#DejaVuSans-74" transform="translate(543.123047 0)"/>
    </g>
   </g>
  </g>
  <g id="axes_2">
   <g id="patch_5">
    <path d="M 53.853706 181.333379
L 503.709706 181.333379
L 503.709706 135.011272
L 53.853706 135.011272
z
" style="fill: #ffffff"/>
   </g>
   <g id="matplotlib.axis_3">
    <g id="xtick_11">
     <g id="line2d_28"/>
    </g>
    <g id="xtick_12">
     <g id="line2d_29"/>
    </g>
    <g id="xtick_13">
     <g id="line2d_30"/>
    </g>
    <g id="xtick_14">
     <g id="line2d_31"/>
    </g>
    <g id="xtick_15">
     <g id="line2d_32"/>
    </g>
    <g id="xtick_16">
     <g id="line2d_33"/>
    </g>
    <g id="xtick_17">
     <g id="line2d_34"/>
    </g>
    <g id="xtick_18">
     <g id="line2d_35"/>
    </g>
    <g id="xtick_19">
     <g id="line2d_36"/>
    </g>
    <g id="xtick_20">
     <g id="line2d_37"/>
    </g>
   </g>
   <g id="matplotlib.axis_4">
    <g id="ytick_6">
     <g id="line2d_38">
      <path d="M 53.853706 179.227828
L 503.709706 179.227828
" clip-path="url(#pf638e2d5da)" style="fill: none; stroke-dasharray: 1.85,0.8; stroke-dashoffset: 0; stroke: #b0b0b0; stroke-opacity: 0.3; stroke-width: 0.5"/>
     </g>
     <g id="line2d_39">
      <g>
       <use xlink:href="#m09f1ab2fed" x="53.853706" y="179.227828" style="stroke: #000000; stroke-width: 0.8"/>
      </g>
     </g>
     <g id="text_12">
      <!-- 0 -->
      <g transform="translate(40.809331 182.837086) scale(0.095 -0.095)">
       <use xlink:href="#DejaVuSans-30"/>
      </g>
     </g>
    </g>
    <g id="ytick_7">
     <g id="line2d_40">
      <path d="M 53.853706 157.064141
L 503.709706 157.064141
" clip-path="url(#pf638e2d5da)" style="fill: none; stroke-dasharray: 1.85,0.8; stroke-dashoffset: 0; stroke: #b0b0b0; stroke-opacity: 0.3; stroke-width: 0.5"/>
     </g>
     <g id="line2d_41">
      <g>
       <use xlink:href="#m09f1ab2fed" x="53.853706" y="157.064141" style="stroke: #000000; stroke-width: 0.8"/>
      </g>
     </g>
     <g id="text_13">
      <!-- 1 -->
      <g transform="translate(40.809331 160.673399) scale(0.095 -0.095)">
       <use xlink:href="#DejaVuSans-31"/>
      </g>
     </g>
    </g>
    <g id="text_14">
     <!-- Policy -->
     <g transform="translate(21.672981 174.565169) rotate(-90) scale(0.114 -0.114)">
      <defs>
       <path id="DejaVuSans-50" d="M 1259 4147
L 1259 2394
L 2053 2394
Q 2494 2394 2734 2622
Q 2975 2850 2975 3272
Q 2975 3691 2734 3919
Q 2494 4147 2053 4147
L 1259 4147
z
M 628 4666
L 2053 4666
Q 2838 4666 3239 4311
Q 3641 3956 3641 3272
Q 3641 2581 3239 2228
Q 2838 1875 2053 1875
L 1259 1875
L 1259 0
L 628 0
L 628 4666
z
" transform="scale(0.015625)"/>
      </defs>
      <use xlink:href="#DejaVuSans-50"/>
      <use xlink:href="#DejaVuSans-6f" transform="translate(56.677734 0)"/>
      <use xlink:href="#DejaVuSans-6c" transform="translate(117.859375 0)"/>
      <use xlink:href="#DejaVuSans-69" transform="translate(145.642578 0)"/>
      <use xlink:href="#DejaVuSans-63" transform="translate(173.425781 0)"/>
      <use xlink:href="#DejaVuSans-79" transform="translate(228.40625 0)"/>
     </g>
     <!-- shift -->
     <g transform="translate(34.438488 170.478982) rotate(-90) scale(0.114 -0.114)">
      <defs>
       <path id="DejaVuSans-68" d="M 3513 2113
L 3513 0
L 2938 0
L 2938 2094
Q 2938 2591 2744 2837
Q 2550 3084 2163 3084
Q 1697 3084 1428 2787
Q 1159 2491 1159 1978
L 1159 0
L 581 0
L 581 4863
L 1159 4863
L 1159 2956
Q 1366 3272 1645 3428
Q 1925 3584 2291 3584
Q 2894 3584 3203 3211
Q 3513 2838 3513 2113
z
" transform="scale(0.015625)"/>
      </defs>
      <use xlink:href="#DejaVuSans-73"/>
      <use xlink:href="#DejaVuSans-68" transform="translate(52.099609 0)"/>
      <use xlink:href="#DejaVuSans-69" transform="translate(115.478516 0)"/>
      <use xlink:href="#DejaVuSans-66" transform="translate(143.261719 0)"/>
      <use xlink:href="#DejaVuSans-74" transform="translate(176.716797 0)"/>
     </g>
    </g>
   </g>
   <g id="line2d_42">
    <path d="M 93.274077 181.333379
L 93.274077 135.011272
" clip-path="url(#pf638e2d5da)" style="fill: none; stroke-dasharray: 0.9,1.485; stroke-dashoffset: 0; stroke: #1f77b4; stroke-width: 0.9"/>
   </g>
   <g id="line2d_43">
    <path d="M 325.158613 181.333379
L 325.158613 135.011272
" clip-path="url(#pf638e2d5da)" style="fill: none; stroke-dasharray: 0.9,1.485; stroke-dashoffset: 0; stroke: #1f77b4; stroke-width: 0.9"/>
   </g>
   <g id="line2d_44">
    <path d="M 417.912428 181.333379
L 417.912428 135.011272
" clip-path="url(#pf638e2d5da)" style="fill: none; stroke-dasharray: 0.9,1.485; stroke-dashoffset: 0; stroke: #1f77b4; stroke-width: 0.9"/>
   </g>
   <g id="line2d_45">
    <path d="M 70.085624 179.227828
L 116.462531 177.01146
L 162.839438 175.238365
L 209.216345 171.470538
L 255.593253 167.0378
L 301.97016 163.269974
L 348.347067 158.172325
L 394.723974 152.631404
L 441.100882 144.874113
L 487.477789 137.116822
" clip-path="url(#pf638e2d5da)" style="fill: none; stroke: #1f77b4; stroke-width: 1.45; stroke-linecap: square"/>
    <defs>
     <path id="m1fecca2f26" d="M -2.25 2.25
L 2.25 2.25
L 2.25 -2.25
L -2.25 -2.25
z
" style="stroke: #1f77b4; stroke-linejoin: miter"/>
    </defs>
    <g clip-path="url(#pf638e2d5da)">
     <use xlink:href="#m1fecca2f26" x="70.085624" y="179.227828" style="fill: #1f77b4; stroke: #1f77b4; stroke-linejoin: miter"/>
     <use xlink:href="#m1fecca2f26" x="116.462531" y="177.01146" style="fill: #1f77b4; stroke: #1f77b4; stroke-linejoin: miter"/>
     <use xlink:href="#m1fecca2f26" x="162.839438" y="175.238365" style="fill: #1f77b4; stroke: #1f77b4; stroke-linejoin: miter"/>
     <use xlink:href="#m1fecca2f26" x="209.216345" y="171.470538" style="fill: #1f77b4; stroke: #1f77b4; stroke-linejoin: miter"/>
     <use xlink:href="#m1fecca2f26" x="255.593253" y="167.0378" style="fill: #1f77b4; stroke: #1f77b4; stroke-linejoin: miter"/>
     <use xlink:href="#m1fecca2f26" x="301.97016" y="163.269974" style="fill: #1f77b4; stroke: #1f77b4; stroke-linejoin: miter"/>
     <use xlink:href="#m1fecca2f26" x="348.347067" y="158.172325" style="fill: #1f77b4; stroke: #1f77b4; stroke-linejoin: miter"/>
     <use xlink:href="#m1fecca2f26" x="394.723974" y="152.631404" style="fill: #1f77b4; stroke: #1f77b4; stroke-linejoin: miter"/>
     <use xlink:href="#m1fecca2f26" x="441.100882" y="144.874113" style="fill: #1f77b4; stroke: #1f77b4; stroke-linejoin: miter"/>
     <use xlink:href="#m1fecca2f26" x="487.477789" y="137.116822" style="fill: #1f77b4; stroke: #1f77b4; stroke-linejoin: miter"/>
    </g>
   </g>
   <g id="patch_6">
    <path d="M 53.853706 181.333379
L 53.853706 135.011272
" style="fill: none; stroke: #000000; stroke-width: 0.8; stroke-linejoin: miter; stroke-linecap: square"/>
   </g>
   <g id="patch_7">
    <path d="M 53.853706 181.333379
L 503.709706 181.333379
" style="fill: none; stroke: #000000; stroke-width: 0.8; stroke-linejoin: miter; stroke-linecap: square"/>
   </g>
   <g id="text_15">
    <!-- distance from positive-only target -->
    <g transform="translate(58.352266 146.254123) scale(0.087 -0.087)">
     <defs>
      <path id="DejaVuSans-6d" d="M 3328 2828
Q 3544 3216 3844 3400
Q 4144 3584 4550 3584
Q 5097 3584 5394 3201
Q 5691 2819 5691 2113
L 5691 0
L 5113 0
L 5113 2094
Q 5113 2597 4934 2840
Q 4756 3084 4391 3084
Q 3944 3084 3684 2787
Q 3425 2491 3425 1978
L 3425 0
L 2847 0
L 2847 2094
Q 2847 2600 2669 2842
Q 2491 3084 2119 3084
Q 1678 3084 1418 2786
Q 1159 2488 1159 1978
L 1159 0
L 581 0
L 581 3500
L 1159 3500
L 1159 2956
Q 1356 3278 1631 3431
Q 1906 3584 2284 3584
Q 2666 3584 2933 3390
Q 3200 3197 3328 2828
z
" transform="scale(0.015625)"/>
     </defs>
     <use xlink:href="#DejaVuSans-64"/>
     <use xlink:href="#DejaVuSans-69" transform="translate(63.476562 0)"/>
     <use xlink:href="#DejaVuSans-73" transform="translate(91.259766 0)"/>
     <use xlink:href="#DejaVuSans-74" transform="translate(143.359375 0)"/>
     <use xlink:href="#DejaVuSans-61" transform="translate(182.568359 0)"/>
     <use xlink:href="#DejaVuSans-6e" transform="translate(243.847656 0)"/>
     <use xlink:href="#DejaVuSans-63" transform="translate(307.226562 0)"/>
     <use xlink:href="#DejaVuSans-65" transform="translate(362.207031 0)"/>
     <use xlink:href="#DejaVuSans-20" transform="translate(423.730469 0)"/>
     <use xlink:href="#DejaVuSans-66" transform="translate(455.517578 0)"/>
     <use xlink:href="#DejaVuSans-72" transform="translate(490.722656 0)"/>
     <use xlink:href="#DejaVuSans-6f" transform="translate(529.585938 0)"/>
     <use xlink:href="#DejaVuSans-6d" transform="translate(590.767578 0)"/>
     <use xlink:href="#DejaVuSans-20" transform="translate(688.179688 0)"/>
     <use xlink:href="#DejaVuSans-70" transform="translate(719.966797 0)"/>
     <use xlink:href="#DejaVuSans-6f" transform="translate(783.443359 0)"/>
     <use xlink:href="#DejaVuSans-73" transform="translate(844.625 0)"/>
     <use xlink:href="#DejaVuSans-69" transform="translate(896.724609 0)"/>
     <use xlink:href="#DejaVuSans-74" transform="translate(924.507812 0)"/>
     <use xlink:href="#DejaVuSans-69" transform="translate(963.716797 0)"/>
     <use xlink:href="#DejaVuSans-76" transform="translate(991.5 0)"/>
     <use xlink:href="#DejaVuSans-65" transform="translate(1050.679688 0)"/>
     <use xlink:href="#DejaVuSans-2d" transform="translate(1112.203125 0)"/>
     <use xlink:href="#DejaVuSans-6f" transform="translate(1150.162109 0)"/>
     <use xlink:href="#DejaVuSans-6e" transform="translate(1211.34375 0)"/>
     <use xlink:href="#DejaVuSans-6c" transform="translate(1274.722656 0)"/>
     <use xlink:href="#DejaVuSans-79" transform="translate(1302.505859 0)"/>
     <use xlink:href="#DejaVuSans-20" transform="translate(1361.685547 0)"/>
     <use xlink:href="#DejaVuSans-74" transform="translate(1393.472656 0)"/>
     <use xlink:href="#DejaVuSans-61" transform="translate(1432.681641 0)"/>
     <use xlink:href="#DejaVuSans-72" transform="translate(1493.960938 0)"/>
     <use xlink:href="#DejaVuSans-67" transform="translate(1533.324219 0)"/>
     <use xlink:href="#DejaVuSans-65" transform="translate(1596.800781 0)"/>
     <use xlink:href="#DejaVuSans-74" transform="translate(1658.324219 0)"/>
    </g>
   </g>
  </g>
  <g id="axes_3">
   <g id="patch_8">
    <path d="M 53.853706 234.4968
L 503.709706 234.4968
L 503.709706 190.612699
L 53.853706 190.612699
z
" style="fill: #ffffff"/>
   </g>
   <g id="patch_9">
    <path d="M 53.853706 203.485369
L 86.317541 203.485369
L 86.317541 196.756473
L 53.853706 196.756473
z
" clip-path="url(#p6b8aecb883)" style="fill: #fff5f0; stroke: #9e9e9e; stroke-width: 0.45; stroke-linejoin: miter"/>
   </g>
   <g id="patch_10">
    <path d="M 100.230613 203.485369
L 132.694449 203.485369
L 132.694449 196.756473
L 100.230613 196.756473
z
" clip-path="url(#p6b8aecb883)" style="fill: #fff5f0; stroke: #9e9e9e; stroke-width: 0.45; stroke-linejoin: miter"/>
   </g>
   <g id="patch_11">
    <path d="M 146.607521 203.485369
L 179.071356 203.485369
L 179.071356 196.756473
L 146.607521 196.756473
z
" clip-path="url(#p6b8aecb883)" style="fill: #fff5f0; stroke: #9e9e9e; stroke-width: 0.45; stroke-linejoin: miter"/>
   </g>
   <g id="patch_12">
    <path d="M 192.984428 203.485369
L 225.448263 203.485369
L 225.448263 196.756473
L 192.984428 196.756473
z
" clip-path="url(#p6b8aecb883)" style="fill: #fff5f0; stroke: #9e9e9e; stroke-width: 0.45; stroke-linejoin: miter"/>
   </g>
   <g id="patch_13">
    <path d="M 239.361335 203.485369
L 271.82517 203.485369
L 271.82517 196.756473
L 239.361335 196.756473
z
" clip-path="url(#p6b8aecb883)" style="fill: #fff5f0; stroke: #9e9e9e; stroke-width: 0.45; stroke-linejoin: miter"/>
   </g>
   <g id="patch_14">
    <path d="M 285.738242 203.485369
L 318.202077 203.485369
L 318.202077 196.756473
L 285.738242 196.756473
z
" clip-path="url(#p6b8aecb883)" style="fill: #fff5f0; stroke: #9e9e9e; stroke-width: 0.45; stroke-linejoin: miter"/>
   </g>
   <g id="patch_15">
    <path d="M 332.11515 203.485369
L 364.578985 203.485369
L 364.578985 196.756473
L 332.11515 196.756473
z
" clip-path="url(#p6b8aecb883)" style="fill: #ffede5; stroke: #9e9e9e; stroke-width: 0.45; stroke-linejoin: miter"/>
   </g>
   <g id="patch_16">
    <path d="M 378.492057 203.485369
L 410.955892 203.485369
L 410.955892 196.756473
L 378.492057 196.756473
z
" clip-path="url(#p6b8aecb883)" style="fill: #fcbba1; stroke: #9e9e9e; stroke-width: 0.45; stroke-linejoin: miter"/>
   </g>
   <g id="patch_17">
    <path d="M 424.868964 203.485369
L 457.332799 203.485369
L 457.332799 196.756473
L 424.868964 196.756473
z
" clip-path="url(#p6b8aecb883)" style="fill: #d92523; stroke: #9e9e9e; stroke-width: 0.45; stroke-linejoin: miter"/>
   </g>
   <g id="patch_18">
    <path d="M 471.245871 203.485369
L 503.709706 203.485369
L 503.709706 196.756473
L 471.245871 196.756473
z
" clip-path="url(#p6b8aecb883)" style="fill: #7e0610; stroke: #9e9e9e; stroke-width: 0.45; stroke-linejoin: miter"/>
   </g>
   <g id="patch_19">
    <path d="M 53.853706 215.919197
L 86.317541 215.919197
L 86.317541 209.190302
L 53.853706 209.190302
z
" clip-path="url(#p6b8aecb883)" style="fill: #fff5f0; stroke: #9e9e9e; stroke-width: 0.45; stroke-linejoin: miter"/>
   </g>
   <g id="patch_20">
    <path d="M 100.230613 215.919197
L 132.694449 215.919197
L 132.694449 209.190302
L 100.230613 209.190302
z
" clip-path="url(#p6b8aecb883)" style="fill: #fff5f0; stroke: #9e9e9e; stroke-width: 0.45; stroke-linejoin: miter"/>
   </g>
   <g id="patch_21">
    <path d="M 146.607521 215.919197
L 179.071356 215.919197
L 179.071356 209.190302
L 146.607521 209.190302
z
" clip-path="url(#p6b8aecb883)" style="fill: #fff5f0; stroke: #9e9e9e; stroke-width: 0.45; stroke-linejoin: miter"/>
   </g>
   <g id="patch_22">
    <path d="M 192.984428 215.919197
L 225.448263 215.919197
L 225.448263 209.190302
L 192.984428 209.190302
z
" clip-path="url(#p6b8aecb883)" style="fill: #fff5f0; stroke: #9e9e9e; stroke-width: 0.45; stroke-linejoin: miter"/>
   </g>
   <g id="patch_23">
    <path d="M 239.361335 215.919197
L 271.82517 215.919197
L 271.82517 209.190302
L 239.361335 209.190302
z
" clip-path="url(#p6b8aecb883)" style="fill: #ffede5; stroke: #9e9e9e; stroke-width: 0.45; stroke-linejoin: miter"/>
   </g>
   <g id="patch_24">
    <path d="M 285.738242 215.919197
L 318.202077 215.919197
L 318.202077 209.190302
L 285.738242 209.190302
z
" clip-path="url(#p6b8aecb883)" style="fill: #fee5d8; stroke: #9e9e9e; stroke-width: 0.45; stroke-linejoin: miter"/>
   </g>
   <g id="patch_25">
    <path d="M 332.11515 215.919197
L 364.578985 215.919197
L 364.578985 209.190302
L 332.11515 209.190302
z
" clip-path="url(#p6b8aecb883)" style="fill: #fdcab5; stroke: #9e9e9e; stroke-width: 0.45; stroke-linejoin: miter"/>
   </g>
   <g id="patch_26">
    <path d="M 378.492057 215.919197
L 410.955892 215.919197
L 410.955892 209.190302
L 378.492057 209.190302
z
" clip-path="url(#p6b8aecb883)" style="fill: #fc8a6a; stroke: #9e9e9e; stroke-width: 0.45; stroke-linejoin: miter"/>
   </g>
   <g id="patch_27">
    <path d="M 424.868964 215.919197
L 457.332799 215.919197
L 457.332799 209.190302
L 424.868964 209.190302
z
" clip-path="url(#p6b8aecb883)" style="fill: #ca181d; stroke: #9e9e9e; stroke-width: 0.45; stroke-linejoin: miter"/>
   </g>
   <g id="patch_28">
    <path d="M 471.245871 215.919197
L 503.709706 215.919197
L 503.709706 209.190302
L 471.245871 209.190302
z
" clip-path="url(#p6b8aecb883)" style="fill: #980c13; stroke: #9e9e9e; stroke-width: 0.45; stroke-linejoin: miter"/>
   </g>
   <g id="patch_29">
    <path d="M 53.853706 228.353026
L 86.317541 228.353026
L 86.317541 221.62413
L 53.853706 221.62413
z
" clip-path="url(#p6b8aecb883)" style="fill: #fff5f0; stroke: #9e9e9e; stroke-width: 0.45; stroke-linejoin: miter"/>
   </g>
   <g id="patch_30">
    <path d="M 100.230613 228.353026
L 132.694449 228.353026
L 132.694449 221.62413
L 100.230613 221.62413
z
" clip-path="url(#p6b8aecb883)" style="fill: #fff5f0; stroke: #9e9e9e; stroke-width: 0.45; stroke-linejoin: miter"/>
   </g>
   <g id="patch_31">
    <path d="M 146.607521 228.353026
L 179.071356 228.353026
L 179.071356 221.62413
L 146.607521 221.62413
z
" clip-path="url(#p6b8aecb883)" style="fill: #fff5f0; stroke: #9e9e9e; stroke-width: 0.45; stroke-linejoin: miter"/>
   </g>
   <g id="patch_32">
    <path d="M 192.984428 228.353026
L 225.448263 228.353026
L 225.448263 221.62413
L 192.984428 221.62413
z
" clip-path="url(#p6b8aecb883)" style="fill: #fff5f0; stroke: #9e9e9e; stroke-width: 0.45; stroke-linejoin: miter"/>
   </g>
   <g id="patch_33">
    <path d="M 239.361335 228.353026
L 271.82517 228.353026
L 271.82517 221.62413
L 239.361335 221.62413
z
" clip-path="url(#p6b8aecb883)" style="fill: #fff5f0; stroke: #9e9e9e; stroke-width: 0.45; stroke-linejoin: miter"/>
   </g>
   <g id="patch_34">
    <path d="M 285.738242 228.353026
L 318.202077 228.353026
L 318.202077 221.62413
L 285.738242 221.62413
z
" clip-path="url(#p6b8aecb883)" style="fill: #fff5f0; stroke: #9e9e9e; stroke-width: 0.45; stroke-linejoin: miter"/>
   </g>
   <g id="patch_35">
    <path d="M 332.11515 228.353026
L 364.578985 228.353026
L 364.578985 221.62413
L 332.11515 221.62413
z
" clip-path="url(#p6b8aecb883)" style="fill: #fff5f0; stroke: #9e9e9e; stroke-width: 0.45; stroke-linejoin: miter"/>
   </g>
   <g id="patch_36">
    <path d="M 378.492057 228.353026
L 410.955892 228.353026
L 410.955892 221.62413
L 378.492057 221.62413
z
" clip-path="url(#p6b8aecb883)" style="fill: #fff5f0; stroke: #9e9e9e; stroke-width: 0.45; stroke-linejoin: miter"/>
   </g>
   <g id="patch_37">
    <path d="M 424.868964 228.353026
L 457.332799 228.353026
L 457.332799 221.62413
L 424.868964 221.62413
z
" clip-path="url(#p6b8aecb883)" style="fill: #ffede5; stroke: #9e9e9e; stroke-width: 0.45; stroke-linejoin: miter"/>
   </g>
   <g id="patch_38">
    <path d="M 471.245871 228.353026
L 503.709706 228.353026
L 503.709706 221.62413
L 471.245871 221.62413
z
" clip-path="url(#p6b8aecb883)" style="fill: #fed9c9; stroke: #9e9e9e; stroke-width: 0.45; stroke-linejoin: miter"/>
   </g>
   <g id="matplotlib.axis_5">
    <g id="xtick_21">
     <g id="line2d_46">
      <defs>
       <path id="mcbf2392bed" d="M 0 0
L 0 2.5
" style="stroke: #000000; stroke-width: 0.8"/>
      </defs>
      <g>
       <use xlink:href="#mcbf2392bed" x="70.085624" y="234.4968" style="stroke: #000000; stroke-width: 0.8"/>
      </g>
     </g>
     <g id="text_16">
      <!-- 0 -->
      <g transform="translate(67.158874 245.987362) scale(0.092 -0.092)">
       <use xlink:href="#DejaVuSans-30"/>
      </g>
     </g>
    </g>
    <g id="xtick_22">
     <g id="line2d_47">
      <g>
       <use xlink:href="#mcbf2392bed" x="116.462531" y="234.4968" style="stroke: #000000; stroke-width: 0.8"/>
      </g>
     </g>
     <g id="text_17">
      <!-- 0.05 -->
      <g transform="translate(106.220343 245.987362) scale(0.092 -0.092)">
       <defs>
        <path id="DejaVuSans-35" d="M 691 4666
L 3169 4666
L 3169 4134
L 1269 4134
L 1269 2991
Q 1406 3038 1543 3061
Q 1681 3084 1819 3084
Q 2600 3084 3056 2656
Q 3513 2228 3513 1497
Q 3513 744 3044 326
Q 2575 -91 1722 -91
Q 1428 -91 1123 -41
Q 819 9 494 109
L 494 744
Q 775 591 1075 516
Q 1375 441 1709 441
Q 2250 441 2565 725
Q 2881 1009 2881 1497
Q 2881 1984 2565 2268
Q 2250 2553 1709 2553
Q 1456 2553 1204 2497
Q 953 2441 691 2322
L 691 4666
z
" transform="scale(0.015625)"/>
       </defs>
       <use xlink:href="#DejaVuSans-30"/>
       <use xlink:href="#DejaVuSans-2e" transform="translate(63.623047 0)"/>
       <use xlink:href="#DejaVuSans-30" transform="translate(95.410156 0)"/>
       <use xlink:href="#DejaVuSans-35" transform="translate(159.033203 0)"/>
      </g>
     </g>
    </g>
    <g id="xtick_23">
     <g id="line2d_48">
      <g>
       <use xlink:href="#mcbf2392bed" x="162.839438" y="234.4968" style="stroke: #000000; stroke-width: 0.8"/>
      </g>
     </g>
     <g id="text_18">
      <!-- 0.1 -->
      <g transform="translate(155.524001 245.987362) scale(0.092 -0.092)">
       <use xlink:href="#DejaVuSans-30"/>
       <use xlink:href="#DejaVuSans-2e" transform="translate(63.623047 0)"/>
       <use xlink:href="#DejaVuSans-31" transform="translate(95.410156 0)"/>
      </g>
     </g>
    </g>
    <g id="xtick_24">
     <g id="line2d_49">
      <g>
       <use xlink:href="#mcbf2392bed" x="209.216345" y="234.4968" style="stroke: #000000; stroke-width: 0.8"/>
      </g>
     </g>
     <g id="text_19">
      <!-- 0.2 -->
      <g transform="translate(201.900908 245.987362) scale(0.092 -0.092)">
       <use xlink:href="#DejaVuSans-30"/>
       <use xlink:href="#DejaVuSans-2e" transform="translate(63.623047 0)"/>
       <use xlink:href="#DejaVuSans-32" transform="translate(95.410156 0)"/>
      </g>
     </g>
    </g>
    <g id="xtick_25">
     <g id="line2d_50">
      <g>
       <use xlink:href="#mcbf2392bed" x="255.593253" y="234.4968" style="stroke: #000000; stroke-width: 0.8"/>
      </g>
     </g>
     <g id="text_20">
      <!-- 0.35 -->
      <g transform="translate(245.351065 245.987362) scale(0.092 -0.092)">
       <defs>
        <path id="DejaVuSans-33" d="M 2597 2516
Q 3050 2419 3304 2112
Q 3559 1806 3559 1356
Q 3559 666 3084 287
Q 2609 -91 1734 -91
Q 1441 -91 1130 -33
Q 819 25 488 141
L 488 750
Q 750 597 1062 519
Q 1375 441 1716 441
Q 2309 441 2620 675
Q 2931 909 2931 1356
Q 2931 1769 2642 2001
Q 2353 2234 1838 2234
L 1294 2234
L 1294 2753
L 1863 2753
Q 2328 2753 2575 2939
Q 2822 3125 2822 3475
Q 2822 3834 2567 4026
Q 2313 4219 1838 4219
Q 1578 4219 1281 4162
Q 984 4106 628 3988
L 628 4550
Q 988 4650 1302 4700
Q 1616 4750 1894 4750
Q 2613 4750 3031 4423
Q 3450 4097 3450 3541
Q 3450 3153 3228 2886
Q 3006 2619 2597 2516
z
" transform="scale(0.015625)"/>
       </defs>
       <use xlink:href="#DejaVuSans-30"/>
       <use xlink:href="#DejaVuSans-2e" transform="translate(63.623047 0)"/>
       <use xlink:href="#DejaVuSans-33" transform="translate(95.410156 0)"/>
       <use xlink:href="#DejaVuSans-35" transform="translate(159.033203 0)"/>
      </g>
     </g>
    </g>
    <g id="xtick_26">
     <g id="line2d_51">
      <g>
       <use xlink:href="#mcbf2392bed" x="301.97016" y="234.4968" style="stroke: #000000; stroke-width: 0.8"/>
      </g>
     </g>
     <g id="text_21">
      <!-- 0.5 -->
      <g transform="translate(294.654722 245.987362) scale(0.092 -0.092)">
       <use xlink:href="#DejaVuSans-30"/>
       <use xlink:href="#DejaVuSans-2e" transform="translate(63.623047 0)"/>
       <use xlink:href="#DejaVuSans-35" transform="translate(95.410156 0)"/>
      </g>
     </g>
    </g>
    <g id="xtick_27">
     <g id="line2d_52">
      <g>
       <use xlink:href="#mcbf2392bed" x="348.347067" y="234.4968" style="stroke: #000000; stroke-width: 0.8"/>
      </g>
     </g>
     <g id="text_22">
      <!-- 0.75 -->
      <g transform="translate(338.10488 245.987362) scale(0.092 -0.092)">
       <defs>
        <path id="DejaVuSans-37" d="M 525 4666
L 3525 4666
L 3525 4397
L 1831 0
L 1172 0
L 2766 4134
L 525 4134
L 525 4666
z
" transform="scale(0.015625)"/>
       </defs>
       <use xlink:href="#DejaVuSans-30"/>
       <use xlink:href="#DejaVuSans-2e" transform="translate(63.623047 0)"/>
       <use xlink:href="#DejaVuSans-37" transform="translate(95.410156 0)"/>
       <use xlink:href="#DejaVuSans-35" transform="translate(159.033203 0)"/>
      </g>
     </g>
    </g>
    <g id="xtick_28">
     <g id="line2d_53">
      <g>
       <use xlink:href="#mcbf2392bed" x="394.723974" y="234.4968" style="stroke: #000000; stroke-width: 0.8"/>
      </g>
     </g>
     <g id="text_23">
      <!-- 1 -->
      <g transform="translate(391.797224 245.987362) scale(0.092 -0.092)">
       <use xlink:href="#DejaVuSans-31"/>
      </g>
     </g>
    </g>
    <g id="xtick_29">
     <g id="line2d_54">
      <g>
       <use xlink:href="#mcbf2392bed" x="441.100882" y="234.4968" style="stroke: #000000; stroke-width: 0.8"/>
      </g>
     </g>
     <g id="text_24">
      <!-- 1.5 -->
      <g transform="translate(433.785444 245.987362) scale(0.092 -0.092)">
       <use xlink:href="#DejaVuSans-31"/>
       <use xlink:href="#DejaVuSans-2e" transform="translate(63.623047 0)"/>
       <use xlink:href="#DejaVuSans-35" transform="translate(95.410156 0)"/>
      </g>
     </g>
    </g>
    <g id="xtick_30">
     <g id="line2d_55">
      <g>
       <use xlink:href="#mcbf2392bed" x="487.477789" y="234.4968" style="stroke: #000000; stroke-width: 0.8"/>
      </g>
     </g>
     <g id="text_25">
      <!-- 2 -->
      <g transform="translate(484.551039 245.987362) scale(0.092 -0.092)">
       <use xlink:href="#DejaVuSans-32"/>
      </g>
     </g>
    </g>
    <g id="text_26">
     <!-- Effective negative strength $q/p$ -->
     <g transform="translate(188.591706 258.716675) scale(0.116 -0.116)">
      <defs>
       <path id="DejaVuSans-45" d="M 628 4666
L 3578 4666
L 3578 4134
L 1259 4134
L 1259 2753
L 3481 2753
L 3481 2222
L 1259 2222
L 1259 531
L 3634 531
L 3634 0
L 628 0
L 628 4666
z
" transform="scale(0.015625)"/>
       <path id="DejaVuSans-Oblique-71" d="M 2669 525
Q 2438 222 2123 65
Q 1809 -91 1428 -91
Q 897 -91 595 267
Q 294 625 294 1253
Q 294 1759 480 2231
Q 666 2703 1013 3078
Q 1238 3322 1530 3453
Q 1822 3584 2144 3584
Q 2531 3584 2781 3431
Q 3031 3278 3144 2969
L 3244 3494
L 3822 3494
L 2888 -1319
L 2309 -1319
L 2669 525
z
M 891 1338
Q 891 875 1084 633
Q 1278 391 1644 391
Q 2188 391 2572 911
Q 2956 1431 2956 2175
Q 2956 2625 2757 2864
Q 2559 3103 2188 3103
Q 1916 3103 1684 2976
Q 1453 2850 1281 2606
Q 1100 2350 995 2006
Q 891 1663 891 1338
z
" transform="scale(0.015625)"/>
       <path id="DejaVuSans-2f" d="M 1625 4666
L 2156 4666
L 531 -594
L 0 -594
L 1625 4666
z
" transform="scale(0.015625)"/>
       <path id="DejaVuSans-Oblique-70" d="M 3175 2156
Q 3175 2616 2975 2859
Q 2775 3103 2400 3103
Q 2144 3103 1911 2972
Q 1678 2841 1497 2591
Q 1319 2344 1212 1994
Q 1106 1644 1106 1300
Q 1106 863 1306 627
Q 1506 391 1875 391
Q 2147 391 2380 519
Q 2613 647 2778 891
Q 2956 1147 3065 1494
Q 3175 1841 3175 2156
z
M 1394 2969
Q 1625 3272 1939 3428
Q 2253 3584 2638 3584
Q 3175 3584 3472 3232
Q 3769 2881 3769 2247
Q 3769 1728 3584 1258
Q 3400 788 3053 416
Q 2822 169 2531 39
Q 2241 -91 1919 -91
Q 1547 -91 1294 64
Q 1041 219 916 525
L 556 -1331
L -19 -1331
L 922 3500
L 1497 3500
L 1394 2969
z
" transform="scale(0.015625)"/>
      </defs>
      <use xlink:href="#DejaVuSans-45" transform="translate(0 0.015625)"/>
      <use xlink:href="#DejaVuSans-66" transform="translate(63.183594 0.015625)"/>
      <use xlink:href="#DejaVuSans-66" transform="translate(98.388672 0.015625)"/>
      <use xlink:href="#DejaVuSans-65" transform="translate(133.59375 0.015625)"/>
      <use xlink:href="#DejaVuSans-63" transform="translate(195.117188 0.015625)"/>
      <use xlink:href="#DejaVuSans-74" transform="translate(250.097656 0.015625)"/>
      <use xlink:href="#DejaVuSans-69" transform="translate(289.306641 0.015625)"/>
      <use xlink:href="#DejaVuSans-76" transform="translate(317.089844 0.015625)"/>
      <use xlink:href="#DejaVuSans-65" transform="translate(376.269531 0.015625)"/>
      <use xlink:href="#DejaVuSans-20" transform="translate(437.792969 0.015625)"/>
      <use xlink:href="#DejaVuSans-6e" transform="translate(469.580078 0.015625)"/>
      <use xlink:href="#DejaVuSans-65" transform="translate(532.958984 0.015625)"/>
      <use xlink:href="#DejaVuSans-67" transform="translate(594.482422 0.015625)"/>
      <use xlink:href="#DejaVuSans-61" transform="translate(657.958984 0.015625)"/>
      <use xlink:href="#DejaVuSans-74" transform="translate(719.238281 0.015625)"/>
      <use xlink:href="#DejaVuSans-69" transform="translate(758.447266 0.015625)"/>
      <use xlink:href="#DejaVuSans-76" transform="translate(786.230469 0.015625)"/>
      <use xlink:href="#DejaVuSans-65" transform="translate(845.410156 0.015625)"/>
      <use xlink:href="#DejaVuSans-20" transform="translate(906.933594 0.015625)"/>
      <use xlink:href="#DejaVuSans-73" transform="translate(938.720703 0.015625)"/>
      <use xlink:href="#DejaVuSans-74" transform="translate(990.820312 0.015625)"/>
      <use xlink:href="#DejaVuSans-72" transform="translate(1030.029297 0.015625)"/>
      <use xlink:href="#DejaVuSans-65" transform="translate(1071.142578 0.015625)"/>
      <use xlink:href="#DejaVuSans-6e" transform="translate(1132.666016 0.015625)"/>
      <use xlink:href="#DejaVuSans-67" transform="translate(1196.044922 0.015625)"/>
      <use xlink:href="#DejaVuSans-74" transform="translate(1259.521484 0.015625)"/>
      <use xlink:href="#DejaVuSans-68" transform="translate(1298.730469 0.015625)"/>
      <use xlink:href="#DejaVuSans-20" transform="translate(1362.109375 0.015625)"/>
      <use xlink:href="#DejaVuSans-Oblique-71" transform="translate(1393.896484 0.015625)"/>
      <use xlink:href="#DejaVuSans-2f" transform="translate(1457.373047 0.015625)"/>
      <use xlink:href="#DejaVuSans-Oblique-70" transform="translate(1491.064453 0.015625)"/>
     </g>
    </g>
   </g>
   <g id="matplotlib.axis_6">
    <g id="ytick_8">
     <g id="line2d_56"/>
     <g id="text_27">
      <!-- Task coll. -->
      <g transform="translate(7.445019 203.692187) scale(0.094 -0.094)">
       <defs>
        <path id="DejaVuSans-54" d="M -19 4666
L 3928 4666
L 3928 4134
L 2272 4134
L 2272 0
L 1638 0
L 1638 4134
L -19 4134
L -19 4666
z
" transform="scale(0.015625)"/>
        <path id="DejaVuSans-6b" d="M 581 4863
L 1159 4863
L 1159 1991
L 2875 3500
L 3609 3500
L 1753 1863
L 3688 0
L 2938 0
L 1159 1709
L 1159 0
L 581 0
L 581 4863
z
" transform="scale(0.015625)"/>
       </defs>
       <use xlink:href="#DejaVuSans-54"/>
       <use xlink:href="#DejaVuSans-61" transform="translate(44.583984 0)"/>
       <use xlink:href="#DejaVuSans-73" transform="translate(105.863281 0)"/>
       <use xlink:href="#DejaVuSans-6b" transform="translate(157.962891 0)"/>
       <use xlink:href="#DejaVuSans-20" transform="translate(215.873047 0)"/>
       <use xlink:href="#DejaVuSans-63" transform="translate(247.660156 0)"/>
       <use xlink:href="#DejaVuSans-6f" transform="translate(302.640625 0)"/>
       <use xlink:href="#DejaVuSans-6c" transform="translate(363.822266 0)"/>
       <use xlink:href="#DejaVuSans-6c" transform="translate(391.605469 0)"/>
       <use xlink:href="#DejaVuSans-2e" transform="translate(419.388672 0)"/>
      </g>
     </g>
    </g>
    <g id="ytick_9">
     <g id="line2d_57"/>
     <g id="text_28">
      <!-- Boundary -->
      <g transform="translate(4.582425 216.126015) scale(0.094 -0.094)">
       <defs>
        <path id="DejaVuSans-42" d="M 1259 2228
L 1259 519
L 2272 519
Q 2781 519 3026 730
Q 3272 941 3272 1375
Q 3272 1813 3026 2020
Q 2781 2228 2272 2228
L 1259 2228
z
M 1259 4147
L 1259 2741
L 2194 2741
Q 2656 2741 2882 2914
Q 3109 3088 3109 3444
Q 3109 3797 2882 3972
Q 2656 4147 2194 4147
L 1259 4147
z
M 628 4666
L 2241 4666
Q 2963 4666 3353 4366
Q 3744 4066 3744 3513
Q 3744 3084 3544 2831
Q 3344 2578 2956 2516
Q 3422 2416 3680 2098
Q 3938 1781 3938 1306
Q 3938 681 3513 340
Q 3088 0 2303 0
L 628 0
L 628 4666
z
" transform="scale(0.015625)"/>
       </defs>
       <use xlink:href="#DejaVuSans-42"/>
       <use xlink:href="#DejaVuSans-6f" transform="translate(68.603516 0)"/>
       <use xlink:href="#DejaVuSans-75" transform="translate(129.785156 0)"/>
       <use xlink:href="#DejaVuSans-6e" transform="translate(193.164062 0)"/>
       <use xlink:href="#DejaVuSans-64" transform="translate(256.542969 0)"/>
       <use xlink:href="#DejaVuSans-61" transform="translate(320.019531 0)"/>
       <use xlink:href="#DejaVuSans-72" transform="translate(381.298828 0)"/>
       <use xlink:href="#DejaVuSans-79" transform="translate(422.412109 0)"/>
      </g>
     </g>
    </g>
    <g id="ytick_10">
     <g id="line2d_58"/>
     <g id="text_29">
      <!-- NaN/Inf -->
      <g transform="translate(14.82255 228.559844) scale(0.094 -0.094)">
       <defs>
        <path id="DejaVuSans-4e" d="M 628 4666
L 1478 4666
L 3547 763
L 3547 4666
L 4159 4666
L 4159 0
L 3309 0
L 1241 3903
L 1241 0
L 628 0
L 628 4666
z
" transform="scale(0.015625)"/>
        <path id="DejaVuSans-49" d="M 628 4666
L 1259 4666
L 1259 0
L 628 0
L 628 4666
z
" transform="scale(0.015625)"/>
       </defs>
       <use xlink:href="#DejaVuSans-4e"/>
       <use xlink:href="#DejaVuSans-61" transform="translate(74.804688 0)"/>
       <use xlink:href="#DejaVuSans-4e" transform="translate(136.083984 0)"/>
       <use xlink:href="#DejaVuSans-2f" transform="translate(210.888672 0)"/>
       <use xlink:href="#DejaVuSans-49" transform="translate(244.580078 0)"/>
       <use xlink:href="#DejaVuSans-6e" transform="translate(274.072266 0)"/>
       <use xlink:href="#DejaVuSans-66" transform="translate(337.451172 0)"/>
      </g>
     </g>
    </g>
   </g>
   <g id="patch_39">
    <path d="M 53.853706 234.4968
L 503.709706 234.4968
" style="fill: none; stroke: #000000; stroke-width: 0.8; stroke-linejoin: miter; stroke-linecap: square"/>
   </g>
   <g id="text_30">
    <!-- 0/20 -->
    <g transform="translate(60.213682 202.342218) scale(0.0805 -0.0805)">
     <defs>
      <path id="DejaVuSans-Bold-30" d="M 2944 2338
Q 2944 3213 2780 3570
Q 2616 3928 2228 3928
Q 1841 3928 1675 3570
Q 1509 3213 1509 2338
Q 1509 1453 1675 1090
Q 1841 728 2228 728
Q 2613 728 2778 1090
Q 2944 1453 2944 2338
z
M 4147 2328
Q 4147 1169 3647 539
Q 3147 -91 2228 -91
Q 1306 -91 806 539
Q 306 1169 306 2328
Q 306 3491 806 4120
Q 1306 4750 2228 4750
Q 3147 4750 3647 4120
Q 4147 3491 4147 2328
z
" transform="scale(0.015625)"/>
      <path id="DejaVuSans-Bold-2f" d="M 1644 4666
L 2338 4666
L 691 -594
L 0 -594
L 1644 4666
z
" transform="scale(0.015625)"/>
      <path id="DejaVuSans-Bold-32" d="M 1844 884
L 3897 884
L 3897 0
L 506 0
L 506 884
L 2209 2388
Q 2438 2594 2547 2791
Q 2656 2988 2656 3200
Q 2656 3528 2436 3728
Q 2216 3928 1850 3928
Q 1569 3928 1234 3808
Q 900 3688 519 3450
L 519 4475
Q 925 4609 1322 4679
Q 1719 4750 2100 4750
Q 2938 4750 3402 4381
Q 3866 4013 3866 3353
Q 3866 2972 3669 2642
Q 3472 2313 2841 1759
L 1844 884
z
" transform="scale(0.015625)"/>
     </defs>
     <use xlink:href="#DejaVuSans-Bold-30"/>
     <use xlink:href="#DejaVuSans-Bold-2f" transform="translate(69.580078 0)"/>
     <use xlink:href="#DejaVuSans-Bold-32" transform="translate(106.103516 0)"/>
     <use xlink:href="#DejaVuSans-Bold-30" transform="translate(175.683594 0)"/>
    </g>
   </g>
   <g id="text_31">
    <!-- 0/20 -->
    <g transform="translate(106.59059 202.342218) scale(0.0805 -0.0805)">
     <use xlink:href="#DejaVuSans-Bold-30"/>
     <use xlink:href="#DejaVuSans-Bold-2f" transform="translate(69.580078 0)"/>
     <use xlink:href="#DejaVuSans-Bold-32" transform="translate(106.103516 0)"/>
     <use xlink:href="#DejaVuSans-Bold-30" transform="translate(175.683594 0)"/>
    </g>
   </g>
   <g id="text_32">
    <!-- 0/20 -->
    <g transform="translate(152.967497 202.342218) scale(0.0805 -0.0805)">
     <use xlink:href="#DejaVuSans-Bold-30"/>
     <use xlink:href="#DejaVuSans-Bold-2f" transform="translate(69.580078 0)"/>
     <use xlink:href="#DejaVuSans-Bold-32" transform="translate(106.103516 0)"/>
     <use xlink:href="#DejaVuSans-Bold-30" transform="translate(175.683594 0)"/>
    </g>
   </g>
   <g id="text_33">
    <!-- 0/20 -->
    <g transform="translate(199.344404 202.342218) scale(0.0805 -0.0805)">
     <use xlink:href="#DejaVuSans-Bold-30"/>
     <use xlink:href="#DejaVuSans-Bold-2f" transform="translate(69.580078 0)"/>
     <use xlink:href="#DejaVuSans-Bold-32" transform="translate(106.103516 0)"/>
     <use xlink:href="#DejaVuSans-Bold-30" transform="translate(175.683594 0)"/>
    </g>
   </g>
   <g id="text_34">
    <!-- 0/20 -->
    <g transform="translate(245.721311 202.342218) scale(0.0805 -0.0805)">
     <use xlink:href="#DejaVuSans-Bold-30"/>
     <use xlink:href="#DejaVuSans-Bold-2f" transform="translate(69.580078 0)"/>
     <use xlink:href="#DejaVuSans-Bold-32" transform="translate(106.103516 0)"/>
     <use xlink:href="#DejaVuSans-Bold-30" transform="translate(175.683594 0)"/>
    </g>
   </g>
   <g id="text_35">
    <!-- 0/20 -->
    <g transform="translate(292.098218 202.342218) scale(0.0805 -0.0805)">
     <use xlink:href="#DejaVuSans-Bold-30"/>
     <use xlink:href="#DejaVuSans-Bold-2f" transform="translate(69.580078 0)"/>
     <use xlink:href="#DejaVuSans-Bold-32" transform="translate(106.103516 0)"/>
     <use xlink:href="#DejaVuSans-Bold-30" transform="translate(175.683594 0)"/>
    </g>
   </g>
   <g id="text_36">
    <!-- 1/20 -->
    <g transform="translate(338.475126 202.342218) scale(0.0805 -0.0805)">
     <defs>
      <path id="DejaVuSans-Bold-31" d="M 750 831
L 1813 831
L 1813 3847
L 722 3622
L 722 4441
L 1806 4666
L 2950 4666
L 2950 831
L 4013 831
L 4013 0
L 750 0
L 750 831
z
" transform="scale(0.015625)"/>
     </defs>
     <use xlink:href="#DejaVuSans-Bold-31"/>
     <use xlink:href="#DejaVuSans-Bold-2f" transform="translate(69.580078 0)"/>
     <use xlink:href="#DejaVuSans-Bold-32" transform="translate(106.103516 0)"/>
     <use xlink:href="#DejaVuSans-Bold-30" transform="translate(175.683594 0)"/>
    </g>
   </g>
   <g id="text_37">
    <!-- 5/20 -->
    <g transform="translate(384.852033 202.342218) scale(0.0805 -0.0805)">
     <defs>
      <path id="DejaVuSans-Bold-35" d="M 678 4666
L 3669 4666
L 3669 3781
L 1638 3781
L 1638 3059
Q 1775 3097 1914 3117
Q 2053 3138 2203 3138
Q 3056 3138 3531 2711
Q 4006 2284 4006 1522
Q 4006 766 3489 337
Q 2972 -91 2053 -91
Q 1656 -91 1267 -14
Q 878 63 494 219
L 494 1166
Q 875 947 1217 837
Q 1559 728 1863 728
Q 2300 728 2551 942
Q 2803 1156 2803 1522
Q 2803 1891 2551 2103
Q 2300 2316 1863 2316
Q 1603 2316 1309 2248
Q 1016 2181 678 2041
L 678 4666
z
" transform="scale(0.015625)"/>
     </defs>
     <use xlink:href="#DejaVuSans-Bold-35"/>
     <use xlink:href="#DejaVuSans-Bold-2f" transform="translate(69.580078 0)"/>
     <use xlink:href="#DejaVuSans-Bold-32" transform="translate(106.103516 0)"/>
     <use xlink:href="#DejaVuSans-Bold-30" transform="translate(175.683594 0)"/>
    </g>
   </g>
   <g id="text_38">
    <!-- 14/20 -->
    <g style="fill: #ffffff" transform="translate(428.428421 202.342218) scale(0.0805 -0.0805)">
     <defs>
      <path id="DejaVuSans-Bold-34" d="M 2356 3675
L 1038 1722
L 2356 1722
L 2356 3675
z
M 2156 4666
L 3494 4666
L 3494 1722
L 4159 1722
L 4159 850
L 3494 850
L 3494 0
L 2356 0
L 2356 850
L 288 850
L 288 1881
L 2156 4666
z
" transform="scale(0.015625)"/>
     </defs>
     <use xlink:href="#DejaVuSans-Bold-31"/>
     <use xlink:href="#DejaVuSans-Bold-34" transform="translate(69.580078 0)"/>
     <use xlink:href="#DejaVuSans-Bold-2f" transform="translate(139.160156 0)"/>
     <use xlink:href="#DejaVuSans-Bold-32" transform="translate(175.683594 0)"/>
     <use xlink:href="#DejaVuSans-Bold-30" transform="translate(245.263672 0)"/>
    </g>
   </g>
   <g id="text_39">
    <!-- 19/20 -->
    <g style="fill: #ffffff" transform="translate(474.805328 202.342218) scale(0.0805 -0.0805)">
     <defs>
      <path id="DejaVuSans-Bold-39" d="M 641 103
L 641 966
Q 928 831 1190 764
Q 1453 697 1709 697
Q 2247 697 2547 995
Q 2847 1294 2900 1881
Q 2688 1725 2447 1647
Q 2206 1569 1925 1569
Q 1209 1569 770 1986
Q 331 2403 331 3084
Q 331 3838 820 4291
Q 1309 4744 2131 4744
Q 3044 4744 3544 4128
Q 4044 3513 4044 2388
Q 4044 1231 3459 570
Q 2875 -91 1856 -91
Q 1528 -91 1228 -42
Q 928 6 641 103
z
M 2125 2350
Q 2441 2350 2600 2554
Q 2759 2759 2759 3169
Q 2759 3575 2600 3781
Q 2441 3988 2125 3988
Q 1809 3988 1650 3781
Q 1491 3575 1491 3169
Q 1491 2759 1650 2554
Q 1809 2350 2125 2350
z
" transform="scale(0.015625)"/>
     </defs>
     <use xlink:href="#DejaVuSans-Bold-31"/>
     <use xlink:href="#DejaVuSans-Bold-39" transform="translate(69.580078 0)"/>
     <use xlink:href="#DejaVuSans-Bold-2f" transform="translate(139.160156 0)"/>
     <use xlink:href="#DejaVuSans-Bold-32" transform="translate(175.683594 0)"/>
     <use xlink:href="#DejaVuSans-Bold-30" transform="translate(245.263672 0)"/>
    </g>
   </g>
   <g id="text_40">
    <!-- 0/20 -->
    <g transform="translate(60.213682 214.776046) scale(0.0805 -0.0805)">
     <use xlink:href="#DejaVuSans-Bold-30"/>
     <use xlink:href="#DejaVuSans-Bold-2f" transform="translate(69.580078 0)"/>
     <use xlink:href="#DejaVuSans-Bold-32" transform="translate(106.103516 0)"/>
     <use xlink:href="#DejaVuSans-Bold-30" transform="translate(175.683594 0)"/>
    </g>
   </g>
   <g id="text_41">
    <!-- 0/20 -->
    <g transform="translate(106.59059 214.776046) scale(0.0805 -0.0805)">
     <use xlink:href="#DejaVuSans-Bold-30"/>
     <use xlink:href="#DejaVuSans-Bold-2f" transform="translate(69.580078 0)"/>
     <use xlink:href="#DejaVuSans-Bold-32" transform="translate(106.103516 0)"/>
     <use xlink:href="#DejaVuSans-Bold-30" transform="translate(175.683594 0)"/>
    </g>
   </g>
   <g id="text_42">
    <!-- 0/20 -->
    <g transform="translate(152.967497 214.776046) scale(0.0805 -0.0805)">
     <use xlink:href="#DejaVuSans-Bold-30"/>
     <use xlink:href="#DejaVuSans-Bold-2f" transform="translate(69.580078 0)"/>
     <use xlink:href="#DejaVuSans-Bold-32" transform="translate(106.103516 0)"/>
     <use xlink:href="#DejaVuSans-Bold-30" transform="translate(175.683594 0)"/>
    </g>
   </g>
   <g id="text_43">
    <!-- 0/20 -->
    <g transform="translate(199.344404 214.776046) scale(0.0805 -0.0805)">
     <use xlink:href="#DejaVuSans-Bold-30"/>
     <use xlink:href="#DejaVuSans-Bold-2f" transform="translate(69.580078 0)"/>
     <use xlink:href="#DejaVuSans-Bold-32" transform="translate(106.103516 0)"/>
     <use xlink:href="#DejaVuSans-Bold-30" transform="translate(175.683594 0)"/>
    </g>
   </g>
   <g id="text_44">
    <!-- 1/20 -->
    <g transform="translate(245.721311 214.776046) scale(0.0805 -0.0805)">
     <use xlink:href="#DejaVuSans-Bold-31"/>
     <use xlink:href="#DejaVuSans-Bold-2f" transform="translate(69.580078 0)"/>
     <use xlink:href="#DejaVuSans-Bold-32" transform="translate(106.103516 0)"/>
     <use xlink:href="#DejaVuSans-Bold-30" transform="translate(175.683594 0)"/>
    </g>
   </g>
   <g id="text_45">
    <!-- 2/20 -->
    <g transform="translate(292.098218 214.776046) scale(0.0805 -0.0805)">
     <use xlink:href="#DejaVuSans-Bold-32"/>
     <use xlink:href="#DejaVuSans-Bold-2f" transform="translate(69.580078 0)"/>
     <use xlink:href="#DejaVuSans-Bold-32" transform="translate(106.103516 0)"/>
     <use xlink:href="#DejaVuSans-Bold-30" transform="translate(175.683594 0)"/>
    </g>
   </g>
   <g id="text_46">
    <!-- 4/20 -->
    <g transform="translate(338.475126 214.776046) scale(0.0805 -0.0805)">
     <use xlink:href="#DejaVuSans-Bold-34"/>
     <use xlink:href="#DejaVuSans-Bold-2f" transform="translate(69.580078 0)"/>
     <use xlink:href="#DejaVuSans-Bold-32" transform="translate(106.103516 0)"/>
     <use xlink:href="#DejaVuSans-Bold-30" transform="translate(175.683594 0)"/>
    </g>
   </g>
   <g id="text_47">
    <!-- 8/20 -->
    <g transform="translate(384.852033 214.776046) scale(0.0805 -0.0805)">
     <defs>
      <path id="DejaVuSans-Bold-38" d="M 2228 2088
Q 1891 2088 1709 1903
Q 1528 1719 1528 1375
Q 1528 1031 1709 848
Q 1891 666 2228 666
Q 2563 666 2741 848
Q 2919 1031 2919 1375
Q 2919 1722 2741 1905
Q 2563 2088 2228 2088
z
M 1350 2484
Q 925 2613 709 2878
Q 494 3144 494 3541
Q 494 4131 934 4440
Q 1375 4750 2228 4750
Q 3075 4750 3515 4442
Q 3956 4134 3956 3541
Q 3956 3144 3739 2878
Q 3522 2613 3097 2484
Q 3572 2353 3814 2058
Q 4056 1763 4056 1313
Q 4056 619 3595 264
Q 3134 -91 2228 -91
Q 1319 -91 855 264
Q 391 619 391 1313
Q 391 1763 633 2058
Q 875 2353 1350 2484
z
M 1631 3419
Q 1631 3141 1786 2991
Q 1941 2841 2228 2841
Q 2509 2841 2662 2991
Q 2816 3141 2816 3419
Q 2816 3697 2662 3845
Q 2509 3994 2228 3994
Q 1941 3994 1786 3844
Q 1631 3694 1631 3419
z
" transform="scale(0.015625)"/>
     </defs>
     <use xlink:href="#DejaVuSans-Bold-38"/>
     <use xlink:href="#DejaVuSans-Bold-2f" transform="translate(69.580078 0)"/>
     <use xlink:href="#DejaVuSans-Bold-32" transform="translate(106.103516 0)"/>
     <use xlink:href="#DejaVuSans-Bold-30" transform="translate(175.683594 0)"/>
    </g>
   </g>
   <g id="text_48">
    <!-- 15/20 -->
    <g style="fill: #ffffff" transform="translate(428.428421 214.776046) scale(0.0805 -0.0805)">
     <use xlink:href="#DejaVuSans-Bold-31"/>
     <use xlink:href="#DejaVuSans-Bold-35" transform="translate(69.580078 0)"/>
     <use xlink:href="#DejaVuSans-Bold-2f" transform="translate(139.160156 0)"/>
     <use xlink:href="#DejaVuSans-Bold-32" transform="translate(175.683594 0)"/>
     <use xlink:href="#DejaVuSans-Bold-30" transform="translate(245.263672 0)"/>
    </g>
   </g>
   <g id="text_49">
    <!-- 18/20 -->
    <g style="fill: #ffffff" transform="translate(474.805328 214.776046) scale(0.0805 -0.0805)">
     <use xlink:href="#DejaVuSans-Bold-31"/>
     <use xlink:href="#DejaVuSans-Bold-38" transform="translate(69.580078 0)"/>
     <use xlink:href="#DejaVuSans-Bold-2f" transform="translate(139.160156 0)"/>
     <use xlink:href="#DejaVuSans-Bold-32" transform="translate(175.683594 0)"/>
     <use xlink:href="#DejaVuSans-Bold-30" transform="translate(245.263672 0)"/>
    </g>
   </g>
   <g id="text_50">
    <!-- 0/20 -->
    <g transform="translate(60.213682 227.209875) scale(0.0805 -0.0805)">
     <use xlink:href="#DejaVuSans-Bold-30"/>
     <use xlink:href="#DejaVuSans-Bold-2f" transform="translate(69.580078 0)"/>
     <use xlink:href="#DejaVuSans-Bold-32" transform="translate(106.103516 0)"/>
     <use xlink:href="#DejaVuSans-Bold-30" transform="translate(175.683594 0)"/>
    </g>
   </g>
   <g id="text_51">
    <!-- 0/20 -->
    <g transform="translate(106.59059 227.209875) scale(0.0805 -0.0805)">
     <use xlink:href="#DejaVuSans-Bold-30"/>
     <use xlink:href="#DejaVuSans-Bold-2f" transform="translate(69.580078 0)"/>
     <use xlink:href="#DejaVuSans-Bold-32" transform="translate(106.103516 0)"/>
     <use xlink:href="#DejaVuSans-Bold-30" transform="translate(175.683594 0)"/>
    </g>
   </g>
   <g id="text_52">
    <!-- 0/20 -->
    <g transform="translate(152.967497 227.209875) scale(0.0805 -0.0805)">
     <use xlink:href="#DejaVuSans-Bold-30"/>
     <use xlink:href="#DejaVuSans-Bold-2f" transform="translate(69.580078 0)"/>
     <use xlink:href="#DejaVuSans-Bold-32" transform="translate(106.103516 0)"/>
     <use xlink:href="#DejaVuSans-Bold-30" transform="translate(175.683594 0)"/>
    </g>
   </g>
   <g id="text_53">
    <!-- 0/20 -->
    <g transform="translate(199.344404 227.209875) scale(0.0805 -0.0805)">
     <use xlink:href="#DejaVuSans-Bold-30"/>
     <use xlink:href="#DejaVuSans-Bold-2f" transform="translate(69.580078 0)"/>
     <use xlink:href="#DejaVuSans-Bold-32" transform="translate(106.103516 0)"/>
     <use xlink:href="#DejaVuSans-Bold-30" transform="translate(175.683594 0)"/>
    </g>
   </g>
   <g id="text_54">
    <!-- 0/20 -->
    <g transform="translate(245.721311 227.209875) scale(0.0805 -0.0805)">
     <use xlink:href="#DejaVuSans-Bold-30"/>
     <use xlink:href="#DejaVuSans-Bold-2f" transform="translate(69.580078 0)"/>
     <use xlink:href="#DejaVuSans-Bold-32" transform="translate(106.103516 0)"/>
     <use xlink:href="#DejaVuSans-Bold-30" transform="translate(175.683594 0)"/>
    </g>
   </g>
   <g id="text_55">
    <!-- 0/20 -->
    <g transform="translate(292.098218 227.209875) scale(0.0805 -0.0805)">
     <use xlink:href="#DejaVuSans-Bold-30"/>
     <use xlink:href="#DejaVuSans-Bold-2f" transform="translate(69.580078 0)"/>
     <use xlink:href="#DejaVuSans-Bold-32" transform="translate(106.103516 0)"/>
     <use xlink:href="#DejaVuSans-Bold-30" transform="translate(175.683594 0)"/>
    </g>
   </g>
   <g id="text_56">
    <!-- 0/20 -->
    <g transform="translate(338.475126 227.209875) scale(0.0805 -0.0805)">
     <use xlink:href="#DejaVuSans-Bold-30"/>
     <use xlink:href="#DejaVuSans-Bold-2f" transform="translate(69.580078 0)"/>
     <use xlink:href="#DejaVuSans-Bold-32" transform="translate(106.103516 0)"/>
     <use xlink:href="#DejaVuSans-Bold-30" transform="translate(175.683594 0)"/>
    </g>
   </g>
   <g id="text_57">
    <!-- 0/20 -->
    <g transform="translate(384.852033 227.209875) scale(0.0805 -0.0805)">
     <use xlink:href="#DejaVuSans-Bold-30"/>
     <use xlink:href="#DejaVuSans-Bold-2f" transform="translate(69.580078 0)"/>
     <use xlink:href="#DejaVuSans-Bold-32" transform="translate(106.103516 0)"/>
     <use xlink:href="#DejaVuSans-Bold-30" transform="translate(175.683594 0)"/>
    </g>
   </g>
   <g id="text_58">
    <!-- 1/20 -->
    <g transform="translate(431.22894 227.209875) scale(0.0805 -0.0805)">
     <use xlink:href="#DejaVuSans-Bold-31"/>
     <use xlink:href="#DejaVuSans-Bold-2f" transform="translate(69.580078 0)"/>
     <use xlink:href="#DejaVuSans-Bold-32" transform="translate(106.103516 0)"/>
     <use xlink:href="#DejaVuSans-Bold-30" transform="translate(175.683594 0)"/>
    </g>
   </g>
   <g id="text_59">
    <!-- 3/20 -->
    <g transform="translate(477.605847 227.209875) scale(0.0805 -0.0805)">
     <defs>
      <path id="DejaVuSans-Bold-33" d="M 2981 2516
Q 3453 2394 3698 2092
Q 3944 1791 3944 1325
Q 3944 631 3412 270
Q 2881 -91 1863 -91
Q 1503 -91 1142 -33
Q 781 25 428 141
L 428 1069
Q 766 900 1098 814
Q 1431 728 1753 728
Q 2231 728 2486 893
Q 2741 1059 2741 1369
Q 2741 1688 2480 1852
Q 2219 2016 1709 2016
L 1228 2016
L 1228 2791
L 1734 2791
Q 2188 2791 2409 2933
Q 2631 3075 2631 3366
Q 2631 3634 2415 3781
Q 2200 3928 1806 3928
Q 1516 3928 1219 3862
Q 922 3797 628 3669
L 628 4550
Q 984 4650 1334 4700
Q 1684 4750 2022 4750
Q 2931 4750 3382 4451
Q 3834 4153 3834 3553
Q 3834 3144 3618 2883
Q 3403 2622 2981 2516
z
" transform="scale(0.015625)"/>
     </defs>
     <use xlink:href="#DejaVuSans-Bold-33"/>
     <use xlink:href="#DejaVuSans-Bold-2f" transform="translate(69.580078 0)"/>
     <use xlink:href="#DejaVuSans-Bold-32" transform="translate(106.103516 0)"/>
     <use xlink:href="#DejaVuSans-Bold-30" transform="translate(175.683594 0)"/>
    </g>
   </g>
  </g>
 </g>
 <defs>
  <clipPath id="p8af331c843">
   <rect x="53.853706" y="1.8" width="449.856" height="123.931952"/>
  </clipPath>
  <clipPath id="pf638e2d5da">
   <rect x="53.853706" y="135.011272" width="449.856" height="46.322107"/>
  </clipPath>
  <clipPath id="p6b8aecb883">
   <rect x="53.853706" y="190.612699" width="449.856" height="43.884101"/>
  </clipPath>
 </defs>
</svg>
