<?xml version="1.0" encoding="utf-8" standalone="no"?>
<!DOCTYPE svg PUBLIC "-//W3C//DTD SVG 1.1//EN"
  "http://www.w3.org/Graphics/SVG/1.1/DTD/svg11.dtd">
<svg xmlns:xlink="http://www.w3.org/1999/xlink" width="496.334187pt" height="134.399659pt" viewBox="0 0 496.334187 134.399659" xmlns="http://www.w3.org/2000/svg" version="1.1">
 <metadata>
  <rdf:RDF xmlns:dc="http://purl.org/dc/elements/1.1/" xmlns:cc="http://creativecommons.org/ns#" xmlns:rdf="http://www.w3.org/1999/02/22-rdf-syntax-ns#">
   <cc:Work>
    <dc:type rdf:resource="http://purl.org/dc/dcmitype/StillImage"/>
    <dc:date>2026-07-04T08:11:24.984218</dc:date>
    <dc:format>image/svg+xml</dc:format>
    <dc:creator>
     <cc:Agent>
      <dc:title>Matplotlib v3.10.8, https://matplotlib.org/</dc:title>
     </cc:Agent>
    </dc:creator>
   </cc:Work>
  </rdf:RDF>
 </metadata>
 <defs>
  <style type="text/css">*{stroke-linejoin: round; stroke-linecap: butt}</style>
 </defs>
 <g id="figure_1">
  <g id="patch_1">
   <path d="M 0 134.399659
L 496.334187 134.399659
L 496.334187 0
L 0 0
z
" style="fill: #ffffff"/>
  </g>
  <g id="axes_1">
   <g id="patch_2">
    <path d="M 50.654188 88.220683
L 494.534188 88.220683
L 494.534188 1.8
L 50.654188 1.8
z
" style="fill: #ffffff"/>
   </g>
   <g id="matplotlib.axis_1">
    <g id="xtick_1">
     <g id="line2d_1"/>
    </g>
    <g id="xtick_2">
     <g id="line2d_2"/>
    </g>
    <g id="xtick_3">
     <g id="line2d_3"/>
    </g>
    <g id="xtick_4">
     <g id="line2d_4"/>
    </g>
    <g id="xtick_5">
     <g id="line2d_5"/>
    </g>
    <g id="xtick_6">
     <g id="line2d_6"/>
    </g>
    <g id="xtick_7">
     <g id="line2d_7"/>
    </g>
   </g>
   <g id="matplotlib.axis_2">
    <g id="ytick_1">
     <g id="line2d_8">
      <path d="M 50.654188 75.25758
L 494.534188 75.25758
" clip-path="url(#pb581961f7d)" style="fill: none; stroke-dasharray: 1.85,0.8; stroke-dashoffset: 0; stroke: #b0b0b0; stroke-opacity: 0.32; stroke-width: 0.5"/>
     </g>
     <g id="line2d_9">
      <defs>
       <path id="m6b3cbefbff" d="M 0 0
L -3.5 0
" style="stroke: #000000; stroke-width: 0.8"/>
      </defs>
      <g>
       <use xlink:href="#m6b3cbefbff" x="50.654188" y="75.25758" style="stroke: #000000; stroke-width: 0.8"/>
      </g>
     </g>
     <g id="text_1">
      <!-- 0.25 -->
      <g transform="translate(19.607313 79.360737) scale(0.108 -0.108)">
       <defs>
        <path id="DejaVuSans-30" d="M 2034 4250
Q 1547 4250 1301 3770
Q 1056 3291 1056 2328
Q 1056 1369 1301 889
Q 1547 409 2034 409
Q 2525 409 2770 889
Q 3016 1369 3016 2328
Q 3016 3291 2770 3770
Q 2525 4250 2034 4250
z
M 2034 4750
Q 2819 4750 3233 4129
Q 3647 3509 3647 2328
Q 3647 1150 3233 529
Q 2819 -91 2034 -91
Q 1250 -91 836 529
Q 422 1150 422 2328
Q 422 3509 836 4129
Q 1250 4750 2034 4750
z
" transform="scale(0.015625)"/>
        <path id="DejaVuSans-2e" d="M 684 794
L 1344 794
L 1344 0
L 684 0
L 684 794
z
" transform="scale(0.015625)"/>
        <path id="DejaVuSans-32" d="M 1228 531
L 3431 531
L 3431 0
L 469 0
L 469 531
Q 828 903 1448 1529
Q 2069 2156 2228 2338
Q 2531 2678 2651 2914
Q 2772 3150 2772 3378
Q 2772 3750 2511 3984
Q 2250 4219 1831 4219
Q 1534 4219 1204 4116
Q 875 4013 500 3803
L 500 4441
Q 881 4594 1212 4672
Q 1544 4750 1819 4750
Q 2544 4750 2975 4387
Q 3406 4025 3406 3419
Q 3406 3131 3298 2873
Q 3191 2616 2906 2266
Q 2828 2175 2409 1742
Q 1991 1309 1228 531
z
" transform="scale(0.015625)"/>
        <path id="DejaVuSans-35" d="M 691 4666
L 3169 4666
L 3169 4134
L 1269 4134
L 1269 2991
Q 1406 3038 1543 3061
Q 1681 3084 1819 3084
Q 2600 3084 3056 2656
Q 3513 2228 3513 1497
Q 3513 744 3044 326
Q 2575 -91 1722 -91
Q 1428 -91 1123 -41
Q 819 9 494 109
L 494 744
Q 775 591 1075 516
Q 1375 441 1709 441
Q 2250 441 2565 725
Q 2881 1009 2881 1497
Q 2881 1984 2565 2268
Q 2250 2553 1709 2553
Q 1456 2553 1204 2497
Q 953 2441 691 2322
L 691 4666
z
" transform="scale(0.015625)"/>
       </defs>
       <use xlink:href="#DejaVuSans-30"/>
       <use xlink:href="#DejaVuSans-2e" transform="translate(63.623047 0)"/>
       <use xlink:href="#DejaVuSans-32" transform="translate(95.410156 0)"/>
       <use xlink:href="#DejaVuSans-35" transform="translate(159.033203 0)"/>
      </g>
     </g>
    </g>
    <g id="ytick_2">
     <g id="line2d_10">
      <path d="M 50.654188 53.65241
L 494.534188 53.65241
" clip-path="url(#pb581961f7d)" style="fill: none; stroke-dasharray: 1.85,0.8; stroke-dashoffset: 0; stroke: #b0b0b0; stroke-opacity: 0.32; stroke-width: 0.5"/>
     </g>
     <g id="line2d_11">
      <g>
       <use xlink:href="#m6b3cbefbff" x="50.654188" y="53.65241" style="stroke: #000000; stroke-width: 0.8"/>
      </g>
     </g>
     <g id="text_2">
      <!-- 0.50 -->
      <g transform="translate(19.607313 57.755566) scale(0.108 -0.108)">
       <use xlink:href="#DejaVuSans-30"/>
       <use xlink:href="#DejaVuSans-2e" transform="translate(63.623047 0)"/>
       <use xlink:href="#DejaVuSans-35" transform="translate(95.410156 0)"/>
       <use xlink:href="#DejaVuSans-30" transform="translate(159.033203 0)"/>
      </g>
     </g>
    </g>
    <g id="ytick_3">
     <g id="line2d_12">
      <path d="M 50.654188 32.047239
L 494.534188 32.047239
" clip-path="url(#pb581961f7d)" style="fill: none; stroke-dasharray: 1.85,0.8; stroke-dashoffset: 0; stroke: #b0b0b0; stroke-opacity: 0.32; stroke-width: 0.5"/>
     </g>
     <g id="line2d_13">
      <g>
       <use xlink:href="#m6b3cbefbff" x="50.654188" y="32.047239" style="stroke: #000000; stroke-width: 0.8"/>
      </g>
     </g>
     <g id="text_3">
      <!-- 0.75 -->
      <g transform="translate(19.607313 36.150395) scale(0.108 -0.108)">
       <defs>
        <path id="DejaVuSans-37" d="M 525 4666
L 3525 4666
L 3525 4397
L 1831 0
L 1172 0
L 2766 4134
L 525 4134
L 525 4666
z
" transform="scale(0.015625)"/>
       </defs>
       <use xlink:href="#DejaVuSans-30"/>
       <use xlink:href="#DejaVuSans-2e" transform="translate(63.623047 0)"/>
       <use xlink:href="#DejaVuSans-37" transform="translate(95.410156 0)"/>
       <use xlink:href="#DejaVuSans-35" transform="translate(159.033203 0)"/>
      </g>
     </g>
    </g>
    <g id="ytick_4">
     <g id="line2d_14">
      <path d="M 50.654188 10.442068
L 494.534188 10.442068
" clip-path="url(#pb581961f7d)" style="fill: none; stroke-dasharray: 1.85,0.8; stroke-dashoffset: 0; stroke: #b0b0b0; stroke-opacity: 0.32; stroke-width: 0.5"/>
     </g>
     <g id="line2d_15">
      <g>
       <use xlink:href="#m6b3cbefbff" x="50.654188" y="10.442068" style="stroke: #000000; stroke-width: 0.8"/>
      </g>
     </g>
     <g id="text_4">
      <!-- 1.00 -->
      <g transform="translate(19.607313 14.545225) scale(0.108 -0.108)">
       <defs>
        <path id="DejaVuSans-31" d="M 794 531
L 1825 531
L 1825 4091
L 703 3866
L 703 4441
L 1819 4666
L 2450 4666
L 2450 531
L 3481 531
L 3481 0
L 794 0
L 794 531
z
" transform="scale(0.015625)"/>
       </defs>
       <use xlink:href="#DejaVuSans-31"/>
       <use xlink:href="#DejaVuSans-2e" transform="translate(63.623047 0)"/>
       <use xlink:href="#DejaVuSans-30" transform="translate(95.410156 0)"/>
       <use xlink:href="#DejaVuSans-30" transform="translate(159.033203 0)"/>
      </g>
     </g>
    </g>
    <g id="text_5">
     <!-- Ret. -->
     <g transform="translate(11.070094 57.057841) rotate(-90) scale(0.122 -0.122)">
      <defs>
       <path id="DejaVuSans-52" d="M 2841 2188
Q 3044 2119 3236 1894
Q 3428 1669 3622 1275
L 4263 0
L 3584 0
L 2988 1197
Q 2756 1666 2539 1819
Q 2322 1972 1947 1972
L 1259 1972
L 1259 0
L 628 0
L 628 4666
L 2053 4666
Q 2853 4666 3247 4331
Q 3641 3997 3641 3322
Q 3641 2881 3436 2590
Q 3231 2300 2841 2188
z
M 1259 4147
L 1259 2491
L 2053 2491
Q 2509 2491 2742 2702
Q 2975 2913 2975 3322
Q 2975 3731 2742 3939
Q 2509 4147 2053 4147
L 1259 4147
z
" transform="scale(0.015625)"/>
       <path id="DejaVuSans-65" d="M 3597 1894
L 3597 1613
L 953 1613
Q 991 1019 1311 708
Q 1631 397 2203 397
Q 2534 397 2845 478
Q 3156 559 3463 722
L 3463 178
Q 3153 47 2828 -22
Q 2503 -91 2169 -91
Q 1331 -91 842 396
Q 353 884 353 1716
Q 353 2575 817 3079
Q 1281 3584 2069 3584
Q 2775 3584 3186 3129
Q 3597 2675 3597 1894
z
M 3022 2063
Q 3016 2534 2758 2815
Q 2500 3097 2075 3097
Q 1594 3097 1305 2825
Q 1016 2553 972 2059
L 3022 2063
z
" transform="scale(0.015625)"/>
       <path id="DejaVuSans-74" d="M 1172 4494
L 1172 3500
L 2356 3500
L 2356 3053
L 1172 3053
L 1172 1153
Q 1172 725 1289 603
Q 1406 481 1766 481
L 2356 481
L 2356 0
L 1766 0
Q 1100 0 847 248
Q 594 497 594 1153
L 594 3053
L 172 3053
L 172 3500
L 594 3500
L 594 4494
L 1172 4494
z
" transform="scale(0.015625)"/>
      </defs>
      <use xlink:href="#DejaVuSans-52"/>
      <use xlink:href="#DejaVuSans-65" transform="translate(64.982422 0)"/>
      <use xlink:href="#DejaVuSans-74" transform="translate(126.505859 0)"/>
      <use xlink:href="#DejaVuSans-2e" transform="translate(165.714844 0)"/>
     </g>
    </g>
   </g>
   <g id="LineCollection_1">
    <path d="M 85.039258 78.262931
L 85.039258 69.738721
" clip-path="url(#pb581961f7d)" style="fill: none; stroke: #1f77b4; stroke-width: 1.15"/>
    <path d="M 147.557568 78.683869
L 147.557568 70.71657
" clip-path="url(#pb581961f7d)" style="fill: none; stroke: #1f77b4; stroke-width: 1.15"/>
    <path d="M 210.075878 74.053179
L 210.075878 54.686481
" clip-path="url(#pb581961f7d)" style="fill: none; stroke: #1f77b4; stroke-width: 1.15"/>
    <path d="M 272.594188 30.121264
L 272.594188 24.687354
" clip-path="url(#pb581961f7d)" style="fill: none; stroke: #1f77b4; stroke-width: 1.15"/>
    <path d="M 335.112497 23.729323
L 335.112497 20.113609
" clip-path="url(#pb581961f7d)" style="fill: none; stroke: #1f77b4; stroke-width: 1.15"/>
    <path d="M 397.630807 12.255819
L 397.630807 9.826642
" clip-path="url(#pb581961f7d)" style="fill: none; stroke: #1f77b4; stroke-width: 1.15"/>
    <path d="M 460.149117 10.196294
L 460.149117 7.534937
" clip-path="url(#pb581961f7d)" style="fill: none; stroke: #1f77b4; stroke-width: 1.15"/>
   </g>
   <g id="line2d_16">
    <defs>
     <path id="mdfba32c027" d="M 2.7 0
L -2.7 -0
" style="stroke: #1f77b4"/>
    </defs>
    <g clip-path="url(#pb581961f7d)">
     <use xlink:href="#mdfba32c027" x="85.039258" y="78.262931" style="fill: #1f77b4; stroke: #1f77b4"/>
     <use xlink:href="#mdfba32c027" x="147.557568" y="78.683869" style="fill: #1f77b4; stroke: #1f77b4"/>
     <use xlink:href="#mdfba32c027" x="210.075878" y="74.053179" style="fill: #1f77b4; stroke: #1f77b4"/>
     <use xlink:href="#mdfba32c027" x="272.594188" y="30.121264" style="fill: #1f77b4; stroke: #1f77b4"/>
     <use xlink:href="#mdfba32c027" x="335.112497" y="23.729323" style="fill: #1f77b4; stroke: #1f77b4"/>
     <use xlink:href="#mdfba32c027" x="397.630807" y="12.255819" style="fill: #1f77b4; stroke: #1f77b4"/>
     <use xlink:href="#mdfba32c027" x="460.149117" y="10.196294" style="fill: #1f77b4; stroke: #1f77b4"/>
    </g>
   </g>
   <g id="line2d_17">
    <g clip-path="url(#pb581961f7d)">
     <use xlink:href="#mdfba32c027" x="85.039258" y="69.738721" style="fill: #1f77b4; stroke: #1f77b4"/>
     <use xlink:href="#mdfba32c027" x="147.557568" y="70.71657" style="fill: #1f77b4; stroke: #1f77b4"/>
     <use xlink:href="#mdfba32c027" x="210.075878" y="54.686481" style="fill: #1f77b4; stroke: #1f77b4"/>
     <use xlink:href="#mdfba32c027" x="272.594188" y="24.687354" style="fill: #1f77b4; stroke: #1f77b4"/>
     <use xlink:href="#mdfba32c027" x="335.112497" y="20.113609" style="fill: #1f77b4; stroke: #1f77b4"/>
     <use xlink:href="#mdfba32c027" x="397.630807" y="9.826642" style="fill: #1f77b4; stroke: #1f77b4"/>
     <use xlink:href="#mdfba32c027" x="460.149117" y="7.534937" style="fill: #1f77b4; stroke: #1f77b4"/>
    </g>
   </g>
   <g id="line2d_18">
    <path d="M 85.039258 74.152004
L 147.557568 74.874535
L 210.075878 64.791995
L 272.594188 27.335315
L 335.112497 21.962577
L 397.630807 11.083664
L 460.149117 8.914815
" clip-path="url(#pb581961f7d)" style="fill: none; stroke: #ff7f0e; stroke-opacity: 0.65; stroke-linecap: square"/>
   </g>
   <g id="line2d_19">
    <path d="M 50.654188 57.973444
L 494.534188 57.973444
" clip-path="url(#pb581961f7d)" style="fill: none; stroke-dasharray: 3.33,1.44; stroke-dashoffset: 0; stroke: #1f77b4; stroke-opacity: 0.75; stroke-width: 0.9"/>
   </g>
   <g id="line2d_20">
    <path d="M 85.039258 74.152004
L 147.557568 74.874535
L 210.075878 64.791995
L 272.594188 27.335315
L 335.112497 21.962577
L 397.630807 11.083664
L 460.149117 8.914815
" clip-path="url(#pb581961f7d)" style="fill: none; stroke: #1f77b4; stroke-width: 1.5; stroke-linecap: square"/>
    <defs>
     <path id="meab60fb415" d="M 0 2.45
C 0.649748 2.45 1.272971 2.191853 1.732412 1.732412
C 2.191853 1.272971 2.45 0.649748 2.45 0
C 2.45 -0.649748 2.191853 -1.272971 1.732412 -1.732412
C 1.272971 -2.191853 0.649748 -2.45 0 -2.45
C -0.649748 -2.45 -1.272971 -2.191853 -1.732412 -1.732412
C -2.191853 -1.272971 -2.45 -0.649748 -2.45 0
C -2.45 0.649748 -2.191853 1.272971 -1.732412 1.732412
C -1.272971 2.191853 -0.649748 2.45 0 2.45
z
" style="stroke: #1f77b4"/>
    </defs>
    <g clip-path="url(#pb581961f7d)">
     <use xlink:href="#meab60fb415" x="85.039258" y="74.152004" style="fill: #1f77b4; stroke: #1f77b4"/>
     <use xlink:href="#meab60fb415" x="147.557568" y="74.874535" style="fill: #1f77b4; stroke: #1f77b4"/>
     <use xlink:href="#meab60fb415" x="210.075878" y="64.791995" style="fill: #1f77b4; stroke: #1f77b4"/>
     <use xlink:href="#meab60fb415" x="272.594188" y="27.335315" style="fill: #1f77b4; stroke: #1f77b4"/>
     <use xlink:href="#meab60fb415" x="335.112497" y="21.962577" style="fill: #1f77b4; stroke: #1f77b4"/>
     <use xlink:href="#meab60fb415" x="397.630807" y="11.083664" style="fill: #1f77b4; stroke: #1f77b4"/>
     <use xlink:href="#meab60fb415" x="460.149117" y="8.914815" style="fill: #1f77b4; stroke: #1f77b4"/>
    </g>
   </g>
   <g id="patch_3">
    <path d="M 50.654188 88.220683
L 50.654188 1.8
" style="fill: none; stroke: #000000; stroke-width: 0.8; stroke-linejoin: miter; stroke-linecap: square"/>
   </g>
   <g id="patch_4">
    <path d="M 50.654188 88.220683
L 494.534188 88.220683
" style="fill: none; stroke: #000000; stroke-width: 0.8; stroke-linejoin: miter; stroke-linecap: square"/>
   </g>
   <g id="text_6">
    <!-- task-collapse threshold -->
    <g transform="translate(86.289624 53.899614) scale(0.092 -0.092)">
     <defs>
      <path id="DejaVuSans-61" d="M 2194 1759
Q 1497 1759 1228 1600
Q 959 1441 959 1056
Q 959 750 1161 570
Q 1363 391 1709 391
Q 2188 391 2477 730
Q 2766 1069 2766 1631
L 2766 1759
L 2194 1759
z
M 3341 1997
L 3341 0
L 2766 0
L 2766 531
Q 2569 213 2275 61
Q 1981 -91 1556 -91
Q 1019 -91 701 211
Q 384 513 384 1019
Q 384 1609 779 1909
Q 1175 2209 1959 2209
L 2766 2209
L 2766 2266
Q 2766 2663 2505 2880
Q 2244 3097 1772 3097
Q 1472 3097 1187 3025
Q 903 2953 641 2809
L 641 3341
Q 956 3463 1253 3523
Q 1550 3584 1831 3584
Q 2591 3584 2966 3190
Q 3341 2797 3341 1997
z
" transform="scale(0.015625)"/>
      <path id="DejaVuSans-73" d="M 2834 3397
L 2834 2853
Q 2591 2978 2328 3040
Q 2066 3103 1784 3103
Q 1356 3103 1142 2972
Q 928 2841 928 2578
Q 928 2378 1081 2264
Q 1234 2150 1697 2047
L 1894 2003
Q 2506 1872 2764 1633
Q 3022 1394 3022 966
Q 3022 478 2636 193
Q 2250 -91 1575 -91
Q 1294 -91 989 -36
Q 684 19 347 128
L 347 722
Q 666 556 975 473
Q 1284 391 1588 391
Q 1994 391 2212 530
Q 2431 669 2431 922
Q 2431 1156 2273 1281
Q 2116 1406 1581 1522
L 1381 1569
Q 847 1681 609 1914
Q 372 2147 372 2553
Q 372 3047 722 3315
Q 1072 3584 1716 3584
Q 2034 3584 2315 3537
Q 2597 3491 2834 3397
z
" transform="scale(0.015625)"/>
      <path id="DejaVuSans-6b" d="M 581 4863
L 1159 4863
L 1159 1991
L 2875 3500
L 3609 3500
L 1753 1863
L 3688 0
L 2938 0
L 1159 1709
L 1159 0
L 581 0
L 581 4863
z
" transform="scale(0.015625)"/>
      <path id="DejaVuSans-2d" d="M 313 2009
L 1997 2009
L 1997 1497
L 313 1497
L 313 2009
z
" transform="scale(0.015625)"/>
      <path id="DejaVuSans-63" d="M 3122 3366
L 3122 2828
Q 2878 2963 2633 3030
Q 2388 3097 2138 3097
Q 1578 3097 1268 2742
Q 959 2388 959 1747
Q 959 1106 1268 751
Q 1578 397 2138 397
Q 2388 397 2633 464
Q 2878 531 3122 666
L 3122 134
Q 2881 22 2623 -34
Q 2366 -91 2075 -91
Q 1284 -91 818 406
Q 353 903 353 1747
Q 353 2603 823 3093
Q 1294 3584 2113 3584
Q 2378 3584 2631 3529
Q 2884 3475 3122 3366
z
" transform="scale(0.015625)"/>
      <path id="DejaVuSans-6f" d="M 1959 3097
Q 1497 3097 1228 2736
Q 959 2375 959 1747
Q 959 1119 1226 758
Q 1494 397 1959 397
Q 2419 397 2687 759
Q 2956 1122 2956 1747
Q 2956 2369 2687 2733
Q 2419 3097 1959 3097
z
M 1959 3584
Q 2709 3584 3137 3096
Q 3566 2609 3566 1747
Q 3566 888 3137 398
Q 2709 -91 1959 -91
Q 1206 -91 779 398
Q 353 888 353 1747
Q 353 2609 779 3096
Q 1206 3584 1959 3584
z
" transform="scale(0.015625)"/>
      <path id="DejaVuSans-6c" d="M 603 4863
L 1178 4863
L 1178 0
L 603 0
L 603 4863
z
" transform="scale(0.015625)"/>
      <path id="DejaVuSans-70" d="M 1159 525
L 1159 -1331
L 581 -1331
L 581 3500
L 1159 3500
L 1159 2969
Q 1341 3281 1617 3432
Q 1894 3584 2278 3584
Q 2916 3584 3314 3078
Q 3713 2572 3713 1747
Q 3713 922 3314 415
Q 2916 -91 2278 -91
Q 1894 -91 1617 61
Q 1341 213 1159 525
z
M 3116 1747
Q 3116 2381 2855 2742
Q 2594 3103 2138 3103
Q 1681 3103 1420 2742
Q 1159 2381 1159 1747
Q 1159 1113 1420 752
Q 1681 391 2138 391
Q 2594 391 2855 752
Q 3116 1113 3116 1747
z
" transform="scale(0.015625)"/>
      <path id="DejaVuSans-20" transform="scale(0.015625)"/>
      <path id="DejaVuSans-68" d="M 3513 2113
L 3513 0
L 2938 0
L 2938 2094
Q 2938 2591 2744 2837
Q 2550 3084 2163 3084
Q 1697 3084 1428 2787
Q 1159 2491 1159 1978
L 1159 0
L 581 0
L 581 4863
L 1159 4863
L 1159 2956
Q 1366 3272 1645 3428
Q 1925 3584 2291 3584
Q 2894 3584 3203 3211
Q 3513 2838 3513 2113
z
" transform="scale(0.015625)"/>
      <path id="DejaVuSans-72" d="M 2631 2963
Q 2534 3019 2420 3045
Q 2306 3072 2169 3072
Q 1681 3072 1420 2755
Q 1159 2438 1159 1844
L 1159 0
L 581 0
L 581 3500
L 1159 3500
L 1159 2956
Q 1341 3275 1631 3429
Q 1922 3584 2338 3584
Q 2397 3584 2469 3576
Q 2541 3569 2628 3553
L 2631 2963
z
" transform="scale(0.015625)"/>
      <path id="DejaVuSans-64" d="M 2906 2969
L 2906 4863
L 3481 4863
L 3481 0
L 2906 0
L 2906 525
Q 2725 213 2448 61
Q 2172 -91 1784 -91
Q 1150 -91 751 415
Q 353 922 353 1747
Q 353 2572 751 3078
Q 1150 3584 1784 3584
Q 2172 3584 2448 3432
Q 2725 3281 2906 2969
z
M 947 1747
Q 947 1113 1208 752
Q 1469 391 1925 391
Q 2381 391 2643 752
Q 2906 1113 2906 1747
Q 2906 2381 2643 2742
Q 2381 3103 1925 3103
Q 1469 3103 1208 2742
Q 947 2381 947 1747
z
" transform="scale(0.015625)"/>
     </defs>
     <use xlink:href="#DejaVuSans-74"/>
     <use xlink:href="#DejaVuSans-61" transform="translate(39.208984 0)"/>
     <use xlink:href="#DejaVuSans-73" transform="translate(100.488281 0)"/>
     <use xlink:href="#DejaVuSans-6b" transform="translate(152.587891 0)"/>
     <use xlink:href="#DejaVuSans-2d" transform="translate(210.498047 0)"/>
     <use xlink:href="#DejaVuSans-63" transform="translate(246.582031 0)"/>
     <use xlink:href="#DejaVuSans-6f" transform="translate(301.5625 0)"/>
     <use xlink:href="#DejaVuSans-6c" transform="translate(362.744141 0)"/>
     <use xlink:href="#DejaVuSans-6c" transform="translate(390.527344 0)"/>
     <use xlink:href="#DejaVuSans-61" transform="translate(418.310547 0)"/>
     <use xlink:href="#DejaVuSans-70" transform="translate(479.589844 0)"/>
     <use xlink:href="#DejaVuSans-73" transform="translate(543.066406 0)"/>
     <use xlink:href="#DejaVuSans-65" transform="translate(595.166016 0)"/>
     <use xlink:href="#DejaVuSans-20" transform="translate(656.689453 0)"/>
     <use xlink:href="#DejaVuSans-74" transform="translate(688.476562 0)"/>
     <use xlink:href="#DejaVuSans-68" transform="translate(727.685547 0)"/>
     <use xlink:href="#DejaVuSans-72" transform="translate(791.064453 0)"/>
     <use xlink:href="#DejaVuSans-65" transform="translate(829.927734 0)"/>
     <use xlink:href="#DejaVuSans-73" transform="translate(891.451172 0)"/>
     <use xlink:href="#DejaVuSans-68" transform="translate(943.550781 0)"/>
     <use xlink:href="#DejaVuSans-6f" transform="translate(1006.929688 0)"/>
     <use xlink:href="#DejaVuSans-6c" transform="translate(1068.111328 0)"/>
     <use xlink:href="#DejaVuSans-64" transform="translate(1095.894531 0)"/>
    </g>
   </g>
  </g>
  <g id="axes_2">
   <g id="patch_5">
    <path d="M 50.654188 107.244
L 494.534188 107.244
L 494.534188 89.676517
L 50.654188 89.676517
z
" style="fill: #ffffff"/>
   </g>
   <g id="patch_6">
    <path d="M 58.156385 103.730503
L 111.922131 103.730503
L 111.922131 93.190014
L 58.156385 93.190014
z
" clip-path="url(#p7df61e2a8a)" style="fill: #7e0610; stroke: #000000; stroke-width: 0.5; stroke-linejoin: miter"/>
   </g>
   <g id="patch_7">
    <path d="M 120.674695 103.730503
L 174.440441 103.730503
L 174.440441 93.190014
L 120.674695 93.190014
z
" clip-path="url(#p7df61e2a8a)" style="fill: #980c13; stroke: #000000; stroke-width: 0.5; stroke-linejoin: miter"/>
   </g>
   <g id="patch_8">
    <path d="M 183.193004 103.730503
L 236.958751 103.730503
L 236.958751 93.190014
L 183.193004 93.190014
z
" clip-path="url(#p7df61e2a8a)" style="fill: #e83429; stroke: #000000; stroke-width: 0.5; stroke-linejoin: miter"/>
   </g>
   <g id="patch_9">
    <path d="M 245.711314 103.730503
L 299.477061 103.730503
L 299.477061 93.190014
L 245.711314 93.190014
z
" clip-path="url(#p7df61e2a8a)" style="fill: #fff5f0; stroke: #000000; stroke-width: 0.5; stroke-linejoin: miter"/>
   </g>
   <g id="patch_10">
    <path d="M 308.229624 103.730503
L 361.995371 103.730503
L 361.995371 93.190014
L 308.229624 93.190014
z
" clip-path="url(#p7df61e2a8a)" style="fill: #fff5f0; stroke: #000000; stroke-width: 0.5; stroke-linejoin: miter"/>
   </g>
   <g id="patch_11">
    <path d="M 370.747934 103.730503
L 424.51368 103.730503
L 424.51368 93.190014
L 370.747934 93.190014
z
" clip-path="url(#p7df61e2a8a)" style="fill: #fff5f0; stroke: #000000; stroke-width: 0.5; stroke-linejoin: miter"/>
   </g>
   <g id="patch_12">
    <path d="M 433.266244 103.730503
L 487.03199 103.730503
L 487.03199 93.190014
L 433.266244 93.190014
z
" clip-path="url(#p7df61e2a8a)" style="fill: #fff5f0; stroke: #000000; stroke-width: 0.5; stroke-linejoin: miter"/>
   </g>
   <g id="matplotlib.axis_3">
    <g id="xtick_8">
     <g id="line2d_21"/>
     <g id="text_7">
      <!-- Base -->
      <g transform="translate(60.998863 123.143106) rotate(-18) scale(0.101 -0.101)">
       <defs>
        <path id="DejaVuSans-42" d="M 1259 2228
L 1259 519
L 2272 519
Q 2781 519 3026 730
Q 3272 941 3272 1375
Q 3272 1813 3026 2020
Q 2781 2228 2272 2228
L 1259 2228
z
M 1259 4147
L 1259 2741
L 2194 2741
Q 2656 2741 2882 2914
Q 3109 3088 3109 3444
Q 3109 3797 2882 3972
Q 2656 4147 2194 4147
L 1259 4147
z
M 628 4666
L 2241 4666
Q 2963 4666 3353 4366
Q 3744 4066 3744 3513
Q 3744 3084 3544 2831
Q 3344 2578 2956 2516
Q 3422 2416 3680 2098
Q 3938 1781 3938 1306
Q 3938 681 3513 340
Q 3088 0 2303 0
L 628 0
L 628 4666
z
" transform="scale(0.015625)"/>
       </defs>
       <use xlink:href="#DejaVuSans-42"/>
       <use xlink:href="#DejaVuSans-61" transform="translate(68.603516 0)"/>
       <use xlink:href="#DejaVuSans-73" transform="translate(129.882812 0)"/>
       <use xlink:href="#DejaVuSans-65" transform="translate(181.982422 0)"/>
      </g>
     </g>
    </g>
    <g id="xtick_9">
     <g id="line2d_22"/>
     <g id="text_8">
      <!-- Near-zero -->
      <g transform="translate(100.561121 130.60198) rotate(-18) scale(0.101 -0.101)">
       <defs>
        <path id="DejaVuSans-4e" d="M 628 4666
L 1478 4666
L 3547 763
L 3547 4666
L 4159 4666
L 4159 0
L 3309 0
L 1241 3903
L 1241 0
L 628 0
L 628 4666
z
" transform="scale(0.015625)"/>
        <path id="DejaVuSans-7a" d="M 353 3500
L 3084 3500
L 3084 2975
L 922 459
L 3084 459
L 3084 0
L 275 0
L 275 525
L 2438 3041
L 353 3041
L 353 3500
z
" transform="scale(0.015625)"/>
       </defs>
       <use xlink:href="#DejaVuSans-4e"/>
       <use xlink:href="#DejaVuSans-65" transform="translate(74.804688 0)"/>
       <use xlink:href="#DejaVuSans-61" transform="translate(136.328125 0)"/>
       <use xlink:href="#DejaVuSans-72" transform="translate(197.607422 0)"/>
       <use xlink:href="#DejaVuSans-2d" transform="translate(232.345703 0)"/>
       <use xlink:href="#DejaVuSans-7a" transform="translate(268.429688 0)"/>
       <use xlink:href="#DejaVuSans-65" transform="translate(320.919922 0)"/>
       <use xlink:href="#DejaVuSans-72" transform="translate(382.443359 0)"/>
       <use xlink:href="#DejaVuSans-6f" transform="translate(421.306641 0)"/>
      </g>
     </g>
    </g>
    <g id="xtick_10">
     <g id="line2d_23"/>
     <g id="text_9">
      <!-- Far→near -->
      <g transform="translate(165.0606 129.958259) rotate(-18) scale(0.101 -0.101)">
       <defs>
        <path id="DejaVuSans-46" d="M 628 4666
L 3309 4666
L 3309 4134
L 1259 4134
L 1259 2759
L 3109 2759
L 3109 2228
L 1259 2228
L 1259 0
L 628 0
L 628 4666
z
" transform="scale(0.015625)"/>
        <path id="DejaVuSans-2192" d="M 5050 2147
L 5050 1866
L 3822 638
L 3447 1013
L 4175 1741
L 366 1741
L 366 2272
L 4175 2272
L 3447 3000
L 3822 3375
L 5050 2147
z
" transform="scale(0.015625)"/>
        <path id="DejaVuSans-6e" d="M 3513 2113
L 3513 0
L 2938 0
L 2938 2094
Q 2938 2591 2744 2837
Q 2550 3084 2163 3084
Q 1697 3084 1428 2787
Q 1159 2491 1159 1978
L 1159 0
L 581 0
L 581 3500
L 1159 3500
L 1159 2956
Q 1366 3272 1645 3428
Q 1925 3584 2291 3584
Q 2894 3584 3203 3211
Q 3513 2838 3513 2113
z
" transform="scale(0.015625)"/>
       </defs>
       <use xlink:href="#DejaVuSans-46"/>
       <use xlink:href="#DejaVuSans-61" transform="translate(48.394531 0)"/>
       <use xlink:href="#DejaVuSans-72" transform="translate(109.673828 0)"/>
       <use xlink:href="#DejaVuSans-2192" transform="translate(150.787109 0)"/>
       <use xlink:href="#DejaVuSans-6e" transform="translate(234.576172 0)"/>
       <use xlink:href="#DejaVuSans-65" transform="translate(297.955078 0)"/>
       <use xlink:href="#DejaVuSans-61" transform="translate(359.478516 0)"/>
       <use xlink:href="#DejaVuSans-72" transform="translate(420.757812 0)"/>
      </g>
     </g>
    </g>
    <g id="xtick_11">
     <g id="line2d_24"/>
     <g id="text_10">
      <!-- Far-zero -->
      <g transform="translate(234.046228 127.8569) rotate(-18) scale(0.101 -0.101)">
       <use xlink:href="#DejaVuSans-46"/>
       <use xlink:href="#DejaVuSans-61" transform="translate(48.394531 0)"/>
       <use xlink:href="#DejaVuSans-72" transform="translate(109.673828 0)"/>
       <use xlink:href="#DejaVuSans-2d" transform="translate(144.412109 0)"/>
       <use xlink:href="#DejaVuSans-7a" transform="translate(180.496094 0)"/>
       <use xlink:href="#DejaVuSans-65" transform="translate(232.986328 0)"/>
       <use xlink:href="#DejaVuSans-72" transform="translate(294.509766 0)"/>
       <use xlink:href="#DejaVuSans-6f" transform="translate(333.373047 0)"/>
      </g>
     </g>
    </g>
    <g id="xtick_12">
     <g id="line2d_25"/>
     <g id="text_11">
      <!-- Far-cap -->
      <g transform="translate(299.860484 126.785982) rotate(-18) scale(0.101 -0.101)">
       <use xlink:href="#DejaVuSans-46"/>
       <use xlink:href="#DejaVuSans-61" transform="translate(48.394531 0)"/>
       <use xlink:href="#DejaVuSans-72" transform="translate(109.673828 0)"/>
       <use xlink:href="#DejaVuSans-2d" transform="translate(144.412109 0)"/>
       <use xlink:href="#DejaVuSans-63" transform="translate(180.496094 0)"/>
       <use xlink:href="#DejaVuSans-61" transform="translate(235.476562 0)"/>
       <use xlink:href="#DejaVuSans-70" transform="translate(296.755859 0)"/>
      </g>
     </g>
    </g>
    <g id="xtick_13">
     <g id="line2d_26"/>
     <g id="text_12">
      <!-- Global -->
      <g transform="translate(366.339632 125.499027) rotate(-18) scale(0.101 -0.101)">
       <defs>
        <path id="DejaVuSans-47" d="M 3809 666
L 3809 1919
L 2778 1919
L 2778 2438
L 4434 2438
L 4434 434
Q 4069 175 3628 42
Q 3188 -91 2688 -91
Q 1594 -91 976 548
Q 359 1188 359 2328
Q 359 3472 976 4111
Q 1594 4750 2688 4750
Q 3144 4750 3555 4637
Q 3966 4525 4313 4306
L 4313 3634
Q 3963 3931 3569 4081
Q 3175 4231 2741 4231
Q 1884 4231 1454 3753
Q 1025 3275 1025 2328
Q 1025 1384 1454 906
Q 1884 428 2741 428
Q 3075 428 3337 486
Q 3600 544 3809 666
z
" transform="scale(0.015625)"/>
        <path id="DejaVuSans-62" d="M 3116 1747
Q 3116 2381 2855 2742
Q 2594 3103 2138 3103
Q 1681 3103 1420 2742
Q 1159 2381 1159 1747
Q 1159 1113 1420 752
Q 1681 391 2138 391
Q 2594 391 2855 752
Q 3116 1113 3116 1747
z
M 1159 2969
Q 1341 3281 1617 3432
Q 1894 3584 2278 3584
Q 2916 3584 3314 3078
Q 3713 2572 3713 1747
Q 3713 922 3314 415
Q 2916 -91 2278 -91
Q 1894 -91 1617 61
Q 1341 213 1159 525
L 1159 0
L 581 0
L 581 4863
L 1159 4863
L 1159 2969
z
" transform="scale(0.015625)"/>
       </defs>
       <use xlink:href="#DejaVuSans-47"/>
       <use xlink:href="#DejaVuSans-6c" transform="translate(77.490234 0)"/>
       <use xlink:href="#DejaVuSans-6f" transform="translate(105.273438 0)"/>
       <use xlink:href="#DejaVuSans-62" transform="translate(166.455078 0)"/>
       <use xlink:href="#DejaVuSans-61" transform="translate(229.931641 0)"/>
       <use xlink:href="#DejaVuSans-6c" transform="translate(291.210938 0)"/>
      </g>
     </g>
    </g>
    <g id="xtick_14">
     <g id="line2d_27"/>
     <g id="text_13">
      <!-- Pos-only -->
      <g transform="translate(419.210246 128.633754) rotate(-18) scale(0.101 -0.101)">
       <defs>
        <path id="DejaVuSans-50" d="M 1259 4147
L 1259 2394
L 2053 2394
Q 2494 2394 2734 2622
Q 2975 2850 2975 3272
Q 2975 3691 2734 3919
Q 2494 4147 2053 4147
L 1259 4147
z
M 628 4666
L 2053 4666
Q 2838 4666 3239 4311
Q 3641 3956 3641 3272
Q 3641 2581 3239 2228
Q 2838 1875 2053 1875
L 1259 1875
L 1259 0
L 628 0
L 628 4666
z
" transform="scale(0.015625)"/>
        <path id="DejaVuSans-79" d="M 2059 -325
Q 1816 -950 1584 -1140
Q 1353 -1331 966 -1331
L 506 -1331
L 506 -850
L 844 -850
Q 1081 -850 1212 -737
Q 1344 -625 1503 -206
L 1606 56
L 191 3500
L 800 3500
L 1894 763
L 2988 3500
L 3597 3500
L 2059 -325
z
" transform="scale(0.015625)"/>
       </defs>
       <use xlink:href="#DejaVuSans-50"/>
       <use xlink:href="#DejaVuSans-6f" transform="translate(56.677734 0)"/>
       <use xlink:href="#DejaVuSans-73" transform="translate(117.859375 0)"/>
       <use xlink:href="#DejaVuSans-2d" transform="translate(169.958984 0)"/>
       <use xlink:href="#DejaVuSans-6f" transform="translate(207.917969 0)"/>
       <use xlink:href="#DejaVuSans-6e" transform="translate(269.099609 0)"/>
       <use xlink:href="#DejaVuSans-6c" transform="translate(332.478516 0)"/>
       <use xlink:href="#DejaVuSans-79" transform="translate(360.261719 0)"/>
      </g>
     </g>
    </g>
   </g>
   <g id="matplotlib.axis_4">
    <g id="ytick_5">
     <g id="line2d_28"/>
     <g id="text_14">
      <!-- Task -->
      <g transform="translate(25.499969 97.441212) scale(0.098 -0.098)">
       <defs>
        <path id="DejaVuSans-54" d="M -19 4666
L 3928 4666
L 3928 4134
L 2272 4134
L 2272 0
L 1638 0
L 1638 4134
L -19 4134
L -19 4666
z
" transform="scale(0.015625)"/>
       </defs>
       <use xlink:href="#DejaVuSans-54"/>
       <use xlink:href="#DejaVuSans-61" transform="translate(44.583984 0)"/>
       <use xlink:href="#DejaVuSans-73" transform="translate(105.863281 0)"/>
       <use xlink:href="#DejaVuSans-6b" transform="translate(157.962891 0)"/>
      </g>
      <!-- coll. -->
      <g transform="translate(26.709656 108.415068) scale(0.098 -0.098)">
       <use xlink:href="#DejaVuSans-63"/>
       <use xlink:href="#DejaVuSans-6f" transform="translate(54.980469 0)"/>
       <use xlink:href="#DejaVuSans-6c" transform="translate(116.162109 0)"/>
       <use xlink:href="#DejaVuSans-6c" transform="translate(143.945312 0)"/>
       <use xlink:href="#DejaVuSans-2e" transform="translate(171.728516 0)"/>
      </g>
     </g>
    </g>
   </g>
   <g id="patch_13">
    <path d="M 50.654188 107.244
L 494.534188 107.244
" style="fill: none; stroke: #000000; stroke-width: 0.65; stroke-linejoin: miter; stroke-linecap: square"/>
   </g>
   <g id="text_15">
    <!-- 19/20 -->
    <g style="fill: #ffffff" transform="translate(70.713867 100.97129) scale(0.091 -0.091)">
     <defs>
      <path id="DejaVuSans-Bold-31" d="M 750 831
L 1813 831
L 1813 3847
L 722 3622
L 722 4441
L 1806 4666
L 2950 4666
L 2950 831
L 4013 831
L 4013 0
L 750 0
L 750 831
z
" transform="scale(0.015625)"/>
      <path id="DejaVuSans-Bold-39" d="M 641 103
L 641 966
Q 928 831 1190 764
Q 1453 697 1709 697
Q 2247 697 2547 995
Q 2847 1294 2900 1881
Q 2688 1725 2447 1647
Q 2206 1569 1925 1569
Q 1209 1569 770 1986
Q 331 2403 331 3084
Q 331 3838 820 4291
Q 1309 4744 2131 4744
Q 3044 4744 3544 4128
Q 4044 3513 4044 2388
Q 4044 1231 3459 570
Q 2875 -91 1856 -91
Q 1528 -91 1228 -42
Q 928 6 641 103
z
M 2125 2350
Q 2441 2350 2600 2554
Q 2759 2759 2759 3169
Q 2759 3575 2600 3781
Q 2441 3988 2125 3988
Q 1809 3988 1650 3781
Q 1491 3575 1491 3169
Q 1491 2759 1650 2554
Q 1809 2350 2125 2350
z
" transform="scale(0.015625)"/>
      <path id="DejaVuSans-Bold-2f" d="M 1644 4666
L 2338 4666
L 691 -594
L 0 -594
L 1644 4666
z
" transform="scale(0.015625)"/>
      <path id="DejaVuSans-Bold-32" d="M 1844 884
L 3897 884
L 3897 0
L 506 0
L 506 884
L 2209 2388
Q 2438 2594 2547 2791
Q 2656 2988 2656 3200
Q 2656 3528 2436 3728
Q 2216 3928 1850 3928
Q 1569 3928 1234 3808
Q 900 3688 519 3450
L 519 4475
Q 925 4609 1322 4679
Q 1719 4750 2100 4750
Q 2938 4750 3402 4381
Q 3866 4013 3866 3353
Q 3866 2972 3669 2642
Q 3472 2313 2841 1759
L 1844 884
z
" transform="scale(0.015625)"/>
      <path id="DejaVuSans-Bold-30" d="M 2944 2338
Q 2944 3213 2780 3570
Q 2616 3928 2228 3928
Q 1841 3928 1675 3570
Q 1509 3213 1509 2338
Q 1509 1453 1675 1090
Q 1841 728 2228 728
Q 2613 728 2778 1090
Q 2944 1453 2944 2338
z
M 4147 2328
Q 4147 1169 3647 539
Q 3147 -91 2228 -91
Q 1306 -91 806 539
Q 306 1169 306 2328
Q 306 3491 806 4120
Q 1306 4750 2228 4750
Q 3147 4750 3647 4120
Q 4147 3491 4147 2328
z
" transform="scale(0.015625)"/>
     </defs>
     <use xlink:href="#DejaVuSans-Bold-31"/>
     <use xlink:href="#DejaVuSans-Bold-39" transform="translate(69.580078 0)"/>
     <use xlink:href="#DejaVuSans-Bold-2f" transform="translate(139.160156 0)"/>
     <use xlink:href="#DejaVuSans-Bold-32" transform="translate(175.683594 0)"/>
     <use xlink:href="#DejaVuSans-Bold-30" transform="translate(245.263672 0)"/>
    </g>
   </g>
   <g id="text_16">
    <!-- 18/20 -->
    <g style="fill: #ffffff" transform="translate(133.232177 100.97129) scale(0.091 -0.091)">
     <defs>
      <path id="DejaVuSans-Bold-38" d="M 2228 2088
Q 1891 2088 1709 1903
Q 1528 1719 1528 1375
Q 1528 1031 1709 848
Q 1891 666 2228 666
Q 2563 666 2741 848
Q 2919 1031 2919 1375
Q 2919 1722 2741 1905
Q 2563 2088 2228 2088
z
M 1350 2484
Q 925 2613 709 2878
Q 494 3144 494 3541
Q 494 4131 934 4440
Q 1375 4750 2228 4750
Q 3075 4750 3515 4442
Q 3956 4134 3956 3541
Q 3956 3144 3739 2878
Q 3522 2613 3097 2484
Q 3572 2353 3814 2058
Q 4056 1763 4056 1313
Q 4056 619 3595 264
Q 3134 -91 2228 -91
Q 1319 -91 855 264
Q 391 619 391 1313
Q 391 1763 633 2058
Q 875 2353 1350 2484
z
M 1631 3419
Q 1631 3141 1786 2991
Q 1941 2841 2228 2841
Q 2509 2841 2662 2991
Q 2816 3141 2816 3419
Q 2816 3697 2662 3845
Q 2509 3994 2228 3994
Q 1941 3994 1786 3844
Q 1631 3694 1631 3419
z
" transform="scale(0.015625)"/>
     </defs>
     <use xlink:href="#DejaVuSans-Bold-31"/>
     <use xlink:href="#DejaVuSans-Bold-38" transform="translate(69.580078 0)"/>
     <use xlink:href="#DejaVuSans-Bold-2f" transform="translate(139.160156 0)"/>
     <use xlink:href="#DejaVuSans-Bold-32" transform="translate(175.683594 0)"/>
     <use xlink:href="#DejaVuSans-Bold-30" transform="translate(245.263672 0)"/>
    </g>
   </g>
   <g id="text_17">
    <!-- 13/20 -->
    <g style="fill: #ffffff" transform="translate(195.750487 100.97129) scale(0.091 -0.091)">
     <defs>
      <path id="DejaVuSans-Bold-33" d="M 2981 2516
Q 3453 2394 3698 2092
Q 3944 1791 3944 1325
Q 3944 631 3412 270
Q 2881 -91 1863 -91
Q 1503 -91 1142 -33
Q 781 25 428 141
L 428 1069
Q 766 900 1098 814
Q 1431 728 1753 728
Q 2231 728 2486 893
Q 2741 1059 2741 1369
Q 2741 1688 2480 1852
Q 2219 2016 1709 2016
L 1228 2016
L 1228 2791
L 1734 2791
Q 2188 2791 2409 2933
Q 2631 3075 2631 3366
Q 2631 3634 2415 3781
Q 2200 3928 1806 3928
Q 1516 3928 1219 3862
Q 922 3797 628 3669
L 628 4550
Q 984 4650 1334 4700
Q 1684 4750 2022 4750
Q 2931 4750 3382 4451
Q 3834 4153 3834 3553
Q 3834 3144 3618 2883
Q 3403 2622 2981 2516
z
" transform="scale(0.015625)"/>
     </defs>
     <use xlink:href="#DejaVuSans-Bold-31"/>
     <use xlink:href="#DejaVuSans-Bold-33" transform="translate(69.580078 0)"/>
     <use xlink:href="#DejaVuSans-Bold-2f" transform="translate(139.160156 0)"/>
     <use xlink:href="#DejaVuSans-Bold-32" transform="translate(175.683594 0)"/>
     <use xlink:href="#DejaVuSans-Bold-30" transform="translate(245.263672 0)"/>
    </g>
   </g>
   <g id="text_18">
    <!-- 0/20 -->
    <g transform="translate(261.434602 100.97129) scale(0.091 -0.091)">
     <use xlink:href="#DejaVuSans-Bold-30"/>
     <use xlink:href="#DejaVuSans-Bold-2f" transform="translate(69.580078 0)"/>
     <use xlink:href="#DejaVuSans-Bold-32" transform="translate(106.103516 0)"/>
     <use xlink:href="#DejaVuSans-Bold-30" transform="translate(175.683594 0)"/>
    </g>
   </g>
   <g id="text_19">
    <!-- 0/20 -->
    <g transform="translate(323.952911 100.97129) scale(0.091 -0.091)">
     <use xlink:href="#DejaVuSans-Bold-30"/>
     <use xlink:href="#DejaVuSans-Bold-2f" transform="translate(69.580078 0)"/>
     <use xlink:href="#DejaVuSans-Bold-32" transform="translate(106.103516 0)"/>
     <use xlink:href="#DejaVuSans-Bold-30" transform="translate(175.683594 0)"/>
    </g>
   </g>
   <g id="text_20">
    <!-- 0/20 -->
    <g transform="translate(386.471221 100.97129) scale(0.091 -0.091)">
     <use xlink:href="#DejaVuSans-Bold-30"/>
     <use xlink:href="#DejaVuSans-Bold-2f" transform="translate(69.580078 0)"/>
     <use xlink:href="#DejaVuSans-Bold-32" transform="translate(106.103516 0)"/>
     <use xlink:href="#DejaVuSans-Bold-30" transform="translate(175.683594 0)"/>
    </g>
   </g>
   <g id="text_21">
    <!-- 0/20 -->
    <g transform="translate(448.989531 100.97129) scale(0.091 -0.091)">
     <use xlink:href="#DejaVuSans-Bold-30"/>
     <use xlink:href="#DejaVuSans-Bold-2f" transform="translate(69.580078 0)"/>
     <use xlink:href="#DejaVuSans-Bold-32" transform="translate(106.103516 0)"/>
     <use xlink:href="#DejaVuSans-Bold-30" transform="translate(175.683594 0)"/>
    </g>
   </g>
  </g>
 </g>
 <defs>
  <clipPath id="pb581961f7d">
   <rect x="50.654188" y="1.8" width="443.88" height="86.420683"/>
  </clipPath>
  <clipPath id="p7df61e2a8a">
   <rect x="50.654188" y="89.676517" width="443.88" height="17.567483"/>
  </clipPath>
 </defs>
</svg>
