<?xml version="1.0" encoding="utf-8" standalone="no"?>
<!DOCTYPE svg PUBLIC "-//W3C//DTD SVG 1.1//EN"
  "http://www.w3.org/Graphics/SVG/1.1/DTD/svg11.dtd">
<svg xmlns:xlink="http://www.w3.org/1999/xlink" width="500.539406pt" height="246.314312pt" viewBox="0 0 500.539406 246.314312" xmlns="http://www.w3.org/2000/svg" version="1.1">
 <metadata>
  <rdf:RDF xmlns:dc="http://purl.org/dc/elements/1.1/" xmlns:cc="http://creativecommons.org/ns#" xmlns:rdf="http://www.w3.org/1999/02/22-rdf-syntax-ns#">
   <cc:Work>
    <dc:type rdf:resource="http://purl.org/dc/dcmitype/StillImage"/>
    <dc:date>2026-07-04T17:28:38.405581</dc:date>
    <dc:format>image/svg+xml</dc:format>
    <dc:creator>
     <cc:Agent>
      <dc:title>Matplotlib v3.10.8, https://matplotlib.org/</dc:title>
     </cc:Agent>
    </dc:creator>
   </cc:Work>
  </rdf:RDF>
 </metadata>
 <defs>
  <style type="text/css">*{stroke-linejoin: round; stroke-linecap: butt}</style>
 </defs>
 <g id="figure_1">
  <g id="patch_1">
   <path d="M 0 246.314312
L 500.539406 246.314312
L 500.539406 0
L 0 0
z
" style="fill: #ffffff"/>
  </g>
  <g id="axes_1">
   <g id="patch_2">
    <path d="M 48.669313 210.862
L 439.917313 210.862
L 439.917313 57.682
L 48.669313 57.682
z
" style="fill: #ffffff"/>
   </g>
   <g id="patch_3">
    <path d="M 68.998865 210.862
L 88.177689 210.862
L 88.177689 210.862
L 68.998865 210.862
z
" clip-path="url(#pb5ed9cd022)" style="fill: #1f77b4"/>
   </g>
   <g id="patch_4">
    <path d="M 145.71416 210.862
L 164.892983 210.862
L 164.892983 139.378
L 145.71416 139.378
z
" clip-path="url(#pb5ed9cd022)" style="fill: #1f77b4"/>
   </g>
   <g id="patch_5">
    <path d="M 222.429454 210.862
L 241.608277 210.862
L 241.608277 139.378
L 222.429454 139.378
z
" clip-path="url(#pb5ed9cd022)" style="fill: #1f77b4"/>
   </g>
   <g id="patch_6">
    <path d="M 299.144748 210.862
L 318.323571 210.862
L 318.323571 139.378
L 299.144748 139.378
z
" clip-path="url(#pb5ed9cd022)" style="fill: #1f77b4"/>
   </g>
   <g id="patch_7">
    <path d="M 375.860042 210.862
L 395.038865 210.862
L 395.038865 139.378
L 375.860042 139.378
z
" clip-path="url(#pb5ed9cd022)" style="fill: #1f77b4"/>
   </g>
   <g id="patch_8">
    <path d="M 68.998865 210.862
L 88.177689 210.862
L 88.177689 210.862
L 68.998865 210.862
z
" clip-path="url(#pb5ed9cd022)" style="fill: #ff7f0e"/>
   </g>
   <g id="patch_9">
    <path d="M 145.71416 139.378
L 164.892983 139.378
L 164.892983 67.894
L 145.71416 67.894
z
" clip-path="url(#pb5ed9cd022)" style="fill: #ff7f0e"/>
   </g>
   <g id="patch_10">
    <path d="M 222.429454 139.378
L 241.608277 139.378
L 241.608277 96.4876
L 222.429454 96.4876
z
" clip-path="url(#pb5ed9cd022)" style="fill: #ff7f0e"/>
   </g>
   <g id="patch_11">
    <path d="M 299.144748 139.378
L 318.323571 139.378
L 318.323571 114.8692
L 299.144748 114.8692
z
" clip-path="url(#pb5ed9cd022)" style="fill: #ff7f0e"/>
   </g>
   <g id="patch_12">
    <path d="M 375.860042 139.378
L 395.038865 139.378
L 395.038865 123.0388
L 375.860042 123.0388
z
" clip-path="url(#pb5ed9cd022)" style="fill: #ff7f0e"/>
   </g>
   <g id="patch_13">
    <path d="M 93.54776 210.862
L 112.726583 210.862
L 112.726583 210.862
L 93.54776 210.862
z
" clip-path="url(#pb5ed9cd022)" style="fill: #1f77b4"/>
   </g>
   <g id="patch_14">
    <path d="M 170.263054 210.862
L 189.441877 210.862
L 189.441877 175.12
L 170.263054 175.12
z
" clip-path="url(#pb5ed9cd022)" style="fill: #1f77b4"/>
   </g>
   <g id="patch_15">
    <path d="M 246.978348 210.862
L 266.157171 210.862
L 266.157171 159.802
L 246.978348 159.802
z
" clip-path="url(#pb5ed9cd022)" style="fill: #1f77b4"/>
   </g>
   <g id="patch_16">
    <path d="M 323.693642 210.862
L 342.872465 210.862
L 342.872465 151.6324
L 323.693642 151.6324
z
" clip-path="url(#pb5ed9cd022)" style="fill: #1f77b4"/>
   </g>
   <g id="patch_17">
    <path d="M 400.408936 210.862
L 419.58776 210.862
L 419.58776 147.5476
L 400.408936 147.5476
z
" clip-path="url(#pb5ed9cd022)" style="fill: #1f77b4"/>
   </g>
   <g id="patch_18">
    <path d="M 93.54776 210.862
L 112.726583 210.862
L 112.726583 210.862
L 93.54776 210.862
z
" clip-path="url(#pb5ed9cd022)" style="fill: #ff7f0e"/>
   </g>
   <g id="patch_19">
    <path d="M 170.263054 175.12
L 189.441877 175.12
L 189.441877 139.378
L 170.263054 139.378
z
" clip-path="url(#pb5ed9cd022)" style="fill: #ff7f0e"/>
   </g>
   <g id="patch_20">
    <path d="M 246.978348 159.802
L 266.157171 159.802
L 266.157171 139.378
L 246.978348 139.378
z
" clip-path="url(#pb5ed9cd022)" style="fill: #ff7f0e"/>
   </g>
   <g id="patch_21">
    <path d="M 323.693642 151.6324
L 342.872465 151.6324
L 342.872465 139.378
L 323.693642 139.378
z
" clip-path="url(#pb5ed9cd022)" style="fill: #ff7f0e"/>
   </g>
   <g id="patch_22">
    <path d="M 400.408936 147.5476
L 419.58776 147.5476
L 419.58776 139.378
L 400.408936 139.378
z
" clip-path="url(#pb5ed9cd022)" style="fill: #ff7f0e"/>
   </g>
   <g id="matplotlib.axis_1">
    <g id="xtick_1">
     <g id="line2d_1"/>
     <g id="text_1">
      <!-- Pos. -->
      <g transform="translate(77.548256 223.891937) scale(0.132 -0.132)">
       <defs>
        <path id="DejaVuSans-50" d="M 1259 4147
L 1259 2394
L 2053 2394
Q 2494 2394 2734 2622
Q 2975 2850 2975 3272
Q 2975 3691 2734 3919
Q 2494 4147 2053 4147
L 1259 4147
z
M 628 4666
L 2053 4666
Q 2838 4666 3239 4311
Q 3641 3956 3641 3272
Q 3641 2581 3239 2228
Q 2838 1875 2053 1875
L 1259 1875
L 1259 0
L 628 0
L 628 4666
z
" transform="scale(0.015625)"/>
        <path id="DejaVuSans-6f" d="M 1959 3097
Q 1497 3097 1228 2736
Q 959 2375 959 1747
Q 959 1119 1226 758
Q 1494 397 1959 397
Q 2419 397 2687 759
Q 2956 1122 2956 1747
Q 2956 2369 2687 2733
Q 2419 3097 1959 3097
z
M 1959 3584
Q 2709 3584 3137 3096
Q 3566 2609 3566 1747
Q 3566 888 3137 398
Q 2709 -91 1959 -91
Q 1206 -91 779 398
Q 353 888 353 1747
Q 353 2609 779 3096
Q 1206 3584 1959 3584
z
" transform="scale(0.015625)"/>
        <path id="DejaVuSans-73" d="M 2834 3397
L 2834 2853
Q 2591 2978 2328 3040
Q 2066 3103 1784 3103
Q 1356 3103 1142 2972
Q 928 2841 928 2578
Q 928 2378 1081 2264
Q 1234 2150 1697 2047
L 1894 2003
Q 2506 1872 2764 1633
Q 3022 1394 3022 966
Q 3022 478 2636 193
Q 2250 -91 1575 -91
Q 1294 -91 989 -36
Q 684 19 347 128
L 347 722
Q 666 556 975 473
Q 1284 391 1588 391
Q 1994 391 2212 530
Q 2431 669 2431 922
Q 2431 1156 2273 1281
Q 2116 1406 1581 1522
L 1381 1569
Q 847 1681 609 1914
Q 372 2147 372 2553
Q 372 3047 722 3315
Q 1072 3584 1716 3584
Q 2034 3584 2315 3537
Q 2597 3491 2834 3397
z
" transform="scale(0.015625)"/>
        <path id="DejaVuSans-2e" d="M 684 794
L 1344 794
L 1344 0
L 684 0
L 684 794
z
" transform="scale(0.015625)"/>
       </defs>
       <use xlink:href="#DejaVuSans-50"/>
       <use xlink:href="#DejaVuSans-6f" transform="translate(56.677734 0)"/>
       <use xlink:href="#DejaVuSans-73" transform="translate(117.859375 0)"/>
       <use xlink:href="#DejaVuSans-2e" transform="translate(169.958984 0)"/>
      </g>
     </g>
    </g>
    <g id="xtick_2">
     <g id="line2d_2"/>
     <g id="text_2">
      <!-- G-$\alpha$ -->
      <g transform="translate(155.698018 223.891937) scale(0.132 -0.132)">
       <defs>
        <path id="DejaVuSans-47" d="M 3809 666
L 3809 1919
L 2778 1919
L 2778 2438
L 4434 2438
L 4434 434
Q 4069 175 3628 42
Q 3188 -91 2688 -91
Q 1594 -91 976 548
Q 359 1188 359 2328
Q 359 3472 976 4111
Q 1594 4750 2688 4750
Q 3144 4750 3555 4637
Q 3966 4525 4313 4306
L 4313 3634
Q 3963 3931 3569 4081
Q 3175 4231 2741 4231
Q 1884 4231 1454 3753
Q 1025 3275 1025 2328
Q 1025 1384 1454 906
Q 1884 428 2741 428
Q 3075 428 3337 486
Q 3600 544 3809 666
z
" transform="scale(0.015625)"/>
        <path id="DejaVuSans-2d" d="M 313 2009
L 1997 2009
L 1997 1497
L 313 1497
L 313 2009
z
" transform="scale(0.015625)"/>
        <path id="DejaVuSans-Oblique-3b1" d="M 2619 1628
L 2622 2350
Q 2625 3088 2069 3091
Q 1653 3094 1394 2747
Q 1069 2319 959 1747
Q 825 1059 994 731
Q 1169 397 1547 397
Q 1966 397 2319 1063
L 2619 1628
z
M 2166 3578
Q 3141 3594 3128 2584
Q 3128 2584 3616 3500
L 4128 3500
L 3119 1603
L 3109 919
Q 3109 766 3194 638
Q 3291 488 3391 488
L 3669 488
L 3575 0
L 3228 0
Q 2934 0 2722 263
Q 2622 394 2619 669
Q 2416 334 2066 50
Q 1900 -81 1453 -78
Q 722 -72 456 397
Q 184 884 353 1747
Q 534 2675 1009 3097
Q 1544 3569 2166 3578
z
" transform="scale(0.015625)"/>
       </defs>
       <use xlink:href="#DejaVuSans-47" transform="translate(0 0.78125)"/>
       <use xlink:href="#DejaVuSans-2d" transform="translate(77.490234 0.78125)"/>
       <use xlink:href="#DejaVuSans-Oblique-3b1" transform="translate(113.574219 0.78125)"/>
      </g>
     </g>
    </g>
    <g id="xtick_3">
     <g id="line2d_3"/>
     <g id="text_3">
      <!-- Rec.-L -->
      <g transform="translate(224.158156 223.891937) scale(0.132 -0.132)">
       <defs>
        <path id="DejaVuSans-52" d="M 2841 2188
Q 3044 2119 3236 1894
Q 3428 1669 3622 1275
L 4263 0
L 3584 0
L 2988 1197
Q 2756 1666 2539 1819
Q 2322 1972 1947 1972
L 1259 1972
L 1259 0
L 628 0
L 628 4666
L 2053 4666
Q 2853 4666 3247 4331
Q 3641 3997 3641 3322
Q 3641 2881 3436 2590
Q 3231 2300 2841 2188
z
M 1259 4147
L 1259 2491
L 2053 2491
Q 2509 2491 2742 2702
Q 2975 2913 2975 3322
Q 2975 3731 2742 3939
Q 2509 4147 2053 4147
L 1259 4147
z
" transform="scale(0.015625)"/>
        <path id="DejaVuSans-65" d="M 3597 1894
L 3597 1613
L 953 1613
Q 991 1019 1311 708
Q 1631 397 2203 397
Q 2534 397 2845 478
Q 3156 559 3463 722
L 3463 178
Q 3153 47 2828 -22
Q 2503 -91 2169 -91
Q 1331 -91 842 396
Q 353 884 353 1716
Q 353 2575 817 3079
Q 1281 3584 2069 3584
Q 2775 3584 3186 3129
Q 3597 2675 3597 1894
z
M 3022 2063
Q 3016 2534 2758 2815
Q 2500 3097 2075 3097
Q 1594 3097 1305 2825
Q 1016 2553 972 2059
L 3022 2063
z
" transform="scale(0.015625)"/>
        <path id="DejaVuSans-63" d="M 3122 3366
L 3122 2828
Q 2878 2963 2633 3030
Q 2388 3097 2138 3097
Q 1578 3097 1268 2742
Q 959 2388 959 1747
Q 959 1106 1268 751
Q 1578 397 2138 397
Q 2388 397 2633 464
Q 2878 531 3122 666
L 3122 134
Q 2881 22 2623 -34
Q 2366 -91 2075 -91
Q 1284 -91 818 406
Q 353 903 353 1747
Q 353 2603 823 3093
Q 1294 3584 2113 3584
Q 2378 3584 2631 3529
Q 2884 3475 3122 3366
z
" transform="scale(0.015625)"/>
        <path id="DejaVuSans-4c" d="M 628 4666
L 1259 4666
L 1259 531
L 3531 531
L 3531 0
L 628 0
L 628 4666
z
" transform="scale(0.015625)"/>
       </defs>
       <use xlink:href="#DejaVuSans-52"/>
       <use xlink:href="#DejaVuSans-65" transform="translate(64.982422 0)"/>
       <use xlink:href="#DejaVuSans-63" transform="translate(126.505859 0)"/>
       <use xlink:href="#DejaVuSans-2e" transform="translate(181.486328 0)"/>
       <use xlink:href="#DejaVuSans-2d" transform="translate(213.273438 0)"/>
       <use xlink:href="#DejaVuSans-4c" transform="translate(249.357422 0)"/>
      </g>
     </g>
    </g>
    <g id="xtick_4">
     <g id="line2d_4"/>
     <g id="text_4">
      <!-- Rec.-Q -->
      <g transform="translate(299.1162 223.891937) scale(0.132 -0.132)">
       <defs>
        <path id="DejaVuSans-51" d="M 2522 4238
Q 1834 4238 1429 3725
Q 1025 3213 1025 2328
Q 1025 1447 1429 934
Q 1834 422 2522 422
Q 3209 422 3611 934
Q 4013 1447 4013 2328
Q 4013 3213 3611 3725
Q 3209 4238 2522 4238
z
M 3406 84
L 4238 -825
L 3475 -825
L 2784 -78
Q 2681 -84 2626 -87
Q 2572 -91 2522 -91
Q 1538 -91 948 567
Q 359 1225 359 2328
Q 359 3434 948 4092
Q 1538 4750 2522 4750
Q 3503 4750 4090 4092
Q 4678 3434 4678 2328
Q 4678 1516 4351 937
Q 4025 359 3406 84
z
" transform="scale(0.015625)"/>
       </defs>
       <use xlink:href="#DejaVuSans-52"/>
       <use xlink:href="#DejaVuSans-65" transform="translate(64.982422 0)"/>
       <use xlink:href="#DejaVuSans-63" transform="translate(126.505859 0)"/>
       <use xlink:href="#DejaVuSans-2e" transform="translate(181.486328 0)"/>
       <use xlink:href="#DejaVuSans-2d" transform="translate(213.273438 0)"/>
       <use xlink:href="#DejaVuSans-51" transform="translate(252.982422 0)"/>
      </g>
     </g>
    </g>
    <g id="xtick_5">
     <g id="line2d_5"/>
     <g id="text_5">
      <!-- EXP -->
      <g transform="translate(385.052932 223.891937) scale(0.132 -0.132)">
       <defs>
        <path id="DejaVuSans-45" d="M 628 4666
L 3578 4666
L 3578 4134
L 1259 4134
L 1259 2753
L 3481 2753
L 3481 2222
L 1259 2222
L 1259 531
L 3634 531
L 3634 0
L 628 0
L 628 4666
z
" transform="scale(0.015625)"/>
        <path id="DejaVuSans-58" d="M 403 4666
L 1081 4666
L 2241 2931
L 3406 4666
L 4084 4666
L 2584 2425
L 4184 0
L 3506 0
L 2194 1984
L 872 0
L 191 0
L 1856 2491
L 403 4666
z
" transform="scale(0.015625)"/>
       </defs>
       <use xlink:href="#DejaVuSans-45"/>
       <use xlink:href="#DejaVuSans-58" transform="translate(63.183594 0)"/>
       <use xlink:href="#DejaVuSans-50" transform="translate(131.689453 0)"/>
      </g>
     </g>
    </g>
    <g id="text_6">
     <!-- Method -->
     <g transform="translate(216.163625 241.034781) scale(0.15 -0.15)">
      <defs>
       <path id="DejaVuSans-4d" d="M 628 4666
L 1569 4666
L 2759 1491
L 3956 4666
L 4897 4666
L 4897 0
L 4281 0
L 4281 4097
L 3078 897
L 2444 897
L 1241 4097
L 1241 0
L 628 0
L 628 4666
z
" transform="scale(0.015625)"/>
       <path id="DejaVuSans-74" d="M 1172 4494
L 1172 3500
L 2356 3500
L 2356 3053
L 1172 3053
L 1172 1153
Q 1172 725 1289 603
Q 1406 481 1766 481
L 2356 481
L 2356 0
L 1766 0
Q 1100 0 847 248
Q 594 497 594 1153
L 594 3053
L 172 3053
L 172 3500
L 594 3500
L 594 4494
L 1172 4494
z
" transform="scale(0.015625)"/>
       <path id="DejaVuSans-68" d="M 3513 2113
L 3513 0
L 2938 0
L 2938 2094
Q 2938 2591 2744 2837
Q 2550 3084 2163 3084
Q 1697 3084 1428 2787
Q 1159 2491 1159 1978
L 1159 0
L 581 0
L 581 4863
L 1159 4863
L 1159 2956
Q 1366 3272 1645 3428
Q 1925 3584 2291 3584
Q 2894 3584 3203 3211
Q 3513 2838 3513 2113
z
" transform="scale(0.015625)"/>
       <path id="DejaVuSans-64" d="M 2906 2969
L 2906 4863
L 3481 4863
L 3481 0
L 2906 0
L 2906 525
Q 2725 213 2448 61
Q 2172 -91 1784 -91
Q 1150 -91 751 415
Q 353 922 353 1747
Q 353 2572 751 3078
Q 1150 3584 1784 3584
Q 2172 3584 2448 3432
Q 2725 3281 2906 2969
z
M 947 1747
Q 947 1113 1208 752
Q 1469 391 1925 391
Q 2381 391 2643 752
Q 2906 1113 2906 1747
Q 2906 2381 2643 2742
Q 2381 3103 1925 3103
Q 1469 3103 1208 2742
Q 947 2381 947 1747
z
" transform="scale(0.015625)"/>
      </defs>
      <use xlink:href="#DejaVuSans-4d"/>
      <use xlink:href="#DejaVuSans-65" transform="translate(86.279297 0)"/>
      <use xlink:href="#DejaVuSans-74" transform="translate(147.802734 0)"/>
      <use xlink:href="#DejaVuSans-68" transform="translate(187.011719 0)"/>
      <use xlink:href="#DejaVuSans-6f" transform="translate(250.390625 0)"/>
      <use xlink:href="#DejaVuSans-64" transform="translate(311.572266 0)"/>
     </g>
    </g>
   </g>
   <g id="matplotlib.axis_2">
    <g id="ytick_1">
     <g id="line2d_6">
      <path d="M 48.669313 210.862
L 439.917313 210.862
" clip-path="url(#pb5ed9cd022)" style="fill: none; stroke-dasharray: 2.035,0.88; stroke-dashoffset: 0; stroke: #b0b0b0; stroke-opacity: 0.32; stroke-width: 0.55"/>
     </g>
     <g id="line2d_7">
      <defs>
       <path id="m56e8f26321" d="M 0 0
L -3.5 0
" style="stroke: #000000; stroke-width: 0.8"/>
      </defs>
      <g>
       <use xlink:href="#m56e8f26321" x="48.669313" y="210.862" style="stroke: #000000; stroke-width: 0.8"/>
      </g>
     </g>
     <g id="text_7">
      <!-- 0.0 -->
      <g transform="translate(20.677188 215.876969) scale(0.132 -0.132)">
       <defs>
        <path id="DejaVuSans-30" d="M 2034 4250
Q 1547 4250 1301 3770
Q 1056 3291 1056 2328
Q 1056 1369 1301 889
Q 1547 409 2034 409
Q 2525 409 2770 889
Q 3016 1369 3016 2328
Q 3016 3291 2770 3770
Q 2525 4250 2034 4250
z
M 2034 4750
Q 2819 4750 3233 4129
Q 3647 3509 3647 2328
Q 3647 1150 3233 529
Q 2819 -91 2034 -91
Q 1250 -91 836 529
Q 422 1150 422 2328
Q 422 3509 836 4129
Q 1250 4750 2034 4750
z
" transform="scale(0.015625)"/>
       </defs>
       <use xlink:href="#DejaVuSans-30"/>
       <use xlink:href="#DejaVuSans-2e" transform="translate(63.623047 0)"/>
       <use xlink:href="#DejaVuSans-30" transform="translate(95.410156 0)"/>
      </g>
     </g>
    </g>
    <g id="ytick_2">
     <g id="line2d_8">
      <path d="M 48.669313 159.802
L 439.917313 159.802
" clip-path="url(#pb5ed9cd022)" style="fill: none; stroke-dasharray: 2.035,0.88; stroke-dashoffset: 0; stroke: #b0b0b0; stroke-opacity: 0.32; stroke-width: 0.55"/>
     </g>
     <g id="line2d_9">
      <g>
       <use xlink:href="#m56e8f26321" x="48.669313" y="159.802" style="stroke: #000000; stroke-width: 0.8"/>
      </g>
     </g>
     <g id="text_8">
      <!-- 0.5 -->
      <g transform="translate(20.677188 164.816969) scale(0.132 -0.132)">
       <defs>
        <path id="DejaVuSans-35" d="M 691 4666
L 3169 4666
L 3169 4134
L 1269 4134
L 1269 2991
Q 1406 3038 1543 3061
Q 1681 3084 1819 3084
Q 2600 3084 3056 2656
Q 3513 2228 3513 1497
Q 3513 744 3044 326
Q 2575 -91 1722 -91
Q 1428 -91 1123 -41
Q 819 9 494 109
L 494 744
Q 775 591 1075 516
Q 1375 441 1709 441
Q 2250 441 2565 725
Q 2881 1009 2881 1497
Q 2881 1984 2565 2268
Q 2250 2553 1709 2553
Q 1456 2553 1204 2497
Q 953 2441 691 2322
L 691 4666
z
" transform="scale(0.015625)"/>
       </defs>
       <use xlink:href="#DejaVuSans-30"/>
       <use xlink:href="#DejaVuSans-2e" transform="translate(63.623047 0)"/>
       <use xlink:href="#DejaVuSans-35" transform="translate(95.410156 0)"/>
      </g>
     </g>
    </g>
    <g id="ytick_3">
     <g id="line2d_10">
      <path d="M 48.669313 108.742
L 439.917313 108.742
" clip-path="url(#pb5ed9cd022)" style="fill: none; stroke-dasharray: 2.035,0.88; stroke-dashoffset: 0; stroke: #b0b0b0; stroke-opacity: 0.32; stroke-width: 0.55"/>
     </g>
     <g id="line2d_11">
      <g>
       <use xlink:href="#m56e8f26321" x="48.669313" y="108.742" style="stroke: #000000; stroke-width: 0.8"/>
      </g>
     </g>
     <g id="text_9">
      <!-- 1.0 -->
      <g transform="translate(20.677188 113.756969) scale(0.132 -0.132)">
       <defs>
        <path id="DejaVuSans-31" d="M 794 531
L 1825 531
L 1825 4091
L 703 3866
L 703 4441
L 1819 4666
L 2450 4666
L 2450 531
L 3481 531
L 3481 0
L 794 0
L 794 531
z
" transform="scale(0.015625)"/>
       </defs>
       <use xlink:href="#DejaVuSans-31"/>
       <use xlink:href="#DejaVuSans-2e" transform="translate(63.623047 0)"/>
       <use xlink:href="#DejaVuSans-30" transform="translate(95.410156 0)"/>
      </g>
     </g>
    </g>
    <g id="ytick_4">
     <g id="line2d_12">
      <path d="M 48.669313 57.682
L 439.917313 57.682
" clip-path="url(#pb5ed9cd022)" style="fill: none; stroke-dasharray: 2.035,0.88; stroke-dashoffset: 0; stroke: #b0b0b0; stroke-opacity: 0.32; stroke-width: 0.55"/>
     </g>
     <g id="line2d_13">
      <g>
       <use xlink:href="#m56e8f26321" x="48.669313" y="57.682" style="stroke: #000000; stroke-width: 0.8"/>
      </g>
     </g>
     <g id="text_10">
      <!-- 1.5 -->
      <g transform="translate(20.677188 62.696969) scale(0.132 -0.132)">
       <use xlink:href="#DejaVuSans-31"/>
       <use xlink:href="#DejaVuSans-2e" transform="translate(63.623047 0)"/>
       <use xlink:href="#DejaVuSans-35" transform="translate(95.410156 0)"/>
      </g>
     </g>
    </g>
    <g id="text_11">
     <!-- Realized negative influence -->
     <g transform="translate(13.557656 237.827078) rotate(-90) scale(0.15 -0.15)">
      <defs>
       <path id="DejaVuSans-61" d="M 2194 1759
Q 1497 1759 1228 1600
Q 959 1441 959 1056
Q 959 750 1161 570
Q 1363 391 1709 391
Q 2188 391 2477 730
Q 2766 1069 2766 1631
L 2766 1759
L 2194 1759
z
M 3341 1997
L 3341 0
L 2766 0
L 2766 531
Q 2569 213 2275 61
Q 1981 -91 1556 -91
Q 1019 -91 701 211
Q 384 513 384 1019
Q 384 1609 779 1909
Q 1175 2209 1959 2209
L 2766 2209
L 2766 2266
Q 2766 2663 2505 2880
Q 2244 3097 1772 3097
Q 1472 3097 1187 3025
Q 903 2953 641 2809
L 641 3341
Q 956 3463 1253 3523
Q 1550 3584 1831 3584
Q 2591 3584 2966 3190
Q 3341 2797 3341 1997
z
" transform="scale(0.015625)"/>
       <path id="DejaVuSans-6c" d="M 603 4863
L 1178 4863
L 1178 0
L 603 0
L 603 4863
z
" transform="scale(0.015625)"/>
       <path id="DejaVuSans-69" d="M 603 3500
L 1178 3500
L 1178 0
L 603 0
L 603 3500
z
M 603 4863
L 1178 4863
L 1178 4134
L 603 4134
L 603 4863
z
" transform="scale(0.015625)"/>
       <path id="DejaVuSans-7a" d="M 353 3500
L 3084 3500
L 3084 2975
L 922 459
L 3084 459
L 3084 0
L 275 0
L 275 525
L 2438 3041
L 353 3041
L 353 3500
z
" transform="scale(0.015625)"/>
       <path id="DejaVuSans-20" transform="scale(0.015625)"/>
       <path id="DejaVuSans-6e" d="M 3513 2113
L 3513 0
L 2938 0
L 2938 2094
Q 2938 2591 2744 2837
Q 2550 3084 2163 3084
Q 1697 3084 1428 2787
Q 1159 2491 1159 1978
L 1159 0
L 581 0
L 581 3500
L 1159 3500
L 1159 2956
Q 1366 3272 1645 3428
Q 1925 3584 2291 3584
Q 2894 3584 3203 3211
Q 3513 2838 3513 2113
z
" transform="scale(0.015625)"/>
       <path id="DejaVuSans-67" d="M 2906 1791
Q 2906 2416 2648 2759
Q 2391 3103 1925 3103
Q 1463 3103 1205 2759
Q 947 2416 947 1791
Q 947 1169 1205 825
Q 1463 481 1925 481
Q 2391 481 2648 825
Q 2906 1169 2906 1791
z
M 3481 434
Q 3481 -459 3084 -895
Q 2688 -1331 1869 -1331
Q 1566 -1331 1297 -1286
Q 1028 -1241 775 -1147
L 775 -588
Q 1028 -725 1275 -790
Q 1522 -856 1778 -856
Q 2344 -856 2625 -561
Q 2906 -266 2906 331
L 2906 616
Q 2728 306 2450 153
Q 2172 0 1784 0
Q 1141 0 747 490
Q 353 981 353 1791
Q 353 2603 747 3093
Q 1141 3584 1784 3584
Q 2172 3584 2450 3431
Q 2728 3278 2906 2969
L 2906 3500
L 3481 3500
L 3481 434
z
" transform="scale(0.015625)"/>
       <path id="DejaVuSans-76" d="M 191 3500
L 800 3500
L 1894 563
L 2988 3500
L 3597 3500
L 2284 0
L 1503 0
L 191 3500
z
" transform="scale(0.015625)"/>
       <path id="DejaVuSans-66" d="M 2375 4863
L 2375 4384
L 1825 4384
Q 1516 4384 1395 4259
Q 1275 4134 1275 3809
L 1275 3500
L 2222 3500
L 2222 3053
L 1275 3053
L 1275 0
L 697 0
L 697 3053
L 147 3053
L 147 3500
L 697 3500
L 697 3744
Q 697 4328 969 4595
Q 1241 4863 1831 4863
L 2375 4863
z
" transform="scale(0.015625)"/>
       <path id="DejaVuSans-75" d="M 544 1381
L 544 3500
L 1119 3500
L 1119 1403
Q 1119 906 1312 657
Q 1506 409 1894 409
Q 2359 409 2629 706
Q 2900 1003 2900 1516
L 2900 3500
L 3475 3500
L 3475 0
L 2900 0
L 2900 538
Q 2691 219 2414 64
Q 2138 -91 1772 -91
Q 1169 -91 856 284
Q 544 659 544 1381
z
M 1991 3584
L 1991 3584
z
" transform="scale(0.015625)"/>
      </defs>
      <use xlink:href="#DejaVuSans-52"/>
      <use xlink:href="#DejaVuSans-65" transform="translate(64.982422 0)"/>
      <use xlink:href="#DejaVuSans-61" transform="translate(126.505859 0)"/>
      <use xlink:href="#DejaVuSans-6c" transform="translate(187.785156 0)"/>
      <use xlink:href="#DejaVuSans-69" transform="translate(215.568359 0)"/>
      <use xlink:href="#DejaVuSans-7a" transform="translate(243.351562 0)"/>
      <use xlink:href="#DejaVuSans-65" transform="translate(295.841797 0)"/>
      <use xlink:href="#DejaVuSans-64" transform="translate(357.365234 0)"/>
      <use xlink:href="#DejaVuSans-20" transform="translate(420.841797 0)"/>
      <use xlink:href="#DejaVuSans-6e" transform="translate(452.628906 0)"/>
      <use xlink:href="#DejaVuSans-65" transform="translate(516.007812 0)"/>
      <use xlink:href="#DejaVuSans-67" transform="translate(577.53125 0)"/>
      <use xlink:href="#DejaVuSans-61" transform="translate(641.007812 0)"/>
      <use xlink:href="#DejaVuSans-74" transform="translate(702.287109 0)"/>
      <use xlink:href="#DejaVuSans-69" transform="translate(741.496094 0)"/>
      <use xlink:href="#DejaVuSans-76" transform="translate(769.279297 0)"/>
      <use xlink:href="#DejaVuSans-65" transform="translate(828.458984 0)"/>
      <use xlink:href="#DejaVuSans-20" transform="translate(889.982422 0)"/>
      <use xlink:href="#DejaVuSans-69" transform="translate(921.769531 0)"/>
      <use xlink:href="#DejaVuSans-6e" transform="translate(949.552734 0)"/>
      <use xlink:href="#DejaVuSans-66" transform="translate(1012.931641 0)"/>
      <use xlink:href="#DejaVuSans-6c" transform="translate(1048.136719 0)"/>
      <use xlink:href="#DejaVuSans-75" transform="translate(1075.919922 0)"/>
      <use xlink:href="#DejaVuSans-65" transform="translate(1139.298828 0)"/>
      <use xlink:href="#DejaVuSans-6e" transform="translate(1200.822266 0)"/>
      <use xlink:href="#DejaVuSans-63" transform="translate(1264.201172 0)"/>
      <use xlink:href="#DejaVuSans-65" transform="translate(1319.181641 0)"/>
     </g>
    </g>
   </g>
   <g id="patch_23">
    <path d="M 48.669313 210.862
L 48.669313 57.682
" style="fill: none; stroke: #000000; stroke-width: 0.8; stroke-linejoin: miter; stroke-linecap: square"/>
   </g>
   <g id="patch_24">
    <path d="M 48.669313 210.862
L 439.917313 210.862
" style="fill: none; stroke: #000000; stroke-width: 0.8; stroke-linejoin: miter; stroke-linecap: square"/>
   </g>
  </g>
  <g id="axes_2">
   <g id="matplotlib.axis_3">
    <g id="ytick_5">
     <g id="line2d_14">
      <defs>
       <path id="mf9bfbae575" d="M 0 0
L 3.5 0
" style="stroke: #000000; stroke-width: 0.8"/>
      </defs>
      <g>
       <use xlink:href="#mf9bfbae575" x="439.917313" y="176.822" style="stroke: #000000; stroke-width: 0.8"/>
      </g>
     </g>
     <g id="text_12">
      <!-- 0.6 -->
      <g transform="translate(446.917313 181.836969) scale(0.132 -0.132)">
       <defs>
        <path id="DejaVuSans-36" d="M 2113 2584
Q 1688 2584 1439 2293
Q 1191 2003 1191 1497
Q 1191 994 1439 701
Q 1688 409 2113 409
Q 2538 409 2786 701
Q 3034 994 3034 1497
Q 3034 2003 2786 2293
Q 2538 2584 2113 2584
z
M 3366 4563
L 3366 3988
Q 3128 4100 2886 4159
Q 2644 4219 2406 4219
Q 1781 4219 1451 3797
Q 1122 3375 1075 2522
Q 1259 2794 1537 2939
Q 1816 3084 2150 3084
Q 2853 3084 3261 2657
Q 3669 2231 3669 1497
Q 3669 778 3244 343
Q 2819 -91 2113 -91
Q 1303 -91 875 529
Q 447 1150 447 2328
Q 447 3434 972 4092
Q 1497 4750 2381 4750
Q 2619 4750 2861 4703
Q 3103 4656 3366 4563
z
" transform="scale(0.015625)"/>
       </defs>
       <use xlink:href="#DejaVuSans-30"/>
       <use xlink:href="#DejaVuSans-2e" transform="translate(63.623047 0)"/>
       <use xlink:href="#DejaVuSans-36" transform="translate(95.410156 0)"/>
      </g>
     </g>
    </g>
    <g id="ytick_6">
     <g id="line2d_15">
      <g>
       <use xlink:href="#mf9bfbae575" x="439.917313" y="120.088667" style="stroke: #000000; stroke-width: 0.8"/>
      </g>
     </g>
     <g id="text_13">
      <!-- 0.8 -->
      <g transform="translate(446.917313 125.103635) scale(0.132 -0.132)">
       <defs>
        <path id="DejaVuSans-38" d="M 2034 2216
Q 1584 2216 1326 1975
Q 1069 1734 1069 1313
Q 1069 891 1326 650
Q 1584 409 2034 409
Q 2484 409 2743 651
Q 3003 894 3003 1313
Q 3003 1734 2745 1975
Q 2488 2216 2034 2216
z
M 1403 2484
Q 997 2584 770 2862
Q 544 3141 544 3541
Q 544 4100 942 4425
Q 1341 4750 2034 4750
Q 2731 4750 3128 4425
Q 3525 4100 3525 3541
Q 3525 3141 3298 2862
Q 3072 2584 2669 2484
Q 3125 2378 3379 2068
Q 3634 1759 3634 1313
Q 3634 634 3220 271
Q 2806 -91 2034 -91
Q 1263 -91 848 271
Q 434 634 434 1313
Q 434 1759 690 2068
Q 947 2378 1403 2484
z
M 1172 3481
Q 1172 3119 1398 2916
Q 1625 2713 2034 2713
Q 2441 2713 2670 2916
Q 2900 3119 2900 3481
Q 2900 3844 2670 4047
Q 2441 4250 2034 4250
Q 1625 4250 1398 4047
Q 1172 3844 1172 3481
z
" transform="scale(0.015625)"/>
       </defs>
       <use xlink:href="#DejaVuSans-30"/>
       <use xlink:href="#DejaVuSans-2e" transform="translate(63.623047 0)"/>
       <use xlink:href="#DejaVuSans-38" transform="translate(95.410156 0)"/>
      </g>
     </g>
    </g>
    <g id="ytick_7">
     <g id="line2d_16">
      <g>
       <use xlink:href="#mf9bfbae575" x="439.917313" y="63.355333" style="stroke: #000000; stroke-width: 0.8"/>
      </g>
     </g>
     <g id="text_14">
      <!-- 1.0 -->
      <g transform="translate(446.917313 68.370302) scale(0.132 -0.132)">
       <use xlink:href="#DejaVuSans-31"/>
       <use xlink:href="#DejaVuSans-2e" transform="translate(63.623047 0)"/>
       <use xlink:href="#DejaVuSans-30" transform="translate(95.410156 0)"/>
      </g>
     </g>
    </g>
    <g id="text_15">
     <!-- Held-out-context reward -->
     <g transform="translate(483.307094 225.831766) rotate(-90) scale(0.15 -0.15)">
      <defs>
       <path id="DejaVuSans-48" d="M 628 4666
L 1259 4666
L 1259 2753
L 3553 2753
L 3553 4666
L 4184 4666
L 4184 0
L 3553 0
L 3553 2222
L 1259 2222
L 1259 0
L 628 0
L 628 4666
z
" transform="scale(0.015625)"/>
       <path id="DejaVuSans-78" d="M 3513 3500
L 2247 1797
L 3578 0
L 2900 0
L 1881 1375
L 863 0
L 184 0
L 1544 1831
L 300 3500
L 978 3500
L 1906 2253
L 2834 3500
L 3513 3500
z
" transform="scale(0.015625)"/>
       <path id="DejaVuSans-72" d="M 2631 2963
Q 2534 3019 2420 3045
Q 2306 3072 2169 3072
Q 1681 3072 1420 2755
Q 1159 2438 1159 1844
L 1159 0
L 581 0
L 581 3500
L 1159 3500
L 1159 2956
Q 1341 3275 1631 3429
Q 1922 3584 2338 3584
Q 2397 3584 2469 3576
Q 2541 3569 2628 3553
L 2631 2963
z
" transform="scale(0.015625)"/>
       <path id="DejaVuSans-77" d="M 269 3500
L 844 3500
L 1563 769
L 2278 3500
L 2956 3500
L 3675 769
L 4391 3500
L 4966 3500
L 4050 0
L 3372 0
L 2619 2869
L 1863 0
L 1184 0
L 269 3500
z
" transform="scale(0.015625)"/>
      </defs>
      <use xlink:href="#DejaVuSans-48"/>
      <use xlink:href="#DejaVuSans-65" transform="translate(75.195312 0)"/>
      <use xlink:href="#DejaVuSans-6c" transform="translate(136.71875 0)"/>
      <use xlink:href="#DejaVuSans-64" transform="translate(164.501953 0)"/>
      <use xlink:href="#DejaVuSans-2d" transform="translate(227.978516 0)"/>
      <use xlink:href="#DejaVuSans-6f" transform="translate(265.9375 0)"/>
      <use xlink:href="#DejaVuSans-75" transform="translate(327.119141 0)"/>
      <use xlink:href="#DejaVuSans-74" transform="translate(390.498047 0)"/>
      <use xlink:href="#DejaVuSans-2d" transform="translate(429.707031 0)"/>
      <use xlink:href="#DejaVuSans-63" transform="translate(465.791016 0)"/>
      <use xlink:href="#DejaVuSans-6f" transform="translate(520.771484 0)"/>
      <use xlink:href="#DejaVuSans-6e" transform="translate(581.953125 0)"/>
      <use xlink:href="#DejaVuSans-74" transform="translate(645.332031 0)"/>
      <use xlink:href="#DejaVuSans-65" transform="translate(684.541016 0)"/>
      <use xlink:href="#DejaVuSans-78" transform="translate(744.314453 0)"/>
      <use xlink:href="#DejaVuSans-74" transform="translate(803.494141 0)"/>
      <use xlink:href="#DejaVuSans-20" transform="translate(842.703125 0)"/>
      <use xlink:href="#DejaVuSans-72" transform="translate(874.490234 0)"/>
      <use xlink:href="#DejaVuSans-65" transform="translate(913.353516 0)"/>
      <use xlink:href="#DejaVuSans-77" transform="translate(974.876953 0)"/>
      <use xlink:href="#DejaVuSans-61" transform="translate(1056.664062 0)"/>
      <use xlink:href="#DejaVuSans-72" transform="translate(1117.943359 0)"/>
      <use xlink:href="#DejaVuSans-64" transform="translate(1157.306641 0)"/>
     </g>
    </g>
   </g>
   <g id="line2d_17">
    <path d="M 78.588277 196.678667
L 155.303571 148.455333
L 232.018865 105.905333
L 308.73416 91.722
L 385.449454 77.538667
" clip-path="url(#pb5ed9cd022)" style="fill: none; stroke-dasharray: 4.995,2.16; stroke-dashoffset: 0; stroke: #1f77b4; stroke-width: 1.35"/>
    <defs>
     <path id="mebe950bf05" d="M 0 2.95
C 0.782349 2.95 1.532761 2.639169 2.085965 2.085965
C 2.639169 1.532761 2.95 0.782349 2.95 0
C 2.95 -0.782349 2.639169 -1.532761 2.085965 -2.085965
C 1.532761 -2.639169 0.782349 -2.95 0 -2.95
C -0.782349 -2.95 -1.532761 -2.639169 -2.085965 -2.085965
C -2.639169 -1.532761 -2.95 -0.782349 -2.95 0
C -2.95 0.782349 -2.639169 1.532761 -2.085965 2.085965
C -1.532761 2.639169 -0.782349 2.95 0 2.95
z
" style="stroke: #1f77b4"/>
    </defs>
    <g clip-path="url(#pb5ed9cd022)">
     <use xlink:href="#mebe950bf05" x="78.588277" y="196.678667" style="fill: #1f77b4; stroke: #1f77b4"/>
     <use xlink:href="#mebe950bf05" x="155.303571" y="148.455333" style="fill: #1f77b4; stroke: #1f77b4"/>
     <use xlink:href="#mebe950bf05" x="232.018865" y="105.905333" style="fill: #1f77b4; stroke: #1f77b4"/>
     <use xlink:href="#mebe950bf05" x="308.73416" y="91.722" style="fill: #1f77b4; stroke: #1f77b4"/>
     <use xlink:href="#mebe950bf05" x="385.449454" y="77.538667" style="fill: #1f77b4; stroke: #1f77b4"/>
    </g>
   </g>
   <g id="line2d_18">
    <path d="M 103.137171 196.678667
L 179.852465 151.292
L 256.56776 114.415333
L 333.283054 97.395333
L 409.998348 83.212
" clip-path="url(#pb5ed9cd022)" style="fill: none; stroke-dasharray: 4.995,2.16; stroke-dashoffset: 0; stroke: #ff7f0e; stroke-width: 1.35"/>
    <defs>
     <path id="m0a2997cca6" d="M -2.85 2.85
L 2.85 2.85
L 2.85 -2.85
L -2.85 -2.85
z
" style="stroke: #ff7f0e; stroke-linejoin: miter"/>
    </defs>
    <g clip-path="url(#pb5ed9cd022)">
     <use xlink:href="#m0a2997cca6" x="103.137171" y="196.678667" style="fill: #ff7f0e; stroke: #ff7f0e; stroke-linejoin: miter"/>
     <use xlink:href="#m0a2997cca6" x="179.852465" y="151.292" style="fill: #ff7f0e; stroke: #ff7f0e; stroke-linejoin: miter"/>
     <use xlink:href="#m0a2997cca6" x="256.56776" y="114.415333" style="fill: #ff7f0e; stroke: #ff7f0e; stroke-linejoin: miter"/>
     <use xlink:href="#m0a2997cca6" x="333.283054" y="97.395333" style="fill: #ff7f0e; stroke: #ff7f0e; stroke-linejoin: miter"/>
     <use xlink:href="#m0a2997cca6" x="409.998348" y="83.212" style="fill: #ff7f0e; stroke: #ff7f0e; stroke-linejoin: miter"/>
    </g>
   </g>
   <g id="patch_25">
    <path d="M 48.669313 210.862
L 48.669313 57.682
" style="fill: none; stroke: #000000; stroke-width: 0.8; stroke-linejoin: miter; stroke-linecap: square"/>
   </g>
   <g id="patch_26">
    <path d="M 439.917313 210.862
L 439.917313 57.682
" style="fill: none; stroke: #000000; stroke-width: 0.8; stroke-linejoin: miter; stroke-linecap: square"/>
   </g>
   <g id="patch_27">
    <path d="M 48.669313 210.862
L 439.917313 210.862
" style="fill: none; stroke: #000000; stroke-width: 0.8; stroke-linejoin: miter; stroke-linecap: square"/>
   </g>
   <g id="text_16">
    <!-- 0.53 -->
    <g transform="translate(66.56484 189.326604) scale(0.108 -0.108)">
     <defs>
      <path id="DejaVuSans-33" d="M 2597 2516
Q 3050 2419 3304 2112
Q 3559 1806 3559 1356
Q 3559 666 3084 287
Q 2609 -91 1734 -91
Q 1441 -91 1130 -33
Q 819 25 488 141
L 488 750
Q 750 597 1062 519
Q 1375 441 1716 441
Q 2309 441 2620 675
Q 2931 909 2931 1356
Q 2931 1769 2642 2001
Q 2353 2234 1838 2234
L 1294 2234
L 1294 2753
L 1863 2753
Q 2328 2753 2575 2939
Q 2822 3125 2822 3475
Q 2822 3834 2567 4026
Q 2313 4219 1838 4219
Q 1578 4219 1281 4162
Q 984 4106 628 3988
L 628 4550
Q 988 4650 1302 4700
Q 1616 4750 1894 4750
Q 2613 4750 3031 4423
Q 3450 4097 3450 3541
Q 3450 3153 3228 2886
Q 3006 2619 2597 2516
z
" transform="scale(0.015625)"/>
     </defs>
     <use xlink:href="#DejaVuSans-30"/>
     <use xlink:href="#DejaVuSans-2e" transform="translate(63.623047 0)"/>
     <use xlink:href="#DejaVuSans-35" transform="translate(95.410156 0)"/>
     <use xlink:href="#DejaVuSans-33" transform="translate(159.033203 0)"/>
    </g>
   </g>
   <g id="text_17">
    <!-- 0.70 -->
    <g transform="translate(141.362251 140.252271) scale(0.108 -0.108)">
     <defs>
      <path id="DejaVuSans-37" d="M 525 4666
L 3525 4666
L 3525 4397
L 1831 0
L 1172 0
L 2766 4134
L 525 4134
L 525 4666
z
" transform="scale(0.015625)"/>
     </defs>
     <use xlink:href="#DejaVuSans-30"/>
     <use xlink:href="#DejaVuSans-2e" transform="translate(63.623047 0)"/>
     <use xlink:href="#DejaVuSans-37" transform="translate(95.410156 0)"/>
     <use xlink:href="#DejaVuSans-30" transform="translate(159.033203 0)"/>
    </g>
   </g>
   <g id="text_18">
    <!-- 0.85 -->
    <g transform="translate(219.995428 98.836938) scale(0.108 -0.108)">
     <use xlink:href="#DejaVuSans-30"/>
     <use xlink:href="#DejaVuSans-2e" transform="translate(63.623047 0)"/>
     <use xlink:href="#DejaVuSans-38" transform="translate(95.410156 0)"/>
     <use xlink:href="#DejaVuSans-35" transform="translate(159.033203 0)"/>
    </g>
   </g>
   <g id="text_19">
    <!-- 0.90 -->
    <g transform="translate(296.710722 84.369938) scale(0.108 -0.108)">
     <defs>
      <path id="DejaVuSans-39" d="M 703 97
L 703 672
Q 941 559 1184 500
Q 1428 441 1663 441
Q 2288 441 2617 861
Q 2947 1281 2994 2138
Q 2813 1869 2534 1725
Q 2256 1581 1919 1581
Q 1219 1581 811 2004
Q 403 2428 403 3163
Q 403 3881 828 4315
Q 1253 4750 1959 4750
Q 2769 4750 3195 4129
Q 3622 3509 3622 2328
Q 3622 1225 3098 567
Q 2575 -91 1691 -91
Q 1453 -91 1209 -44
Q 966 3 703 97
z
M 1959 2075
Q 2384 2075 2632 2365
Q 2881 2656 2881 3163
Q 2881 3666 2632 3958
Q 2384 4250 1959 4250
Q 1534 4250 1286 3958
Q 1038 3666 1038 3163
Q 1038 2656 1286 2365
Q 1534 2075 1959 2075
z
" transform="scale(0.015625)"/>
     </defs>
     <use xlink:href="#DejaVuSans-30"/>
     <use xlink:href="#DejaVuSans-2e" transform="translate(63.623047 0)"/>
     <use xlink:href="#DejaVuSans-39" transform="translate(95.410156 0)"/>
     <use xlink:href="#DejaVuSans-30" transform="translate(159.033203 0)"/>
    </g>
   </g>
   <g id="text_20">
    <!-- 0.95 -->
    <g transform="translate(373.426016 70.186604) scale(0.108 -0.108)">
     <use xlink:href="#DejaVuSans-30"/>
     <use xlink:href="#DejaVuSans-2e" transform="translate(63.623047 0)"/>
     <use xlink:href="#DejaVuSans-39" transform="translate(95.410156 0)"/>
     <use xlink:href="#DejaVuSans-35" transform="translate(159.033203 0)"/>
    </g>
   </g>
   <g id="text_21">
    <!-- 0.53 -->
    <g transform="translate(91.113734 189.326604) scale(0.108 -0.108)">
     <use xlink:href="#DejaVuSans-30"/>
     <use xlink:href="#DejaVuSans-2e" transform="translate(63.623047 0)"/>
     <use xlink:href="#DejaVuSans-35" transform="translate(95.410156 0)"/>
     <use xlink:href="#DejaVuSans-33" transform="translate(159.033203 0)"/>
    </g>
   </g>
   <g id="text_22">
    <!-- 0.69 -->
    <g transform="translate(169.74691 143.088938) scale(0.108 -0.108)">
     <use xlink:href="#DejaVuSans-30"/>
     <use xlink:href="#DejaVuSans-2e" transform="translate(63.623047 0)"/>
     <use xlink:href="#DejaVuSans-36" transform="translate(95.410156 0)"/>
     <use xlink:href="#DejaVuSans-39" transform="translate(159.033203 0)"/>
    </g>
   </g>
   <g id="text_23">
    <!-- 0.82 -->
    <g transform="translate(244.544322 107.346938) scale(0.108 -0.108)">
     <defs>
      <path id="DejaVuSans-32" d="M 1228 531
L 3431 531
L 3431 0
L 469 0
L 469 531
Q 828 903 1448 1529
Q 2069 2156 2228 2338
Q 2531 2678 2651 2914
Q 2772 3150 2772 3378
Q 2772 3750 2511 3984
Q 2250 4219 1831 4219
Q 1534 4219 1204 4116
Q 875 4013 500 3803
L 500 4441
Q 881 4594 1212 4672
Q 1544 4750 1819 4750
Q 2544 4750 2975 4387
Q 3406 4025 3406 3419
Q 3406 3131 3298 2873
Q 3191 2616 2906 2266
Q 2828 2175 2409 1742
Q 1991 1309 1228 531
z
" transform="scale(0.015625)"/>
     </defs>
     <use xlink:href="#DejaVuSans-30"/>
     <use xlink:href="#DejaVuSans-2e" transform="translate(63.623047 0)"/>
     <use xlink:href="#DejaVuSans-38" transform="translate(95.410156 0)"/>
     <use xlink:href="#DejaVuSans-32" transform="translate(159.033203 0)"/>
    </g>
   </g>
   <g id="text_24">
    <!-- 0.88 -->
    <g transform="translate(322.026769 90.043271) scale(0.108 -0.108)">
     <use xlink:href="#DejaVuSans-30"/>
     <use xlink:href="#DejaVuSans-2e" transform="translate(63.623047 0)"/>
     <use xlink:href="#DejaVuSans-38" transform="translate(95.410156 0)"/>
     <use xlink:href="#DejaVuSans-38" transform="translate(159.033203 0)"/>
    </g>
   </g>
   <g id="text_25">
    <!-- 0.93 -->
    <g transform="translate(397.97491 75.859937) scale(0.108 -0.108)">
     <use xlink:href="#DejaVuSans-30"/>
     <use xlink:href="#DejaVuSans-2e" transform="translate(63.623047 0)"/>
     <use xlink:href="#DejaVuSans-39" transform="translate(95.410156 0)"/>
     <use xlink:href="#DejaVuSans-33" transform="translate(159.033203 0)"/>
    </g>
   </g>
  </g>
  <g id="legend_1">
   <g id="patch_28">
    <path d="M 18.247219 38.885781
L 496.079406 38.885781
Q 498.379406 38.885781 498.379406 36.585781
L 498.379406 4.46
Q 498.379406 2.16 496.079406 2.16
L 18.247219 2.16
Q 15.947219 2.16 15.947219 4.46
L 15.947219 36.585781
Q 15.947219 38.885781 18.247219 38.885781
z
" style="fill: #ffffff; opacity: 0.8; stroke: #cccccc; stroke-linejoin: miter"/>
   </g>
   <g id="text_26">
    <!-- Within each method, left bar = N; right bar = B -->
    <g transform="translate(126.897531 15.118281) scale(0.11 -0.11)">
     <defs>
      <path id="DejaVuSans-57" d="M 213 4666
L 850 4666
L 1831 722
L 2809 4666
L 3519 4666
L 4500 722
L 5478 4666
L 6119 4666
L 4947 0
L 4153 0
L 3169 4050
L 2175 0
L 1381 0
L 213 4666
z
" transform="scale(0.015625)"/>
      <path id="DejaVuSans-6d" d="M 3328 2828
Q 3544 3216 3844 3400
Q 4144 3584 4550 3584
Q 5097 3584 5394 3201
Q 5691 2819 5691 2113
L 5691 0
L 5113 0
L 5113 2094
Q 5113 2597 4934 2840
Q 4756 3084 4391 3084
Q 3944 3084 3684 2787
Q 3425 2491 3425 1978
L 3425 0
L 2847 0
L 2847 2094
Q 2847 2600 2669 2842
Q 2491 3084 2119 3084
Q 1678 3084 1418 2786
Q 1159 2488 1159 1978
L 1159 0
L 581 0
L 581 3500
L 1159 3500
L 1159 2956
Q 1356 3278 1631 3431
Q 1906 3584 2284 3584
Q 2666 3584 2933 3390
Q 3200 3197 3328 2828
z
" transform="scale(0.015625)"/>
      <path id="DejaVuSans-2c" d="M 750 794
L 1409 794
L 1409 256
L 897 -744
L 494 -744
L 750 256
L 750 794
z
" transform="scale(0.015625)"/>
      <path id="DejaVuSans-62" d="M 3116 1747
Q 3116 2381 2855 2742
Q 2594 3103 2138 3103
Q 1681 3103 1420 2742
Q 1159 2381 1159 1747
Q 1159 1113 1420 752
Q 1681 391 2138 391
Q 2594 391 2855 752
Q 3116 1113 3116 1747
z
M 1159 2969
Q 1341 3281 1617 3432
Q 1894 3584 2278 3584
Q 2916 3584 3314 3078
Q 3713 2572 3713 1747
Q 3713 922 3314 415
Q 2916 -91 2278 -91
Q 1894 -91 1617 61
Q 1341 213 1159 525
L 1159 0
L 581 0
L 581 4863
L 1159 4863
L 1159 2969
z
" transform="scale(0.015625)"/>
      <path id="DejaVuSans-3d" d="M 678 2906
L 4684 2906
L 4684 2381
L 678 2381
L 678 2906
z
M 678 1631
L 4684 1631
L 4684 1100
L 678 1100
L 678 1631
z
" transform="scale(0.015625)"/>
      <path id="DejaVuSans-4e" d="M 628 4666
L 1478 4666
L 3547 763
L 3547 4666
L 4159 4666
L 4159 0
L 3309 0
L 1241 3903
L 1241 0
L 628 0
L 628 4666
z
" transform="scale(0.015625)"/>
      <path id="DejaVuSans-3b" d="M 750 3309
L 1409 3309
L 1409 2516
L 750 2516
L 750 3309
z
M 750 794
L 1409 794
L 1409 256
L 897 -744
L 494 -744
L 750 256
L 750 794
z
" transform="scale(0.015625)"/>
      <path id="DejaVuSans-42" d="M 1259 2228
L 1259 519
L 2272 519
Q 2781 519 3026 730
Q 3272 941 3272 1375
Q 3272 1813 3026 2020
Q 2781 2228 2272 2228
L 1259 2228
z
M 1259 4147
L 1259 2741
L 2194 2741
Q 2656 2741 2882 2914
Q 3109 3088 3109 3444
Q 3109 3797 2882 3972
Q 2656 4147 2194 4147
L 1259 4147
z
M 628 4666
L 2241 4666
Q 2963 4666 3353 4366
Q 3744 4066 3744 3513
Q 3744 3084 3544 2831
Q 3344 2578 2956 2516
Q 3422 2416 3680 2098
Q 3938 1781 3938 1306
Q 3938 681 3513 340
Q 3088 0 2303 0
L 628 0
L 628 4666
z
" transform="scale(0.015625)"/>
     </defs>
     <use xlink:href="#DejaVuSans-57"/>
     <use xlink:href="#DejaVuSans-69" transform="translate(96.626953 0)"/>
     <use xlink:href="#DejaVuSans-74" transform="translate(124.410156 0)"/>
     <use xlink:href="#DejaVuSans-68" transform="translate(163.619141 0)"/>
     <use xlink:href="#DejaVuSans-69" transform="translate(226.998047 0)"/>
     <use xlink:href="#DejaVuSans-6e" transform="translate(254.78125 0)"/>
     <use xlink:href="#DejaVuSans-20" transform="translate(318.160156 0)"/>
     <use xlink:href="#DejaVuSans-65" transform="translate(349.947266 0)"/>
     <use xlink:href="#DejaVuSans-61" transform="translate(411.470703 0)"/>
     <use xlink:href="#DejaVuSans-63" transform="translate(472.75 0)"/>
     <use xlink:href="#DejaVuSans-68" transform="translate(527.730469 0)"/>
     <use xlink:href="#DejaVuSans-20" transform="translate(591.109375 0)"/>
     <use xlink:href="#DejaVuSans-6d" transform="translate(622.896484 0)"/>
     <use xlink:href="#DejaVuSans-65" transform="translate(720.308594 0)"/>
     <use xlink:href="#DejaVuSans-74" transform="translate(781.832031 0)"/>
     <use xlink:href="#DejaVuSans-68" transform="translate(821.041016 0)"/>
     <use xlink:href="#DejaVuSans-6f" transform="translate(884.419922 0)"/>
     <use xlink:href="#DejaVuSans-64" transform="translate(945.601562 0)"/>
     <use xlink:href="#DejaVuSans-2c" transform="translate(1009.078125 0)"/>
     <use xlink:href="#DejaVuSans-20" transform="translate(1040.865234 0)"/>
     <use xlink:href="#DejaVuSans-6c" transform="translate(1072.652344 0)"/>
     <use xlink:href="#DejaVuSans-65" transform="translate(1100.435547 0)"/>
     <use xlink:href="#DejaVuSans-66" transform="translate(1161.958984 0)"/>
     <use xlink:href="#DejaVuSans-74" transform="translate(1195.414062 0)"/>
     <use xlink:href="#DejaVuSans-20" transform="translate(1234.623047 0)"/>
     <use xlink:href="#DejaVuSans-62" transform="translate(1266.410156 0)"/>
     <use xlink:href="#DejaVuSans-61" transform="translate(1329.886719 0)"/>
     <use xlink:href="#DejaVuSans-72" transform="translate(1391.166016 0)"/>
     <use xlink:href="#DejaVuSans-20" transform="translate(1432.279297 0)"/>
     <use xlink:href="#DejaVuSans-3d" transform="translate(1464.066406 0)"/>
     <use xlink:href="#DejaVuSans-20" transform="translate(1547.855469 0)"/>
     <use xlink:href="#DejaVuSans-4e" transform="translate(1579.642578 0)"/>
     <use xlink:href="#DejaVuSans-3b" transform="translate(1654.447266 0)"/>
     <use xlink:href="#DejaVuSans-20" transform="translate(1688.138672 0)"/>
     <use xlink:href="#DejaVuSans-72" transform="translate(1719.925781 0)"/>
     <use xlink:href="#DejaVuSans-69" transform="translate(1761.039062 0)"/>
     <use xlink:href="#DejaVuSans-67" transform="translate(1788.822266 0)"/>
     <use xlink:href="#DejaVuSans-68" transform="translate(1852.298828 0)"/>
     <use xlink:href="#DejaVuSans-74" transform="translate(1915.677734 0)"/>
     <use xlink:href="#DejaVuSans-20" transform="translate(1954.886719 0)"/>
     <use xlink:href="#DejaVuSans-62" transform="translate(1986.673828 0)"/>
     <use xlink:href="#DejaVuSans-61" transform="translate(2050.150391 0)"/>
     <use xlink:href="#DejaVuSans-72" transform="translate(2111.429688 0)"/>
     <use xlink:href="#DejaVuSans-20" transform="translate(2152.542969 0)"/>
     <use xlink:href="#DejaVuSans-3d" transform="translate(2184.330078 0)"/>
     <use xlink:href="#DejaVuSans-20" transform="translate(2268.119141 0)"/>
     <use xlink:href="#DejaVuSans-42" transform="translate(2299.90625 0)"/>
    </g>
   </g>
   <g id="patch_29">
    <path d="M 20.547219 31.894141
L 43.547219 31.894141
L 43.547219 23.844141
L 20.547219 23.844141
z
" style="fill: #1f77b4"/>
   </g>
   <g id="text_27">
    <!-- Near retained -->
    <g transform="translate(52.747219 31.894141) scale(0.115 -0.115)">
     <use xlink:href="#DejaVuSans-4e"/>
     <use xlink:href="#DejaVuSans-65" transform="translate(74.804688 0)"/>
     <use xlink:href="#DejaVuSans-61" transform="translate(136.328125 0)"/>
     <use xlink:href="#DejaVuSans-72" transform="translate(197.607422 0)"/>
     <use xlink:href="#DejaVuSans-20" transform="translate(238.720703 0)"/>
     <use xlink:href="#DejaVuSans-72" transform="translate(270.507812 0)"/>
     <use xlink:href="#DejaVuSans-65" transform="translate(309.371094 0)"/>
     <use xlink:href="#DejaVuSans-74" transform="translate(370.894531 0)"/>
     <use xlink:href="#DejaVuSans-61" transform="translate(410.103516 0)"/>
     <use xlink:href="#DejaVuSans-69" transform="translate(471.382812 0)"/>
     <use xlink:href="#DejaVuSans-6e" transform="translate(499.166016 0)"/>
     <use xlink:href="#DejaVuSans-65" transform="translate(562.544922 0)"/>
     <use xlink:href="#DejaVuSans-64" transform="translate(624.068359 0)"/>
    </g>
   </g>
   <g id="patch_30">
    <path d="M 154.816906 31.894141
L 177.816906 31.894141
L 177.816906 23.844141
L 154.816906 23.844141
z
" style="fill: #ff7f0e"/>
   </g>
   <g id="text_28">
    <!-- Far retained -->
    <g transform="translate(187.016906 31.894141) scale(0.115 -0.115)">
     <defs>
      <path id="DejaVuSans-46" d="M 628 4666
L 3309 4666
L 3309 4134
L 1259 4134
L 1259 2759
L 3109 2759
L 3109 2228
L 1259 2228
L 1259 0
L 628 0
L 628 4666
z
" transform="scale(0.015625)"/>
     </defs>
     <use xlink:href="#DejaVuSans-46"/>
     <use xlink:href="#DejaVuSans-61" transform="translate(48.394531 0)"/>
     <use xlink:href="#DejaVuSans-72" transform="translate(109.673828 0)"/>
     <use xlink:href="#DejaVuSans-20" transform="translate(150.787109 0)"/>
     <use xlink:href="#DejaVuSans-72" transform="translate(182.574219 0)"/>
     <use xlink:href="#DejaVuSans-65" transform="translate(221.4375 0)"/>
     <use xlink:href="#DejaVuSans-74" transform="translate(282.960938 0)"/>
     <use xlink:href="#DejaVuSans-61" transform="translate(322.169922 0)"/>
     <use xlink:href="#DejaVuSans-69" transform="translate(383.449219 0)"/>
     <use xlink:href="#DejaVuSans-6e" transform="translate(411.232422 0)"/>
     <use xlink:href="#DejaVuSans-65" transform="translate(474.611328 0)"/>
     <use xlink:href="#DejaVuSans-64" transform="translate(536.134766 0)"/>
    </g>
   </g>
   <g id="line2d_19">
    <path d="M 278.971984 27.869141
L 290.471984 27.869141
L 301.971984 27.869141
" style="fill: none; stroke-dasharray: 4.995,2.16; stroke-dashoffset: 0; stroke: #1f77b4; stroke-width: 1.35"/>
    <defs>
     <path id="m743eac24bb" d="M 0 3.15
C 0.83539 3.15 1.636677 2.818096 2.227386 2.227386
C 2.818096 1.636677 3.15 0.83539 3.15 0
C 3.15 -0.83539 2.818096 -1.636677 2.227386 -2.227386
C 1.636677 -2.818096 0.83539 -3.15 0 -3.15
C -0.83539 -3.15 -1.636677 -2.818096 -2.227386 -2.227386
C -2.818096 -1.636677 -3.15 -0.83539 -3.15 0
C -3.15 0.83539 -2.818096 1.636677 -2.227386 2.227386
C -1.636677 2.818096 -0.83539 3.15 0 3.15
z
" style="stroke: #1f77b4"/>
    </defs>
    <g>
     <use xlink:href="#m743eac24bb" x="290.471984" y="27.869141" style="fill: #1f77b4; stroke: #1f77b4"/>
    </g>
   </g>
   <g id="text_29">
    <!-- Reward (N) -->
    <g transform="translate(311.171984 31.894141) scale(0.115 -0.115)">
     <defs>
      <path id="DejaVuSans-28" d="M 1984 4856
Q 1566 4138 1362 3434
Q 1159 2731 1159 2009
Q 1159 1288 1364 580
Q 1569 -128 1984 -844
L 1484 -844
Q 1016 -109 783 600
Q 550 1309 550 2009
Q 550 2706 781 3412
Q 1013 4119 1484 4856
L 1984 4856
z
" transform="scale(0.015625)"/>
      <path id="DejaVuSans-29" d="M 513 4856
L 1013 4856
Q 1481 4119 1714 3412
Q 1947 2706 1947 2009
Q 1947 1309 1714 600
Q 1481 -109 1013 -844
L 513 -844
Q 928 -128 1133 580
Q 1338 1288 1338 2009
Q 1338 2731 1133 3434
Q 928 4138 513 4856
z
" transform="scale(0.015625)"/>
     </defs>
     <use xlink:href="#DejaVuSans-52"/>
     <use xlink:href="#DejaVuSans-65" transform="translate(64.982422 0)"/>
     <use xlink:href="#DejaVuSans-77" transform="translate(126.505859 0)"/>
     <use xlink:href="#DejaVuSans-61" transform="translate(208.292969 0)"/>
     <use xlink:href="#DejaVuSans-72" transform="translate(269.572266 0)"/>
     <use xlink:href="#DejaVuSans-64" transform="translate(308.935547 0)"/>
     <use xlink:href="#DejaVuSans-20" transform="translate(372.412109 0)"/>
     <use xlink:href="#DejaVuSans-28" transform="translate(404.199219 0)"/>
     <use xlink:href="#DejaVuSans-4e" transform="translate(443.212891 0)"/>
     <use xlink:href="#DejaVuSans-29" transform="translate(518.017578 0)"/>
    </g>
   </g>
   <g id="line2d_20">
    <path d="M 398.232375 27.869141
L 409.732375 27.869141
L 421.232375 27.869141
" style="fill: none; stroke-dasharray: 4.995,2.16; stroke-dashoffset: 0; stroke: #1f77b4; stroke-width: 1.35"/>
    <defs>
     <path id="m1bec06e292" d="M -3.05 3.05
L 3.05 3.05
L 3.05 -3.05
L -3.05 -3.05
z
" style="stroke: #1f77b4; stroke-linejoin: miter"/>
    </defs>
    <g>
     <use xlink:href="#m1bec06e292" x="409.732375" y="27.869141" style="fill: #1f77b4; stroke: #1f77b4; stroke-linejoin: miter"/>
    </g>
   </g>
   <g id="text_30">
    <!-- Reward (B) -->
    <g transform="translate(430.432375 31.894141) scale(0.115 -0.115)">
     <use xlink:href="#DejaVuSans-52"/>
     <use xlink:href="#DejaVuSans-65" transform="translate(64.982422 0)"/>
     <use xlink:href="#DejaVuSans-77" transform="translate(126.505859 0)"/>
     <use xlink:href="#DejaVuSans-61" transform="translate(208.292969 0)"/>
     <use xlink:href="#DejaVuSans-72" transform="translate(269.572266 0)"/>
     <use xlink:href="#DejaVuSans-64" transform="translate(308.935547 0)"/>
     <use xlink:href="#DejaVuSans-20" transform="translate(372.412109 0)"/>
     <use xlink:href="#DejaVuSans-28" transform="translate(404.199219 0)"/>
     <use xlink:href="#DejaVuSans-42" transform="translate(443.212891 0)"/>
     <use xlink:href="#DejaVuSans-29" transform="translate(511.816406 0)"/>
    </g>
   </g>
  </g>
 </g>
 <defs>
  <clipPath id="pb5ed9cd022">
   <rect x="48.669313" y="57.682" width="391.248" height="153.18"/>
  </clipPath>
 </defs>
</svg>
