<?xml version="1.0" encoding="utf-8" standalone="no"?>
<!DOCTYPE svg PUBLIC "-//W3C//DTD SVG 1.1//EN"
  "http://www.w3.org/Graphics/SVG/1.1/DTD/svg11.dtd">
<svg xmlns:xlink="http://www.w3.org/1999/xlink" width="515.947975pt" height="201.012047pt" viewBox="0 0 515.947975 201.012047" xmlns="http://www.w3.org/2000/svg" version="1.1">
 <metadata>
  <rdf:RDF xmlns:dc="http://purl.org/dc/elements/1.1/" xmlns:cc="http://creativecommons.org/ns#" xmlns:rdf="http://www.w3.org/1999/02/22-rdf-syntax-ns#">
   <cc:Work>
    <dc:type rdf:resource="http://purl.org/dc/dcmitype/StillImage"/>
    <dc:date>2026-07-23T18:25:10.054495</dc:date>
    <dc:format>image/svg+xml</dc:format>
    <dc:creator>
     <cc:Agent>
      <dc:title>Matplotlib v3.11.1, https://matplotlib.org/</dc:title>
     </cc:Agent>
    </dc:creator>
   </cc:Work>
  </rdf:RDF>
 </metadata>
 <defs>
  <style type="text/css">*{stroke-linejoin: round; stroke-linecap: butt}</style>
 </defs>
 <g id="figure_1">
  <g id="patch_1">
   <path d="M 0 201.012047 
L 515.947975 201.012047 
L 515.947975 -0 
L 0 -0 
z
" style="fill: #ffffff"/>
  </g>
  <g id="axes_1">
   <g id="patch_2">
    <path d="M 36.219383 169.750633 
L 271.014212 169.750633 
L 271.014212 13.974187 
L 36.219383 13.974187 
z
" style="fill: #ffffff"/>
   </g>
   <g id="FillBetweenPolyCollection_1">
    <path d="M 46.891875 162.669885 
L 46.891875 162.669885 
L 77.38471 145.041487 
L 107.877545 127.413088 
L 138.37038 109.77951 
L 168.863215 92.172421 
L 199.35605 73.112162 
L 229.848885 53.601602 
L 260.34172 35.976801 
L 260.34172 21.054935 
L 260.34172 21.054935 
L 229.848885 41.597229 
L 199.35605 64.11096 
L 168.863215 84.133234 
L 138.37038 103.736741 
L 107.877545 123.384467 
L 77.38471 143.027176 
L 46.891875 162.669885 
z
" clip-path="url(#p1355e03ef6)" style="fill: #1f77b4; fill-opacity: 0.18"/>
   </g>
   <g id="matplotlib.axis_1">
    <g id="xtick_1">
     <g id="line2d_1">
      <defs>
       <path id="mb4d94d75e5" d="M 0 0 
L 0 3.5 
" style="stroke: #000000; stroke-width: 0.8"/>
      </defs>
      <g>
       <use xlink:href="#mb4d94d75e5" x="46.891875" y="169.750633" style="stroke: #000000; stroke-width: 0.8"/>
      </g>
     </g>
     <g id="text_1">
      <!-- 1.0 -->
      <g transform="translate(40.212563 183.132664) scale(0.084 -0.084)">
       <defs>
        <path id="DejaVuSans-14" d="M 794 531 
L 1825 531 
L 1825 4091 
L 703 3866 
L 703 4441 
L 1819 4666 
L 2450 4666 
L 2450 531 
L 3481 531 
L 3481 0 
L 794 0 
L 794 531 
z
" transform="scale(0.015625)"/>
        <path id="DejaVuSans-11" d="M 684 794 
L 1344 794 
L 1344 0 
L 684 0 
L 684 794 
z
" transform="scale(0.015625)"/>
        <path id="DejaVuSans-13" d="M 2034 4250 
Q 1547 4250 1301 3770 
Q 1056 3291 1056 2328 
Q 1056 1369 1301 889 
Q 1547 409 2034 409 
Q 2525 409 2770 889 
Q 3016 1369 3016 2328 
Q 3016 3291 2770 3770 
Q 2525 4250 2034 4250 
z
M 2034 4750 
Q 2819 4750 3233 4129 
Q 3647 3509 3647 2328 
Q 3647 1150 3233 529 
Q 2819 -91 2034 -91 
Q 1250 -91 836 529 
Q 422 1150 422 2328 
Q 422 3509 836 4129 
Q 1250 4750 2034 4750 
z
" transform="scale(0.015625)"/>
       </defs>
       <use xlink:href="#DejaVuSans-14"/>
       <use xlink:href="#DejaVuSans-11" transform="translate(63.625 0)"/>
       <use xlink:href="#DejaVuSans-13" transform="translate(95.40625 0)"/>
      </g>
     </g>
    </g>
    <g id="xtick_2">
     <g id="line2d_2">
      <g>
       <use xlink:href="#mb4d94d75e5" x="92.012345" y="169.750633" style="stroke: #000000; stroke-width: 0.8"/>
      </g>
     </g>
     <g id="text_2">
      <!-- 1.5 -->
      <g transform="translate(85.333032 183.132664) scale(0.084 -0.084)">
       <defs>
        <path id="DejaVuSans-18" d="M 691 4666 
L 3169 4666 
L 3169 4134 
L 1269 4134 
L 1269 2991 
Q 1406 3038 1543 3061 
Q 1681 3084 1819 3084 
Q 2600 3084 3056 2656 
Q 3513 2228 3513 1497 
Q 3513 744 3044 326 
Q 2575 -91 1722 -91 
Q 1428 -91 1123 -41 
Q 819 9 494 109 
L 494 744 
Q 775 591 1075 516 
Q 1375 441 1709 441 
Q 2250 441 2565 725 
Q 2881 1009 2881 1497 
Q 2881 1984 2565 2268 
Q 2250 2553 1709 2553 
Q 1456 2553 1204 2497 
Q 953 2441 691 2322 
L 691 4666 
z
" transform="scale(0.015625)"/>
       </defs>
       <use xlink:href="#DejaVuSans-14"/>
       <use xlink:href="#DejaVuSans-11" transform="translate(63.625 0)"/>
       <use xlink:href="#DejaVuSans-18" transform="translate(95.40625 0)"/>
      </g>
     </g>
    </g>
    <g id="xtick_3">
     <g id="line2d_3">
      <g>
       <use xlink:href="#mb4d94d75e5" x="137.132814" y="169.750633" style="stroke: #000000; stroke-width: 0.8"/>
      </g>
     </g>
     <g id="text_3">
      <!-- 2.0 -->
      <g transform="translate(130.453502 183.132664) scale(0.084 -0.084)">
       <defs>
        <path id="DejaVuSans-15" d="M 1228 531 
L 3431 531 
L 3431 0 
L 469 0 
L 469 531 
Q 828 903 1448 1529 
Q 2069 2156 2228 2338 
Q 2531 2678 2651 2914 
Q 2772 3150 2772 3378 
Q 2772 3750 2511 3984 
Q 2250 4219 1831 4219 
Q 1534 4219 1204 4116 
Q 875 4013 500 3803 
L 500 4441 
Q 881 4594 1212 4672 
Q 1544 4750 1819 4750 
Q 2544 4750 2975 4387 
Q 3406 4025 3406 3419 
Q 3406 3131 3298 2873 
Q 3191 2616 2906 2266 
Q 2828 2175 2409 1742 
Q 1991 1309 1228 531 
z
" transform="scale(0.015625)"/>
       </defs>
       <use xlink:href="#DejaVuSans-15"/>
       <use xlink:href="#DejaVuSans-11" transform="translate(63.625 0)"/>
       <use xlink:href="#DejaVuSans-13" transform="translate(95.40625 0)"/>
      </g>
     </g>
    </g>
    <g id="xtick_4">
     <g id="line2d_4">
      <g>
       <use xlink:href="#mb4d94d75e5" x="182.253284" y="169.750633" style="stroke: #000000; stroke-width: 0.8"/>
      </g>
     </g>
     <g id="text_4">
      <!-- 2.5 -->
      <g transform="translate(175.573972 183.132664) scale(0.084 -0.084)">
       <use xlink:href="#DejaVuSans-15"/>
       <use xlink:href="#DejaVuSans-11" transform="translate(63.625 0)"/>
       <use xlink:href="#DejaVuSans-18" transform="translate(95.40625 0)"/>
      </g>
     </g>
    </g>
    <g id="xtick_5">
     <g id="line2d_5">
      <g>
       <use xlink:href="#mb4d94d75e5" x="227.373754" y="169.750633" style="stroke: #000000; stroke-width: 0.8"/>
      </g>
     </g>
     <g id="text_5">
      <!-- 3.0 -->
      <g transform="translate(220.694441 183.132664) scale(0.084 -0.084)">
       <defs>
        <path id="DejaVuSans-16" d="M 2597 2516 
Q 3050 2419 3304 2112 
Q 3559 1806 3559 1356 
Q 3559 666 3084 287 
Q 2609 -91 1734 -91 
Q 1441 -91 1130 -33 
Q 819 25 488 141 
L 488 750 
Q 750 597 1062 519 
Q 1375 441 1716 441 
Q 2309 441 2620 675 
Q 2931 909 2931 1356 
Q 2931 1769 2642 2001 
Q 2353 2234 1838 2234 
L 1294 2234 
L 1294 2753 
L 1863 2753 
Q 2328 2753 2575 2939 
Q 2822 3125 2822 3475 
Q 2822 3834 2567 4026 
Q 2313 4219 1838 4219 
Q 1578 4219 1281 4162 
Q 984 4106 628 3988 
L 628 4550 
Q 988 4650 1302 4700 
Q 1616 4750 1894 4750 
Q 2613 4750 3031 4423 
Q 3450 4097 3450 3541 
Q 3450 3153 3228 2886 
Q 3006 2619 2597 2516 
z
" transform="scale(0.015625)"/>
       </defs>
       <use xlink:href="#DejaVuSans-16"/>
       <use xlink:href="#DejaVuSans-11" transform="translate(63.625 0)"/>
       <use xlink:href="#DejaVuSans-13" transform="translate(95.40625 0)"/>
      </g>
     </g>
    </g>
    <g id="text_6">
     <!-- Relative standardized distance -->
     <g transform="translate(78.954079 196.521117) scale(0.097 -0.097)">
      <defs>
       <path id="DejaVuSans-35" d="M 2841 2188 
Q 3044 2119 3236 1894 
Q 3428 1669 3622 1275 
L 4263 0 
L 3584 0 
L 2988 1197 
Q 2756 1666 2539 1819 
Q 2322 1972 1947 1972 
L 1259 1972 
L 1259 0 
L 628 0 
L 628 4666 
L 2053 4666 
Q 2853 4666 3247 4331 
Q 3641 3997 3641 3322 
Q 3641 2881 3436 2590 
Q 3231 2300 2841 2188 
z
M 1259 4147 
L 1259 2491 
L 2053 2491 
Q 2509 2491 2742 2702 
Q 2975 2913 2975 3322 
Q 2975 3731 2742 3939 
Q 2509 4147 2053 4147 
L 1259 4147 
z
" transform="scale(0.015625)"/>
       <path id="DejaVuSans-48" d="M 3597 1894 
L 3597 1613 
L 953 1613 
Q 991 1019 1311 708 
Q 1631 397 2203 397 
Q 2534 397 2845 478 
Q 3156 559 3463 722 
L 3463 178 
Q 3153 47 2828 -22 
Q 2503 -91 2169 -91 
Q 1331 -91 842 396 
Q 353 884 353 1716 
Q 353 2575 817 3079 
Q 1281 3584 2069 3584 
Q 2775 3584 3186 3129 
Q 3597 2675 3597 1894 
z
M 3022 2063 
Q 3016 2534 2758 2815 
Q 2500 3097 2075 3097 
Q 1594 3097 1305 2825 
Q 1016 2553 972 2059 
L 3022 2063 
z
" transform="scale(0.015625)"/>
       <path id="DejaVuSans-4f" d="M 603 4863 
L 1178 4863 
L 1178 0 
L 603 0 
L 603 4863 
z
" transform="scale(0.015625)"/>
       <path id="DejaVuSans-44" d="M 2194 1759 
Q 1497 1759 1228 1600 
Q 959 1441 959 1056 
Q 959 750 1161 570 
Q 1363 391 1709 391 
Q 2188 391 2477 730 
Q 2766 1069 2766 1631 
L 2766 1759 
L 2194 1759 
z
M 3341 1997 
L 3341 0 
L 2766 0 
L 2766 531 
Q 2569 213 2275 61 
Q 1981 -91 1556 -91 
Q 1019 -91 701 211 
Q 384 513 384 1019 
Q 384 1609 779 1909 
Q 1175 2209 1959 2209 
L 2766 2209 
L 2766 2266 
Q 2766 2663 2505 2880 
Q 2244 3097 1772 3097 
Q 1472 3097 1187 3025 
Q 903 2953 641 2809 
L 641 3341 
Q 956 3463 1253 3523 
Q 1550 3584 1831 3584 
Q 2591 3584 2966 3190 
Q 3341 2797 3341 1997 
z
" transform="scale(0.015625)"/>
       <path id="DejaVuSans-57" d="M 1172 4494 
L 1172 3500 
L 2356 3500 
L 2356 3053 
L 1172 3053 
L 1172 1153 
Q 1172 725 1289 603 
Q 1406 481 1766 481 
L 2356 481 
L 2356 0 
L 1766 0 
Q 1100 0 847 248 
Q 594 497 594 1153 
L 594 3053 
L 172 3053 
L 172 3500 
L 594 3500 
L 594 4494 
L 1172 4494 
z
" transform="scale(0.015625)"/>
       <path id="DejaVuSans-4c" d="M 603 3500 
L 1178 3500 
L 1178 0 
L 603 0 
L 603 3500 
z
M 603 4863 
L 1178 4863 
L 1178 4134 
L 603 4134 
L 603 4863 
z
" transform="scale(0.015625)"/>
       <path id="DejaVuSans-59" d="M 191 3500 
L 800 3500 
L 1894 563 
L 2988 3500 
L 3597 3500 
L 2284 0 
L 1503 0 
L 191 3500 
z
" transform="scale(0.015625)"/>
       <path id="DejaVuSans-3" transform="scale(0.015625)"/>
       <path id="DejaVuSans-56" d="M 2834 3397 
L 2834 2853 
Q 2591 2978 2328 3040 
Q 2066 3103 1784 3103 
Q 1356 3103 1142 2972 
Q 928 2841 928 2578 
Q 928 2378 1081 2264 
Q 1234 2150 1697 2047 
L 1894 2003 
Q 2506 1872 2764 1633 
Q 3022 1394 3022 966 
Q 3022 478 2636 193 
Q 2250 -91 1575 -91 
Q 1294 -91 989 -36 
Q 684 19 347 128 
L 347 722 
Q 666 556 975 473 
Q 1284 391 1588 391 
Q 1994 391 2212 530 
Q 2431 669 2431 922 
Q 2431 1156 2273 1281 
Q 2116 1406 1581 1522 
L 1381 1569 
Q 847 1681 609 1914 
Q 372 2147 372 2553 
Q 372 3047 722 3315 
Q 1072 3584 1716 3584 
Q 2034 3584 2315 3537 
Q 2597 3491 2834 3397 
z
" transform="scale(0.015625)"/>
       <path id="DejaVuSans-51" d="M 3513 2113 
L 3513 0 
L 2938 0 
L 2938 2094 
Q 2938 2591 2744 2837 
Q 2550 3084 2163 3084 
Q 1697 3084 1428 2787 
Q 1159 2491 1159 1978 
L 1159 0 
L 581 0 
L 581 3500 
L 1159 3500 
L 1159 2956 
Q 1366 3272 1645 3428 
Q 1925 3584 2291 3584 
Q 2894 3584 3203 3211 
Q 3513 2838 3513 2113 
z
" transform="scale(0.015625)"/>
       <path id="DejaVuSans-47" d="M 2906 2969 
L 2906 4863 
L 3481 4863 
L 3481 0 
L 2906 0 
L 2906 525 
Q 2725 213 2448 61 
Q 2172 -91 1784 -91 
Q 1150 -91 751 415 
Q 353 922 353 1747 
Q 353 2572 751 3078 
Q 1150 3584 1784 3584 
Q 2172 3584 2448 3432 
Q 2725 3281 2906 2969 
z
M 947 1747 
Q 947 1113 1208 752 
Q 1469 391 1925 391 
Q 2381 391 2643 752 
Q 2906 1113 2906 1747 
Q 2906 2381 2643 2742 
Q 2381 3103 1925 3103 
Q 1469 3103 1208 2742 
Q 947 2381 947 1747 
z
" transform="scale(0.015625)"/>
       <path id="DejaVuSans-55" d="M 2631 2963 
Q 2534 3019 2420 3045 
Q 2306 3072 2169 3072 
Q 1681 3072 1420 2755 
Q 1159 2438 1159 1844 
L 1159 0 
L 581 0 
L 581 3500 
L 1159 3500 
L 1159 2956 
Q 1341 3275 1631 3429 
Q 1922 3584 2338 3584 
Q 2397 3584 2469 3576 
Q 2541 3569 2628 3553 
L 2631 2963 
z
" transform="scale(0.015625)"/>
       <path id="DejaVuSans-5d" d="M 353 3500 
L 3084 3500 
L 3084 2975 
L 922 459 
L 3084 459 
L 3084 0 
L 275 0 
L 275 525 
L 2438 3041 
L 353 3041 
L 353 3500 
z
" transform="scale(0.015625)"/>
       <path id="DejaVuSans-46" d="M 3122 3366 
L 3122 2828 
Q 2878 2963 2633 3030 
Q 2388 3097 2138 3097 
Q 1578 3097 1268 2742 
Q 959 2388 959 1747 
Q 959 1106 1268 751 
Q 1578 397 2138 397 
Q 2388 397 2633 464 
Q 2878 531 3122 666 
L 3122 134 
Q 2881 22 2623 -34 
Q 2366 -91 2075 -91 
Q 1284 -91 818 406 
Q 353 903 353 1747 
Q 353 2603 823 3093 
Q 1294 3584 2113 3584 
Q 2378 3584 2631 3529 
Q 2884 3475 3122 3366 
z
" transform="scale(0.015625)"/>
      </defs>
      <use xlink:href="#DejaVuSans-35"/>
      <use xlink:href="#DejaVuSans-48" transform="translate(65 0)"/>
      <use xlink:href="#DejaVuSans-4f" transform="translate(126.53125 0)"/>
      <use xlink:href="#DejaVuSans-44" transform="translate(154.3125 0)"/>
      <use xlink:href="#DejaVuSans-57" transform="translate(215.59375 0)"/>
      <use xlink:href="#DejaVuSans-4c" transform="translate(254.796875 0)"/>
      <use xlink:href="#DejaVuSans-59" transform="translate(282.578125 0)"/>
      <use xlink:href="#DejaVuSans-48" transform="translate(341.765625 0)"/>
      <use xlink:href="#DejaVuSans-3" transform="translate(403.296875 0)"/>
      <use xlink:href="#DejaVuSans-56" transform="translate(435.078125 0)"/>
      <use xlink:href="#DejaVuSans-57" transform="translate(487.171875 0)"/>
      <use xlink:href="#DejaVuSans-44" transform="translate(526.375 0)"/>
      <use xlink:href="#DejaVuSans-51" transform="translate(587.65625 0)"/>
      <use xlink:href="#DejaVuSans-47" transform="translate(651.03125 0)"/>
      <use xlink:href="#DejaVuSans-44" transform="translate(714.515625 0)"/>
      <use xlink:href="#DejaVuSans-55" transform="translate(775.796875 0)"/>
      <use xlink:href="#DejaVuSans-47" transform="translate(815.15625 0)"/>
      <use xlink:href="#DejaVuSans-4c" transform="translate(878.640625 0)"/>
      <use xlink:href="#DejaVuSans-5d" transform="translate(906.421875 0)"/>
      <use xlink:href="#DejaVuSans-48" transform="translate(958.90625 0)"/>
      <use xlink:href="#DejaVuSans-47" transform="translate(1020.4375 0)"/>
      <use xlink:href="#DejaVuSans-3" transform="translate(1083.921875 0)"/>
      <use xlink:href="#DejaVuSans-47" transform="translate(1115.703125 0)"/>
      <use xlink:href="#DejaVuSans-4c" transform="translate(1179.1875 0)"/>
      <use xlink:href="#DejaVuSans-56" transform="translate(1206.96875 0)"/>
      <use xlink:href="#DejaVuSans-57" transform="translate(1259.0625 0)"/>
      <use xlink:href="#DejaVuSans-44" transform="translate(1298.265625 0)"/>
      <use xlink:href="#DejaVuSans-51" transform="translate(1359.546875 0)"/>
      <use xlink:href="#DejaVuSans-46" transform="translate(1422.921875 0)"/>
      <use xlink:href="#DejaVuSans-48" transform="translate(1477.90625 0)"/>
     </g>
    </g>
   </g>
   <g id="matplotlib.axis_2">
    <g id="ytick_1">
     <g id="line2d_6">
      <path d="M 36.219383 162.669885 
L 271.014212 162.669885 
" clip-path="url(#p1355e03ef6)" style="fill: none; stroke-dasharray: 1.665,0.72; stroke-dashoffset: 0; stroke: #b0b0b0; stroke-opacity: 0.33; stroke-width: 0.45"/>
     </g>
     <g id="line2d_7">
      <defs>
       <path id="m312561f5cf" d="M 0 0 
L -3.5 0 
" style="stroke: #000000; stroke-width: 0.8"/>
      </defs>
      <g>
       <use xlink:href="#m312561f5cf" x="36.219383" y="162.669885" style="stroke: #000000; stroke-width: 0.8"/>
      </g>
     </g>
     <g id="text_7">
      <!-- 1.0 -->
      <g transform="translate(15.860758 165.860901) scale(0.084 -0.084)">
       <use xlink:href="#DejaVuSans-14"/>
       <use xlink:href="#DejaVuSans-11" transform="translate(63.625 0)"/>
       <use xlink:href="#DejaVuSans-13" transform="translate(95.40625 0)"/>
      </g>
     </g>
    </g>
    <g id="ytick_2">
     <g id="line2d_8">
      <path d="M 36.219383 136.476022 
L 271.014212 136.476022 
" clip-path="url(#p1355e03ef6)" style="fill: none; stroke-dasharray: 1.665,0.72; stroke-dashoffset: 0; stroke: #b0b0b0; stroke-opacity: 0.33; stroke-width: 0.45"/>
     </g>
     <g id="line2d_9">
      <g>
       <use xlink:href="#m312561f5cf" x="36.219383" y="136.476022" style="stroke: #000000; stroke-width: 0.8"/>
      </g>
     </g>
     <g id="text_8">
      <!-- 1.5 -->
      <g transform="translate(15.860758 139.667037) scale(0.084 -0.084)">
       <use xlink:href="#DejaVuSans-14"/>
       <use xlink:href="#DejaVuSans-11" transform="translate(63.625 0)"/>
       <use xlink:href="#DejaVuSans-18" transform="translate(95.40625 0)"/>
      </g>
     </g>
    </g>
    <g id="ytick_3">
     <g id="line2d_10">
      <path d="M 36.219383 110.282158 
L 271.014212 110.282158 
" clip-path="url(#p1355e03ef6)" style="fill: none; stroke-dasharray: 1.665,0.72; stroke-dashoffset: 0; stroke: #b0b0b0; stroke-opacity: 0.33; stroke-width: 0.45"/>
     </g>
     <g id="line2d_11">
      <g>
       <use xlink:href="#m312561f5cf" x="36.219383" y="110.282158" style="stroke: #000000; stroke-width: 0.8"/>
      </g>
     </g>
     <g id="text_9">
      <!-- 2.0 -->
      <g transform="translate(15.860758 113.473174) scale(0.084 -0.084)">
       <use xlink:href="#DejaVuSans-15"/>
       <use xlink:href="#DejaVuSans-11" transform="translate(63.625 0)"/>
       <use xlink:href="#DejaVuSans-13" transform="translate(95.40625 0)"/>
      </g>
     </g>
    </g>
    <g id="ytick_4">
     <g id="line2d_12">
      <path d="M 36.219383 84.088294 
L 271.014212 84.088294 
" clip-path="url(#p1355e03ef6)" style="fill: none; stroke-dasharray: 1.665,0.72; stroke-dashoffset: 0; stroke: #b0b0b0; stroke-opacity: 0.33; stroke-width: 0.45"/>
     </g>
     <g id="line2d_13">
      <g>
       <use xlink:href="#m312561f5cf" x="36.219383" y="84.088294" style="stroke: #000000; stroke-width: 0.8"/>
      </g>
     </g>
     <g id="text_10">
      <!-- 2.5 -->
      <g transform="translate(15.860758 87.27931) scale(0.084 -0.084)">
       <use xlink:href="#DejaVuSans-15"/>
       <use xlink:href="#DejaVuSans-11" transform="translate(63.625 0)"/>
       <use xlink:href="#DejaVuSans-18" transform="translate(95.40625 0)"/>
      </g>
     </g>
    </g>
    <g id="ytick_5">
     <g id="line2d_14">
      <path d="M 36.219383 57.89443 
L 271.014212 57.89443 
" clip-path="url(#p1355e03ef6)" style="fill: none; stroke-dasharray: 1.665,0.72; stroke-dashoffset: 0; stroke: #b0b0b0; stroke-opacity: 0.33; stroke-width: 0.45"/>
     </g>
     <g id="line2d_15">
      <g>
       <use xlink:href="#m312561f5cf" x="36.219383" y="57.89443" style="stroke: #000000; stroke-width: 0.8"/>
      </g>
     </g>
     <g id="text_11">
      <!-- 3.0 -->
      <g transform="translate(15.860758 61.085446) scale(0.084 -0.084)">
       <use xlink:href="#DejaVuSans-16"/>
       <use xlink:href="#DejaVuSans-11" transform="translate(63.625 0)"/>
       <use xlink:href="#DejaVuSans-13" transform="translate(95.40625 0)"/>
      </g>
     </g>
    </g>
    <g id="ytick_6">
     <g id="line2d_16">
      <path d="M 36.219383 31.700567 
L 271.014212 31.700567 
" clip-path="url(#p1355e03ef6)" style="fill: none; stroke-dasharray: 1.665,0.72; stroke-dashoffset: 0; stroke: #b0b0b0; stroke-opacity: 0.33; stroke-width: 0.45"/>
     </g>
     <g id="line2d_17">
      <g>
       <use xlink:href="#m312561f5cf" x="36.219383" y="31.700567" style="stroke: #000000; stroke-width: 0.8"/>
      </g>
     </g>
     <g id="text_12">
      <!-- 3.5 -->
      <g transform="translate(15.860758 34.891582) scale(0.084 -0.084)">
       <use xlink:href="#DejaVuSans-16"/>
       <use xlink:href="#DejaVuSans-11" transform="translate(63.625 0)"/>
       <use xlink:href="#DejaVuSans-18" transform="translate(95.40625 0)"/>
      </g>
     </g>
    </g>
    <g id="text_13">
     <!-- Relative magnitude -->
     <g transform="translate(9.530484 139.19841) rotate(-90) scale(0.097 -0.097)">
      <defs>
       <path id="DejaVuSans-50" d="M 3328 2828 
Q 3544 3216 3844 3400 
Q 4144 3584 4550 3584 
Q 5097 3584 5394 3201 
Q 5691 2819 5691 2113 
L 5691 0 
L 5113 0 
L 5113 2094 
Q 5113 2597 4934 2840 
Q 4756 3084 4391 3084 
Q 3944 3084 3684 2787 
Q 3425 2491 3425 1978 
L 3425 0 
L 2847 0 
L 2847 2094 
Q 2847 2600 2669 2842 
Q 2491 3084 2119 3084 
Q 1678 3084 1418 2786 
Q 1159 2488 1159 1978 
L 1159 0 
L 581 0 
L 581 3500 
L 1159 3500 
L 1159 2956 
Q 1356 3278 1631 3431 
Q 1906 3584 2284 3584 
Q 2666 3584 2933 3390 
Q 3200 3197 3328 2828 
z
" transform="scale(0.015625)"/>
       <path id="DejaVuSans-4a" d="M 2906 1791 
Q 2906 2416 2648 2759 
Q 2391 3103 1925 3103 
Q 1463 3103 1205 2759 
Q 947 2416 947 1791 
Q 947 1169 1205 825 
Q 1463 481 1925 481 
Q 2391 481 2648 825 
Q 2906 1169 2906 1791 
z
M 3481 434 
Q 3481 -459 3084 -895 
Q 2688 -1331 1869 -1331 
Q 1566 -1331 1297 -1286 
Q 1028 -1241 775 -1147 
L 775 -588 
Q 1028 -725 1275 -790 
Q 1522 -856 1778 -856 
Q 2344 -856 2625 -561 
Q 2906 -266 2906 331 
L 2906 616 
Q 2728 306 2450 153 
Q 2172 0 1784 0 
Q 1141 0 747 490 
Q 353 981 353 1791 
Q 353 2603 747 3093 
Q 1141 3584 1784 3584 
Q 2172 3584 2450 3431 
Q 2728 3278 2906 2969 
L 2906 3500 
L 3481 3500 
L 3481 434 
z
" transform="scale(0.015625)"/>
       <path id="DejaVuSans-58" d="M 544 1381 
L 544 3500 
L 1119 3500 
L 1119 1403 
Q 1119 906 1312 657 
Q 1506 409 1894 409 
Q 2359 409 2629 706 
Q 2900 1003 2900 1516 
L 2900 3500 
L 3475 3500 
L 3475 0 
L 2900 0 
L 2900 538 
Q 2691 219 2414 64 
Q 2138 -91 1772 -91 
Q 1169 -91 856 284 
Q 544 659 544 1381 
z
M 1991 3584 
L 1991 3584 
z
" transform="scale(0.015625)"/>
      </defs>
      <use xlink:href="#DejaVuSans-35"/>
      <use xlink:href="#DejaVuSans-48" transform="translate(65 0)"/>
      <use xlink:href="#DejaVuSans-4f" transform="translate(126.53125 0)"/>
      <use xlink:href="#DejaVuSans-44" transform="translate(154.3125 0)"/>
      <use xlink:href="#DejaVuSans-57" transform="translate(215.59375 0)"/>
      <use xlink:href="#DejaVuSans-4c" transform="translate(254.796875 0)"/>
      <use xlink:href="#DejaVuSans-59" transform="translate(282.578125 0)"/>
      <use xlink:href="#DejaVuSans-48" transform="translate(341.765625 0)"/>
      <use xlink:href="#DejaVuSans-3" transform="translate(403.296875 0)"/>
      <use xlink:href="#DejaVuSans-50" transform="translate(435.078125 0)"/>
      <use xlink:href="#DejaVuSans-44" transform="translate(532.484375 0)"/>
      <use xlink:href="#DejaVuSans-4a" transform="translate(593.765625 0)"/>
      <use xlink:href="#DejaVuSans-51" transform="translate(657.25 0)"/>
      <use xlink:href="#DejaVuSans-4c" transform="translate(720.625 0)"/>
      <use xlink:href="#DejaVuSans-57" transform="translate(748.40625 0)"/>
      <use xlink:href="#DejaVuSans-58" transform="translate(787.609375 0)"/>
      <use xlink:href="#DejaVuSans-47" transform="translate(850.984375 0)"/>
      <use xlink:href="#DejaVuSans-48" transform="translate(914.46875 0)"/>
     </g>
    </g>
   </g>
   <g id="line2d_18">
    <path d="M 46.891875 162.669885 
L 77.38471 144.112512 
L 107.877545 125.55514 
L 138.37038 106.99249 
L 168.863215 88.467325 
L 199.35605 68.670114 
L 229.848885 47.45144 
L 260.34172 28.342559 
" clip-path="url(#p1355e03ef6)" style="fill: none; stroke: #1f77b4; stroke-width: 1.75; stroke-linecap: square"/>
    <defs>
     <path id="m20fa4f9f30" d="M 0 2.1 
C 0.556927 2.1 1.091118 1.878731 1.484924 1.484924 
C 1.878731 1.091118 2.1 0.556927 2.1 0 
C 2.1 -0.556927 1.878731 -1.091118 1.484924 -1.484924 
C 1.091118 -1.878731 0.556927 -2.1 0 -2.1 
C -0.556927 -2.1 -1.091118 -1.878731 -1.484924 -1.484924 
C -1.878731 -1.091118 -2.1 -0.556927 -2.1 0 
C -2.1 0.556927 -1.878731 1.091118 -1.484924 1.484924 
C -1.091118 1.878731 -0.556927 2.1 0 2.1 
z
" style="stroke: #1f77b4"/>
    </defs>
    <g clip-path="url(#p1355e03ef6)">
     <use xlink:href="#m20fa4f9f30" x="46.891875" y="162.669885" style="fill: #1f77b4; stroke: #1f77b4"/>
     <use xlink:href="#m20fa4f9f30" x="77.38471" y="144.112512" style="fill: #1f77b4; stroke: #1f77b4"/>
     <use xlink:href="#m20fa4f9f30" x="107.877545" y="125.55514" style="fill: #1f77b4; stroke: #1f77b4"/>
     <use xlink:href="#m20fa4f9f30" x="138.37038" y="106.99249" style="fill: #1f77b4; stroke: #1f77b4"/>
     <use xlink:href="#m20fa4f9f30" x="168.863215" y="88.467325" style="fill: #1f77b4; stroke: #1f77b4"/>
     <use xlink:href="#m20fa4f9f30" x="199.35605" y="68.670114" style="fill: #1f77b4; stroke: #1f77b4"/>
     <use xlink:href="#m20fa4f9f30" x="229.848885" y="47.45144" style="fill: #1f77b4; stroke: #1f77b4"/>
     <use xlink:href="#m20fa4f9f30" x="260.34172" y="28.342559" style="fill: #1f77b4; stroke: #1f77b4"/>
    </g>
   </g>
   <g id="line2d_19">
    <path d="M 36.219383 162.669885 
L 271.014212 162.669885 
" clip-path="url(#p1355e03ef6)" style="fill: none; stroke-dasharray: 1,1.65; stroke-dashoffset: 0; stroke: #1f77b4"/>
   </g>
   <g id="patch_3">
    <path d="M 36.219383 169.750633 
L 36.219383 13.974187 
" style="fill: none; stroke: #000000; stroke-width: 0.8; stroke-linejoin: miter; stroke-linecap: square"/>
   </g>
   <g id="patch_4">
    <path d="M 36.219383 169.750633 
L 271.014212 169.750633 
" style="fill: none; stroke: #000000; stroke-width: 0.8; stroke-linejoin: miter; stroke-linecap: square"/>
   </g>
   <g id="text_14">
    <!-- 9 datasets × 10 seeds -->
    <g transform="translate(44.437202 27.605676) scale(0.077 -0.077)">
     <defs>
      <path id="DejaVuSans-1c" d="M 703 97 
L 703 672 
Q 941 559 1184 500 
Q 1428 441 1663 441 
Q 2288 441 2617 861 
Q 2947 1281 2994 2138 
Q 2813 1869 2534 1725 
Q 2256 1581 1919 1581 
Q 1219 1581 811 2004 
Q 403 2428 403 3163 
Q 403 3881 828 4315 
Q 1253 4750 1959 4750 
Q 2769 4750 3195 4129 
Q 3622 3509 3622 2328 
Q 3622 1225 3098 567 
Q 2575 -91 1691 -91 
Q 1453 -91 1209 -44 
Q 966 3 703 97 
z
M 1959 2075 
Q 2384 2075 2632 2365 
Q 2881 2656 2881 3163 
Q 2881 3666 2632 3958 
Q 2384 4250 1959 4250 
Q 1534 4250 1286 3958 
Q 1038 3666 1038 3163 
Q 1038 2656 1286 2365 
Q 1534 2075 1959 2075 
z
" transform="scale(0.015625)"/>
      <path id="DejaVuSans-99" d="M 4488 3438 
L 3059 2003 
L 4488 575 
L 4116 197 
L 2681 1631 
L 1247 197 
L 878 575 
L 2303 2003 
L 878 3438 
L 1247 3816 
L 2681 2381 
L 4116 3816 
L 4488 3438 
z
" transform="scale(0.015625)"/>
     </defs>
     <use xlink:href="#DejaVuSans-1c"/>
     <use xlink:href="#DejaVuSans-3" transform="translate(63.625 0)"/>
     <use xlink:href="#DejaVuSans-47" transform="translate(95.40625 0)"/>
     <use xlink:href="#DejaVuSans-44" transform="translate(158.890625 0)"/>
     <use xlink:href="#DejaVuSans-57" transform="translate(220.171875 0)"/>
     <use xlink:href="#DejaVuSans-44" transform="translate(259.375 0)"/>
     <use xlink:href="#DejaVuSans-56" transform="translate(320.65625 0)"/>
     <use xlink:href="#DejaVuSans-48" transform="translate(372.75 0)"/>
     <use xlink:href="#DejaVuSans-57" transform="translate(434.28125 0)"/>
     <use xlink:href="#DejaVuSans-56" transform="translate(473.484375 0)"/>
     <use xlink:href="#DejaVuSans-3" transform="translate(525.578125 0)"/>
     <use xlink:href="#DejaVuSans-99" transform="translate(557.359375 0)"/>
     <use xlink:href="#DejaVuSans-3" transform="translate(641.15625 0)"/>
     <use xlink:href="#DejaVuSans-14" transform="translate(672.9375 0)"/>
     <use xlink:href="#DejaVuSans-13" transform="translate(736.5625 0)"/>
     <use xlink:href="#DejaVuSans-3" transform="translate(800.1875 0)"/>
     <use xlink:href="#DejaVuSans-56" transform="translate(831.96875 0)"/>
     <use xlink:href="#DejaVuSans-48" transform="translate(884.0625 0)"/>
     <use xlink:href="#DejaVuSans-48" transform="translate(945.59375 0)"/>
     <use xlink:href="#DejaVuSans-47" transform="translate(1007.125 0)"/>
     <use xlink:href="#DejaVuSans-56" transform="translate(1070.609375 0)"/>
    </g>
    <!-- pair-matched $|A|$ far/near = 1.000 -->
    <g transform="translate(44.437202 36.925985) scale(0.077 -0.077)">
     <defs>
      <path id="DejaVuSans-53" d="M 1159 525 
L 1159 -1331 
L 581 -1331 
L 581 3500 
L 1159 3500 
L 1159 2969 
Q 1341 3281 1617 3432 
Q 1894 3584 2278 3584 
Q 2916 3584 3314 3078 
Q 3713 2572 3713 1747 
Q 3713 922 3314 415 
Q 2916 -91 2278 -91 
Q 1894 -91 1617 61 
Q 1341 213 1159 525 
z
M 3116 1747 
Q 3116 2381 2855 2742 
Q 2594 3103 2138 3103 
Q 1681 3103 1420 2742 
Q 1159 2381 1159 1747 
Q 1159 1113 1420 752 
Q 1681 391 2138 391 
Q 2594 391 2855 752 
Q 3116 1113 3116 1747 
z
" transform="scale(0.015625)"/>
      <path id="DejaVuSans-10" d="M 313 2009 
L 1997 2009 
L 1997 1497 
L 313 1497 
L 313 2009 
z
" transform="scale(0.015625)"/>
      <path id="DejaVuSans-4b" d="M 3513 2113 
L 3513 0 
L 2938 0 
L 2938 2094 
Q 2938 2591 2744 2837 
Q 2550 3084 2163 3084 
Q 1697 3084 1428 2787 
Q 1159 2491 1159 1978 
L 1159 0 
L 581 0 
L 581 4863 
L 1159 4863 
L 1159 2956 
Q 1366 3272 1645 3428 
Q 1925 3584 2291 3584 
Q 2894 3584 3203 3211 
Q 3513 2838 3513 2113 
z
" transform="scale(0.015625)"/>
      <path id="DejaVuSans-5f" d="M 1344 4891 
L 1344 -1509 
L 813 -1509 
L 813 4891 
L 1344 4891 
z
" transform="scale(0.015625)"/>
      <path id="DejaVuSans-Oblique-24" d="M 2356 4666 
L 3072 4666 
L 3938 0 
L 3278 0 
L 3084 1197 
L 984 1197 
L 325 0 
L -341 0 
L 2356 4666 
z
M 2584 4044 
L 1275 1722 
L 2988 1722 
L 2584 4044 
z
" transform="scale(0.015625)"/>
      <path id="DejaVuSans-49" d="M 2375 4863 
L 2375 4384 
L 1825 4384 
Q 1516 4384 1395 4259 
Q 1275 4134 1275 3809 
L 1275 3500 
L 2222 3500 
L 2222 3053 
L 1275 3053 
L 1275 0 
L 697 0 
L 697 3053 
L 147 3053 
L 147 3500 
L 697 3500 
L 697 3744 
Q 697 4328 969 4595 
Q 1241 4863 1831 4863 
L 2375 4863 
z
" transform="scale(0.015625)"/>
      <path id="DejaVuSans-12" d="M 1625 4666 
L 2156 4666 
L 531 -594 
L 0 -594 
L 1625 4666 
z
" transform="scale(0.015625)"/>
      <path id="DejaVuSans-20" d="M 678 2906 
L 4684 2906 
L 4684 2381 
L 678 2381 
L 678 2906 
z
M 678 1631 
L 4684 1631 
L 4684 1100 
L 678 1100 
L 678 1631 
z
" transform="scale(0.015625)"/>
     </defs>
     <use xlink:href="#DejaVuSans-53" transform="translate(0 0.578125)"/>
     <use xlink:href="#DejaVuSans-44" transform="translate(63.476562 0.578125)"/>
     <use xlink:href="#DejaVuSans-4c" transform="translate(124.755859 0.578125)"/>
     <use xlink:href="#DejaVuSans-55" transform="translate(152.539062 0.578125)"/>
     <use xlink:href="#DejaVuSans-10" transform="translate(187.652344 0.578125)"/>
     <use xlink:href="#DejaVuSans-50" transform="translate(223.736328 0.578125)"/>
     <use xlink:href="#DejaVuSans-44" transform="translate(321.148438 0.578125)"/>
     <use xlink:href="#DejaVuSans-57" transform="translate(382.427734 0.578125)"/>
     <use xlink:href="#DejaVuSans-46" transform="translate(421.636719 0.578125)"/>
     <use xlink:href="#DejaVuSans-4b" transform="translate(476.617188 0.578125)"/>
     <use xlink:href="#DejaVuSans-48" transform="translate(539.996094 0.578125)"/>
     <use xlink:href="#DejaVuSans-47" transform="translate(601.519531 0.578125)"/>
     <use xlink:href="#DejaVuSans-3" transform="translate(664.996094 0.578125)"/>
     <use xlink:href="#DejaVuSans-5f" transform="translate(696.783203 0.578125)"/>
     <use xlink:href="#DejaVuSans-Oblique-24" transform="translate(730.474609 0.578125)"/>
     <use xlink:href="#DejaVuSans-5f" transform="translate(798.882812 0.578125)"/>
     <use xlink:href="#DejaVuSans-3" transform="translate(832.574219 0.578125)"/>
     <use xlink:href="#DejaVuSans-49" transform="translate(864.361328 0.578125)"/>
     <use xlink:href="#DejaVuSans-44" transform="translate(899.566406 0.578125)"/>
     <use xlink:href="#DejaVuSans-55" transform="translate(960.845703 0.578125)"/>
     <use xlink:href="#DejaVuSans-12" transform="translate(1001.958984 0.578125)"/>
     <use xlink:href="#DejaVuSans-51" transform="translate(1035.650391 0.578125)"/>
     <use xlink:href="#DejaVuSans-48" transform="translate(1099.029297 0.578125)"/>
     <use xlink:href="#DejaVuSans-44" transform="translate(1160.552734 0.578125)"/>
     <use xlink:href="#DejaVuSans-55" transform="translate(1221.832031 0.578125)"/>
     <use xlink:href="#DejaVuSans-3" transform="translate(1262.945312 0.578125)"/>
     <use xlink:href="#DejaVuSans-20" transform="translate(1294.732422 0.578125)"/>
     <use xlink:href="#DejaVuSans-3" transform="translate(1378.521484 0.578125)"/>
     <use xlink:href="#DejaVuSans-14" transform="translate(1410.308594 0.578125)"/>
     <use xlink:href="#DejaVuSans-11" transform="translate(1473.931641 0.578125)"/>
     <use xlink:href="#DejaVuSans-13" transform="translate(1505.71875 0.578125)"/>
     <use xlink:href="#DejaVuSans-13" transform="translate(1569.341797 0.578125)"/>
     <use xlink:href="#DejaVuSans-13" transform="translate(1632.964844 0.578125)"/>
    </g>
   </g>
   <g id="text_15">
    <!-- (a) D4RL locomotion aggregate -->
    <g transform="translate(66.484399 10.974187) scale(0.111 -0.111)">
     <defs>
      <path id="DejaVuSans-b" d="M 1984 4856 
Q 1566 4138 1362 3434 
Q 1159 2731 1159 2009 
Q 1159 1288 1364 580 
Q 1569 -128 1984 -844 
L 1484 -844 
Q 1016 -109 783 600 
Q 550 1309 550 2009 
Q 550 2706 781 3412 
Q 1013 4119 1484 4856 
L 1984 4856 
z
" transform="scale(0.015625)"/>
      <path id="DejaVuSans-c" d="M 513 4856 
L 1013 4856 
Q 1481 4119 1714 3412 
Q 1947 2706 1947 2009 
Q 1947 1309 1714 600 
Q 1481 -109 1013 -844 
L 513 -844 
Q 928 -128 1133 580 
Q 1338 1288 1338 2009 
Q 1338 2731 1133 3434 
Q 928 4138 513 4856 
z
" transform="scale(0.015625)"/>
      <path id="DejaVuSans-27" d="M 1259 4147 
L 1259 519 
L 2022 519 
Q 2988 519 3436 956 
Q 3884 1394 3884 2338 
Q 3884 3275 3436 3711 
Q 2988 4147 2022 4147 
L 1259 4147 
z
M 628 4666 
L 1925 4666 
Q 3281 4666 3915 4102 
Q 4550 3538 4550 2338 
Q 4550 1131 3912 565 
Q 3275 0 1925 0 
L 628 0 
L 628 4666 
z
" transform="scale(0.015625)"/>
      <path id="DejaVuSans-17" d="M 2419 4116 
L 825 1625 
L 2419 1625 
L 2419 4116 
z
M 2253 4666 
L 3047 4666 
L 3047 1625 
L 3713 1625 
L 3713 1100 
L 3047 1100 
L 3047 0 
L 2419 0 
L 2419 1100 
L 313 1100 
L 313 1709 
L 2253 4666 
z
" transform="scale(0.015625)"/>
      <path id="DejaVuSans-2f" d="M 628 4666 
L 1259 4666 
L 1259 531 
L 3531 531 
L 3531 0 
L 628 0 
L 628 4666 
z
" transform="scale(0.015625)"/>
      <path id="DejaVuSans-52" d="M 1959 3097 
Q 1497 3097 1228 2736 
Q 959 2375 959 1747 
Q 959 1119 1226 758 
Q 1494 397 1959 397 
Q 2419 397 2687 759 
Q 2956 1122 2956 1747 
Q 2956 2369 2687 2733 
Q 2419 3097 1959 3097 
z
M 1959 3584 
Q 2709 3584 3137 3096 
Q 3566 2609 3566 1747 
Q 3566 888 3137 398 
Q 2709 -91 1959 -91 
Q 1206 -91 779 398 
Q 353 888 353 1747 
Q 353 2609 779 3096 
Q 1206 3584 1959 3584 
z
" transform="scale(0.015625)"/>
     </defs>
     <use xlink:href="#DejaVuSans-b"/>
     <use xlink:href="#DejaVuSans-44" transform="translate(39.015625 0)"/>
     <use xlink:href="#DejaVuSans-c" transform="translate(100.296875 0)"/>
     <use xlink:href="#DejaVuSans-3" transform="translate(139.3125 0)"/>
     <use xlink:href="#DejaVuSans-27" transform="translate(171.09375 0)"/>
     <use xlink:href="#DejaVuSans-17" transform="translate(248.09375 0)"/>
     <use xlink:href="#DejaVuSans-35" transform="translate(311.71875 0)"/>
     <use xlink:href="#DejaVuSans-2f" transform="translate(381.203125 0)"/>
     <use xlink:href="#DejaVuSans-3" transform="translate(436.921875 0)"/>
     <use xlink:href="#DejaVuSans-4f" transform="translate(468.703125 0)"/>
     <use xlink:href="#DejaVuSans-52" transform="translate(496.484375 0)"/>
     <use xlink:href="#DejaVuSans-46" transform="translate(557.671875 0)"/>
     <use xlink:href="#DejaVuSans-52" transform="translate(612.65625 0)"/>
     <use xlink:href="#DejaVuSans-50" transform="translate(673.84375 0)"/>
     <use xlink:href="#DejaVuSans-52" transform="translate(771.25 0)"/>
     <use xlink:href="#DejaVuSans-57" transform="translate(832.4375 0)"/>
     <use xlink:href="#DejaVuSans-4c" transform="translate(871.640625 0)"/>
     <use xlink:href="#DejaVuSans-52" transform="translate(899.421875 0)"/>
     <use xlink:href="#DejaVuSans-51" transform="translate(960.609375 0)"/>
     <use xlink:href="#DejaVuSans-3" transform="translate(1023.984375 0)"/>
     <use xlink:href="#DejaVuSans-44" transform="translate(1055.765625 0)"/>
     <use xlink:href="#DejaVuSans-4a" transform="translate(1117.046875 0)"/>
     <use xlink:href="#DejaVuSans-4a" transform="translate(1180.53125 0)"/>
     <use xlink:href="#DejaVuSans-55" transform="translate(1244.015625 0)"/>
     <use xlink:href="#DejaVuSans-48" transform="translate(1282.921875 0)"/>
     <use xlink:href="#DejaVuSans-4a" transform="translate(1344.453125 0)"/>
     <use xlink:href="#DejaVuSans-44" transform="translate(1407.9375 0)"/>
     <use xlink:href="#DejaVuSans-57" transform="translate(1469.21875 0)"/>
     <use xlink:href="#DejaVuSans-48" transform="translate(1508.421875 0)"/>
    </g>
   </g>
   <g id="legend_1">
    <g id="patch_5">
     <path d="M 182.663821 165.800633 
L 265.484212 165.800633 
Q 267.064212 165.800633 267.064212 164.220633 
L 267.064212 153.160016 
Q 267.064212 151.580016 265.484212 151.580016 
L 182.663821 151.580016 
Q 181.083821 151.580016 181.083821 153.160016 
L 181.083821 164.220633 
Q 181.083821 165.800633 182.663821 165.800633 
z
" style="fill: #ffffff; opacity: 0.8; stroke: #cccccc; stroke-linejoin: miter"/>
    </g>
    <g id="line2d_20">
     <path d="M 184.243821 157.977781 
L 192.143821 157.977781 
L 200.043821 157.977781 
" style="fill: none; stroke: #1f77b4; stroke-width: 1.75; stroke-linecap: square"/>
     <g>
      <use xlink:href="#m20fa4f9f30" x="192.143821" y="157.977781" style="fill: #1f77b4; stroke: #1f77b4"/>
     </g>
    </g>
    <g id="text_16">
     <!-- Gradient norm -->
     <g transform="translate(206.363821 160.742781) scale(0.079 -0.079)">
      <defs>
       <path id="DejaVuSans-2a" d="M 3809 666 
L 3809 1919 
L 2778 1919 
L 2778 2438 
L 4434 2438 
L 4434 434 
Q 4069 175 3628 42 
Q 3188 -91 2688 -91 
Q 1594 -91 976 548 
Q 359 1188 359 2328 
Q 359 3472 976 4111 
Q 1594 4750 2688 4750 
Q 3144 4750 3555 4637 
Q 3966 4525 4313 4306 
L 4313 3634 
Q 3963 3931 3569 4081 
Q 3175 4231 2741 4231 
Q 1884 4231 1454 3753 
Q 1025 3275 1025 2328 
Q 1025 1384 1454 906 
Q 1884 428 2741 428 
Q 3075 428 3337 486 
Q 3600 544 3809 666 
z
" transform="scale(0.015625)"/>
      </defs>
      <use xlink:href="#DejaVuSans-2a"/>
      <use xlink:href="#DejaVuSans-55" transform="translate(77.484375 0)"/>
      <use xlink:href="#DejaVuSans-44" transform="translate(118.59375 0)"/>
      <use xlink:href="#DejaVuSans-47" transform="translate(179.875 0)"/>
      <use xlink:href="#DejaVuSans-4c" transform="translate(243.359375 0)"/>
      <use xlink:href="#DejaVuSans-48" transform="translate(271.140625 0)"/>
      <use xlink:href="#DejaVuSans-51" transform="translate(332.671875 0)"/>
      <use xlink:href="#DejaVuSans-57" transform="translate(396.046875 0)"/>
      <use xlink:href="#DejaVuSans-3" transform="translate(435.25 0)"/>
      <use xlink:href="#DejaVuSans-51" transform="translate(467.03125 0)"/>
      <use xlink:href="#DejaVuSans-52" transform="translate(530.40625 0)"/>
      <use xlink:href="#DejaVuSans-55" transform="translate(591.59375 0)"/>
      <use xlink:href="#DejaVuSans-50" transform="translate(630.953125 0)"/>
     </g>
    </g>
   </g>
  </g>
  <g id="axes_2">
   <g id="patch_6">
    <path d="M 320.924485 169.750633 
L 513.379263 169.750633 
L 513.379263 13.974187 
L 320.924485 13.974187 
z
" style="fill: #ffffff"/>
   </g>
   <g id="FillBetweenPolyCollection_2">
    <path d="M 329.67243 162.669885 
L 329.67243 162.669885 
L 349.112306 99.427584 
L 368.552183 89.176386 
L 387.99206 77.697926 
L 407.431936 69.602135 
L 426.871813 58.42971 
L 446.311689 55.608721 
L 465.751566 59.584248 
L 485.191442 59.456284 
L 504.631319 62.075975 
L 504.631319 29.58471 
L 504.631319 29.58471 
L 485.191442 25.133983 
L 465.751566 26.274362 
L 446.311689 21.054935 
L 426.871813 27.089063 
L 407.431936 38.009209 
L 387.99206 47.991087 
L 368.552183 62.95853 
L 349.112306 72.525042 
L 329.67243 162.669885 
z
" clip-path="url(#pe3a2042c0d)" style="fill: #1f77b4; fill-opacity: 0.18"/>
   </g>
   <g id="matplotlib.axis_3">
    <g id="xtick_6">
     <g id="line2d_21">
      <g>
       <use xlink:href="#mb4d94d75e5" x="329.67243" y="169.750633" style="stroke: #000000; stroke-width: 0.8"/>
      </g>
     </g>
     <g id="text_17">
      <!-- low -->
      <g transform="translate(322.50093 183.13332) scale(0.084 -0.084)">
       <defs>
        <path id="DejaVuSans-5a" d="M 269 3500 
L 844 3500 
L 1563 769 
L 2278 3500 
L 2956 3500 
L 3675 769 
L 4391 3500 
L 4966 3500 
L 4050 0 
L 3372 0 
L 2619 2869 
L 1863 0 
L 1184 0 
L 269 3500 
z
" transform="scale(0.015625)"/>
       </defs>
       <use xlink:href="#DejaVuSans-4f"/>
       <use xlink:href="#DejaVuSans-52" transform="translate(27.78125 0)"/>
       <use xlink:href="#DejaVuSans-5a" transform="translate(88.96875 0)"/>
      </g>
     </g>
    </g>
    <g id="xtick_7">
     <g id="line2d_22">
      <g>
       <use xlink:href="#mb4d94d75e5" x="407.431936" y="169.750633" style="stroke: #000000; stroke-width: 0.8"/>
      </g>
     </g>
     <g id="text_18">
      <!-- mid -->
      <g transform="translate(399.507717 183.13332) scale(0.084 -0.084)">
       <use xlink:href="#DejaVuSans-50"/>
       <use xlink:href="#DejaVuSans-4c" transform="translate(97.40625 0)"/>
       <use xlink:href="#DejaVuSans-47" transform="translate(125.1875 0)"/>
      </g>
     </g>
    </g>
    <g id="xtick_8">
     <g id="line2d_23">
      <g>
       <use xlink:href="#mb4d94d75e5" x="504.631319" y="169.750633" style="stroke: #000000; stroke-width: 0.8"/>
      </g>
     </g>
     <g id="text_19">
      <!-- high -->
      <g transform="translate(495.474663 183.13332) scale(0.084 -0.084)">
       <use xlink:href="#DejaVuSans-4b"/>
       <use xlink:href="#DejaVuSans-4c" transform="translate(63.375 0)"/>
       <use xlink:href="#DejaVuSans-4a" transform="translate(91.15625 0)"/>
       <use xlink:href="#DejaVuSans-4b" transform="translate(154.640625 0)"/>
      </g>
     </g>
    </g>
    <g id="text_20">
     <!-- Mean-token surprisal decile -->
     <g transform="translate(350.272648 196.521773) scale(0.097 -0.097)">
      <defs>
       <path id="DejaVuSans-30" d="M 628 4666 
L 1569 4666 
L 2759 1491 
L 3956 4666 
L 4897 4666 
L 4897 0 
L 4281 0 
L 4281 4097 
L 3078 897 
L 2444 897 
L 1241 4097 
L 1241 0 
L 628 0 
L 628 4666 
z
" transform="scale(0.015625)"/>
       <path id="DejaVuSans-4e" d="M 581 4863 
L 1159 4863 
L 1159 1991 
L 2875 3500 
L 3609 3500 
L 1753 1863 
L 3688 0 
L 2938 0 
L 1159 1709 
L 1159 0 
L 581 0 
L 581 4863 
z
" transform="scale(0.015625)"/>
      </defs>
      <use xlink:href="#DejaVuSans-30"/>
      <use xlink:href="#DejaVuSans-48" transform="translate(86.28125 0)"/>
      <use xlink:href="#DejaVuSans-44" transform="translate(147.8125 0)"/>
      <use xlink:href="#DejaVuSans-51" transform="translate(209.09375 0)"/>
      <use xlink:href="#DejaVuSans-10" transform="translate(272.46875 0)"/>
      <use xlink:href="#DejaVuSans-57" transform="translate(308.546875 0)"/>
      <use xlink:href="#DejaVuSans-52" transform="translate(347.75 0)"/>
      <use xlink:href="#DejaVuSans-4e" transform="translate(408.9375 0)"/>
      <use xlink:href="#DejaVuSans-48" transform="translate(463.28125 0)"/>
      <use xlink:href="#DejaVuSans-51" transform="translate(524.8125 0)"/>
      <use xlink:href="#DejaVuSans-3" transform="translate(588.1875 0)"/>
      <use xlink:href="#DejaVuSans-56" transform="translate(619.96875 0)"/>
      <use xlink:href="#DejaVuSans-58" transform="translate(672.0625 0)"/>
      <use xlink:href="#DejaVuSans-55" transform="translate(735.4375 0)"/>
      <use xlink:href="#DejaVuSans-53" transform="translate(776.546875 0)"/>
      <use xlink:href="#DejaVuSans-55" transform="translate(840.03125 0)"/>
      <use xlink:href="#DejaVuSans-4c" transform="translate(881.140625 0)"/>
      <use xlink:href="#DejaVuSans-56" transform="translate(908.921875 0)"/>
      <use xlink:href="#DejaVuSans-44" transform="translate(961.015625 0)"/>
      <use xlink:href="#DejaVuSans-4f" transform="translate(1022.296875 0)"/>
      <use xlink:href="#DejaVuSans-3" transform="translate(1050.078125 0)"/>
      <use xlink:href="#DejaVuSans-47" transform="translate(1081.859375 0)"/>
      <use xlink:href="#DejaVuSans-48" transform="translate(1145.34375 0)"/>
      <use xlink:href="#DejaVuSans-46" transform="translate(1206.875 0)"/>
      <use xlink:href="#DejaVuSans-4c" transform="translate(1261.859375 0)"/>
      <use xlink:href="#DejaVuSans-4f" transform="translate(1289.640625 0)"/>
      <use xlink:href="#DejaVuSans-48" transform="translate(1317.421875 0)"/>
     </g>
    </g>
   </g>
   <g id="matplotlib.axis_4">
    <g id="ytick_7">
     <g id="line2d_24">
      <path d="M 320.924485 162.669885 
L 513.379263 162.669885 
" clip-path="url(#pe3a2042c0d)" style="fill: none; stroke-dasharray: 1.665,0.72; stroke-dashoffset: 0; stroke: #b0b0b0; stroke-opacity: 0.33; stroke-width: 0.45"/>
     </g>
     <g id="line2d_25">
      <g>
       <use xlink:href="#m312561f5cf" x="320.924485" y="162.669885" style="stroke: #000000; stroke-width: 0.8"/>
      </g>
     </g>
     <g id="text_21">
      <!-- 1.00 -->
      <g transform="translate(295.22136 165.860901) scale(0.084 -0.084)">
       <use xlink:href="#DejaVuSans-14"/>
       <use xlink:href="#DejaVuSans-11" transform="translate(63.625 0)"/>
       <use xlink:href="#DejaVuSans-13" transform="translate(95.40625 0)"/>
       <use xlink:href="#DejaVuSans-13" transform="translate(159.03125 0)"/>
      </g>
     </g>
    </g>
    <g id="ytick_8">
     <g id="line2d_26">
      <path d="M 320.924485 142.415704 
L 513.379263 142.415704 
" clip-path="url(#pe3a2042c0d)" style="fill: none; stroke-dasharray: 1.665,0.72; stroke-dashoffset: 0; stroke: #b0b0b0; stroke-opacity: 0.33; stroke-width: 0.45"/>
     </g>
     <g id="line2d_27">
      <g>
       <use xlink:href="#m312561f5cf" x="320.924485" y="142.415704" style="stroke: #000000; stroke-width: 0.8"/>
      </g>
     </g>
     <g id="text_22">
      <!-- 1.25 -->
      <g transform="translate(295.22136 145.606719) scale(0.084 -0.084)">
       <use xlink:href="#DejaVuSans-14"/>
       <use xlink:href="#DejaVuSans-11" transform="translate(63.625 0)"/>
       <use xlink:href="#DejaVuSans-15" transform="translate(95.40625 0)"/>
       <use xlink:href="#DejaVuSans-18" transform="translate(159.03125 0)"/>
      </g>
     </g>
    </g>
    <g id="ytick_9">
     <g id="line2d_28">
      <path d="M 320.924485 122.161522 
L 513.379263 122.161522 
" clip-path="url(#pe3a2042c0d)" style="fill: none; stroke-dasharray: 1.665,0.72; stroke-dashoffset: 0; stroke: #b0b0b0; stroke-opacity: 0.33; stroke-width: 0.45"/>
     </g>
     <g id="line2d_29">
      <g>
       <use xlink:href="#m312561f5cf" x="320.924485" y="122.161522" style="stroke: #000000; stroke-width: 0.8"/>
      </g>
     </g>
     <g id="text_23">
      <!-- 1.50 -->
      <g transform="translate(295.22136 125.352538) scale(0.084 -0.084)">
       <use xlink:href="#DejaVuSans-14"/>
       <use xlink:href="#DejaVuSans-11" transform="translate(63.625 0)"/>
       <use xlink:href="#DejaVuSans-18" transform="translate(95.40625 0)"/>
       <use xlink:href="#DejaVuSans-13" transform="translate(159.03125 0)"/>
      </g>
     </g>
    </g>
    <g id="ytick_10">
     <g id="line2d_30">
      <path d="M 320.924485 101.907341 
L 513.379263 101.907341 
" clip-path="url(#pe3a2042c0d)" style="fill: none; stroke-dasharray: 1.665,0.72; stroke-dashoffset: 0; stroke: #b0b0b0; stroke-opacity: 0.33; stroke-width: 0.45"/>
     </g>
     <g id="line2d_31">
      <g>
       <use xlink:href="#m312561f5cf" x="320.924485" y="101.907341" style="stroke: #000000; stroke-width: 0.8"/>
      </g>
     </g>
     <g id="text_24">
      <!-- 1.75 -->
      <g transform="translate(295.22136 105.098356) scale(0.084 -0.084)">
       <defs>
        <path id="DejaVuSans-1a" d="M 525 4666 
L 3525 4666 
L 3525 4397 
L 1831 0 
L 1172 0 
L 2766 4134 
L 525 4134 
L 525 4666 
z
" transform="scale(0.015625)"/>
       </defs>
       <use xlink:href="#DejaVuSans-14"/>
       <use xlink:href="#DejaVuSans-11" transform="translate(63.625 0)"/>
       <use xlink:href="#DejaVuSans-1a" transform="translate(95.40625 0)"/>
       <use xlink:href="#DejaVuSans-18" transform="translate(159.03125 0)"/>
      </g>
     </g>
    </g>
    <g id="ytick_11">
     <g id="line2d_32">
      <path d="M 320.924485 81.653159 
L 513.379263 81.653159 
" clip-path="url(#pe3a2042c0d)" style="fill: none; stroke-dasharray: 1.665,0.72; stroke-dashoffset: 0; stroke: #b0b0b0; stroke-opacity: 0.33; stroke-width: 0.45"/>
     </g>
     <g id="line2d_33">
      <g>
       <use xlink:href="#m312561f5cf" x="320.924485" y="81.653159" style="stroke: #000000; stroke-width: 0.8"/>
      </g>
     </g>
     <g id="text_25">
      <!-- 2.00 -->
      <g transform="translate(295.22136 84.844175) scale(0.084 -0.084)">
       <use xlink:href="#DejaVuSans-15"/>
       <use xlink:href="#DejaVuSans-11" transform="translate(63.625 0)"/>
       <use xlink:href="#DejaVuSans-13" transform="translate(95.40625 0)"/>
       <use xlink:href="#DejaVuSans-13" transform="translate(159.03125 0)"/>
      </g>
     </g>
    </g>
    <g id="ytick_12">
     <g id="line2d_34">
      <path d="M 320.924485 61.398978 
L 513.379263 61.398978 
" clip-path="url(#pe3a2042c0d)" style="fill: none; stroke-dasharray: 1.665,0.72; stroke-dashoffset: 0; stroke: #b0b0b0; stroke-opacity: 0.33; stroke-width: 0.45"/>
     </g>
     <g id="line2d_35">
      <g>
       <use xlink:href="#m312561f5cf" x="320.924485" y="61.398978" style="stroke: #000000; stroke-width: 0.8"/>
      </g>
     </g>
     <g id="text_26">
      <!-- 2.25 -->
      <g transform="translate(295.22136 64.589994) scale(0.084 -0.084)">
       <use xlink:href="#DejaVuSans-15"/>
       <use xlink:href="#DejaVuSans-11" transform="translate(63.625 0)"/>
       <use xlink:href="#DejaVuSans-15" transform="translate(95.40625 0)"/>
       <use xlink:href="#DejaVuSans-18" transform="translate(159.03125 0)"/>
      </g>
     </g>
    </g>
    <g id="ytick_13">
     <g id="line2d_36">
      <path d="M 320.924485 41.144796 
L 513.379263 41.144796 
" clip-path="url(#pe3a2042c0d)" style="fill: none; stroke-dasharray: 1.665,0.72; stroke-dashoffset: 0; stroke: #b0b0b0; stroke-opacity: 0.33; stroke-width: 0.45"/>
     </g>
     <g id="line2d_37">
      <g>
       <use xlink:href="#m312561f5cf" x="320.924485" y="41.144796" style="stroke: #000000; stroke-width: 0.8"/>
      </g>
     </g>
     <g id="text_27">
      <!-- 2.50 -->
      <g transform="translate(295.22136 44.335812) scale(0.084 -0.084)">
       <use xlink:href="#DejaVuSans-15"/>
       <use xlink:href="#DejaVuSans-11" transform="translate(63.625 0)"/>
       <use xlink:href="#DejaVuSans-18" transform="translate(95.40625 0)"/>
       <use xlink:href="#DejaVuSans-13" transform="translate(159.03125 0)"/>
      </g>
     </g>
    </g>
    <g id="ytick_14">
     <g id="line2d_38">
      <path d="M 320.924485 20.890615 
L 513.379263 20.890615 
" clip-path="url(#pe3a2042c0d)" style="fill: none; stroke-dasharray: 1.665,0.72; stroke-dashoffset: 0; stroke: #b0b0b0; stroke-opacity: 0.33; stroke-width: 0.45"/>
     </g>
     <g id="line2d_39">
      <g>
       <use xlink:href="#m312561f5cf" x="320.924485" y="20.890615" style="stroke: #000000; stroke-width: 0.8"/>
      </g>
     </g>
     <g id="text_28">
      <!-- 2.75 -->
      <g transform="translate(295.22136 24.081631) scale(0.084 -0.084)">
       <use xlink:href="#DejaVuSans-15"/>
       <use xlink:href="#DejaVuSans-11" transform="translate(63.625 0)"/>
       <use xlink:href="#DejaVuSans-1a" transform="translate(95.40625 0)"/>
       <use xlink:href="#DejaVuSans-18" transform="translate(159.03125 0)"/>
      </g>
     </g>
    </g>
    <g id="text_29">
     <!-- Relative magnitude -->
     <g transform="translate(288.891087 139.19841) rotate(-90) scale(0.097 -0.097)">
      <use xlink:href="#DejaVuSans-35"/>
      <use xlink:href="#DejaVuSans-48" transform="translate(65 0)"/>
      <use xlink:href="#DejaVuSans-4f" transform="translate(126.53125 0)"/>
      <use xlink:href="#DejaVuSans-44" transform="translate(154.3125 0)"/>
      <use xlink:href="#DejaVuSans-57" transform="translate(215.59375 0)"/>
      <use xlink:href="#DejaVuSans-4c" transform="translate(254.796875 0)"/>
      <use xlink:href="#DejaVuSans-59" transform="translate(282.578125 0)"/>
      <use xlink:href="#DejaVuSans-48" transform="translate(341.765625 0)"/>
      <use xlink:href="#DejaVuSans-3" transform="translate(403.296875 0)"/>
      <use xlink:href="#DejaVuSans-50" transform="translate(435.078125 0)"/>
      <use xlink:href="#DejaVuSans-44" transform="translate(532.484375 0)"/>
      <use xlink:href="#DejaVuSans-4a" transform="translate(593.765625 0)"/>
      <use xlink:href="#DejaVuSans-51" transform="translate(657.25 0)"/>
      <use xlink:href="#DejaVuSans-4c" transform="translate(720.625 0)"/>
      <use xlink:href="#DejaVuSans-57" transform="translate(748.40625 0)"/>
      <use xlink:href="#DejaVuSans-58" transform="translate(787.609375 0)"/>
      <use xlink:href="#DejaVuSans-47" transform="translate(850.984375 0)"/>
      <use xlink:href="#DejaVuSans-48" transform="translate(914.46875 0)"/>
     </g>
    </g>
   </g>
   <g id="line2d_40">
    <path d="M 329.67243 162.669885 
L 349.112306 86.593192 
L 368.552183 75.42338 
L 387.99206 62.417768 
L 407.431936 54.012932 
L 426.871813 42.581423 
L 446.311689 37.696027 
L 465.751566 42.699424 
L 485.191442 42.239644 
L 504.631319 45.414737 
" clip-path="url(#pe3a2042c0d)" style="fill: none; stroke: #1f77b4; stroke-width: 1.75; stroke-linecap: square"/>
    <g clip-path="url(#pe3a2042c0d)">
     <use xlink:href="#m20fa4f9f30" x="329.67243" y="162.669885" style="fill: #1f77b4; stroke: #1f77b4"/>
     <use xlink:href="#m20fa4f9f30" x="349.112306" y="86.593192" style="fill: #1f77b4; stroke: #1f77b4"/>
     <use xlink:href="#m20fa4f9f30" x="368.552183" y="75.42338" style="fill: #1f77b4; stroke: #1f77b4"/>
     <use xlink:href="#m20fa4f9f30" x="387.99206" y="62.417768" style="fill: #1f77b4; stroke: #1f77b4"/>
     <use xlink:href="#m20fa4f9f30" x="407.431936" y="54.012932" style="fill: #1f77b4; stroke: #1f77b4"/>
     <use xlink:href="#m20fa4f9f30" x="426.871813" y="42.581423" style="fill: #1f77b4; stroke: #1f77b4"/>
     <use xlink:href="#m20fa4f9f30" x="446.311689" y="37.696027" style="fill: #1f77b4; stroke: #1f77b4"/>
     <use xlink:href="#m20fa4f9f30" x="465.751566" y="42.699424" style="fill: #1f77b4; stroke: #1f77b4"/>
     <use xlink:href="#m20fa4f9f30" x="485.191442" y="42.239644" style="fill: #1f77b4; stroke: #1f77b4"/>
     <use xlink:href="#m20fa4f9f30" x="504.631319" y="45.414737" style="fill: #1f77b4; stroke: #1f77b4"/>
    </g>
   </g>
   <g id="line2d_41">
    <path d="M 329.67243 162.669885 
L 349.112306 162.669885 
L 368.552183 162.669885 
L 387.99206 162.669885 
L 407.431936 162.669885 
L 426.871813 162.669885 
L 446.311689 162.669885 
L 465.751566 162.669885 
L 485.191442 162.669885 
L 504.631319 162.669885 
" clip-path="url(#pe3a2042c0d)" style="fill: none; stroke-dasharray: 4.995,2.16; stroke-dashoffset: 0; stroke: #ff7f0e; stroke-width: 1.35"/>
    <defs>
     <path id="m63c173aa01" d="M -1.9 1.9 
L 1.9 1.9 
L 1.9 -1.9 
L -1.9 -1.9 
z
" style="stroke: #ff7f0e; stroke-linejoin: miter"/>
    </defs>
    <g clip-path="url(#pe3a2042c0d)">
     <use xlink:href="#m63c173aa01" x="329.67243" y="162.669885" style="fill: #ff7f0e; stroke: #ff7f0e; stroke-linejoin: miter"/>
     <use xlink:href="#m63c173aa01" x="349.112306" y="162.669885" style="fill: #ff7f0e; stroke: #ff7f0e; stroke-linejoin: miter"/>
     <use xlink:href="#m63c173aa01" x="368.552183" y="162.669885" style="fill: #ff7f0e; stroke: #ff7f0e; stroke-linejoin: miter"/>
     <use xlink:href="#m63c173aa01" x="387.99206" y="162.669885" style="fill: #ff7f0e; stroke: #ff7f0e; stroke-linejoin: miter"/>
     <use xlink:href="#m63c173aa01" x="407.431936" y="162.669885" style="fill: #ff7f0e; stroke: #ff7f0e; stroke-linejoin: miter"/>
     <use xlink:href="#m63c173aa01" x="426.871813" y="162.669885" style="fill: #ff7f0e; stroke: #ff7f0e; stroke-linejoin: miter"/>
     <use xlink:href="#m63c173aa01" x="446.311689" y="162.669885" style="fill: #ff7f0e; stroke: #ff7f0e; stroke-linejoin: miter"/>
     <use xlink:href="#m63c173aa01" x="465.751566" y="162.669885" style="fill: #ff7f0e; stroke: #ff7f0e; stroke-linejoin: miter"/>
     <use xlink:href="#m63c173aa01" x="485.191442" y="162.669885" style="fill: #ff7f0e; stroke: #ff7f0e; stroke-linejoin: miter"/>
     <use xlink:href="#m63c173aa01" x="504.631319" y="162.669885" style="fill: #ff7f0e; stroke: #ff7f0e; stroke-linejoin: miter"/>
    </g>
   </g>
   <g id="line2d_42">
    <path d="M 320.924485 162.669885 
L 513.379263 162.669885 
" clip-path="url(#pe3a2042c0d)" style="fill: none; stroke-dasharray: 1,1.65; stroke-dashoffset: 0; stroke: #1f77b4"/>
   </g>
   <g id="patch_7">
    <path d="M 320.924485 169.750633 
L 320.924485 13.974187 
" style="fill: none; stroke: #000000; stroke-width: 0.8; stroke-linejoin: miter; stroke-linecap: square"/>
   </g>
   <g id="patch_8">
    <path d="M 320.924485 169.750633 
L 513.379263 169.750633 
" style="fill: none; stroke: #000000; stroke-width: 0.8; stroke-linejoin: miter; stroke-linecap: square"/>
   </g>
   <g id="text_30">
    <!-- (b) Countdown -->
    <g transform="translate(374.226437 10.974187) scale(0.116 -0.116)">
     <defs>
      <path id="DejaVuSans-45" d="M 3116 1747 
Q 3116 2381 2855 2742 
Q 2594 3103 2138 3103 
Q 1681 3103 1420 2742 
Q 1159 2381 1159 1747 
Q 1159 1113 1420 752 
Q 1681 391 2138 391 
Q 2594 391 2855 752 
Q 3116 1113 3116 1747 
z
M 1159 2969 
Q 1341 3281 1617 3432 
Q 1894 3584 2278 3584 
Q 2916 3584 3314 3078 
Q 3713 2572 3713 1747 
Q 3713 922 3314 415 
Q 2916 -91 2278 -91 
Q 1894 -91 1617 61 
Q 1341 213 1159 525 
L 1159 0 
L 581 0 
L 581 4863 
L 1159 4863 
L 1159 2969 
z
" transform="scale(0.015625)"/>
      <path id="DejaVuSans-26" d="M 4122 4306 
L 4122 3641 
Q 3803 3938 3442 4084 
Q 3081 4231 2675 4231 
Q 1875 4231 1450 3742 
Q 1025 3253 1025 2328 
Q 1025 1406 1450 917 
Q 1875 428 2675 428 
Q 3081 428 3442 575 
Q 3803 722 4122 1019 
L 4122 359 
Q 3791 134 3420 21 
Q 3050 -91 2638 -91 
Q 1578 -91 968 557 
Q 359 1206 359 2328 
Q 359 3453 968 4101 
Q 1578 4750 2638 4750 
Q 3056 4750 3426 4639 
Q 3797 4528 4122 4306 
z
" transform="scale(0.015625)"/>
     </defs>
     <use xlink:href="#DejaVuSans-b"/>
     <use xlink:href="#DejaVuSans-45" transform="translate(39.015625 0)"/>
     <use xlink:href="#DejaVuSans-c" transform="translate(102.5 0)"/>
     <use xlink:href="#DejaVuSans-3" transform="translate(141.515625 0)"/>
     <use xlink:href="#DejaVuSans-26" transform="translate(173.296875 0)"/>
     <use xlink:href="#DejaVuSans-52" transform="translate(243.125 0)"/>
     <use xlink:href="#DejaVuSans-58" transform="translate(304.3125 0)"/>
     <use xlink:href="#DejaVuSans-51" transform="translate(367.6875 0)"/>
     <use xlink:href="#DejaVuSans-57" transform="translate(431.0625 0)"/>
     <use xlink:href="#DejaVuSans-47" transform="translate(470.265625 0)"/>
     <use xlink:href="#DejaVuSans-52" transform="translate(533.75 0)"/>
     <use xlink:href="#DejaVuSans-5a" transform="translate(594.9375 0)"/>
     <use xlink:href="#DejaVuSans-51" transform="translate(676.71875 0)"/>
    </g>
   </g>
   <g id="legend_2">
    <g id="patch_9">
     <path d="M 425.028873 165.800633 
L 507.849263 165.800633 
Q 509.429263 165.800633 509.429263 164.220633 
L 509.429263 141.309398 
Q 509.429263 139.729398 507.849263 139.729398 
L 425.028873 139.729398 
Q 423.448873 139.729398 423.448873 141.309398 
L 423.448873 164.220633 
Q 423.448873 165.800633 425.028873 165.800633 
z
" style="fill: #ffffff; opacity: 0.8; stroke: #cccccc; stroke-linejoin: miter"/>
    </g>
    <g id="line2d_43">
     <path d="M 426.608873 146.127164 
L 434.508873 146.127164 
L 442.408873 146.127164 
" style="fill: none; stroke: #1f77b4; stroke-width: 1.75; stroke-linecap: square"/>
     <g>
      <use xlink:href="#m20fa4f9f30" x="434.508873" y="146.127164" style="fill: #1f77b4; stroke: #1f77b4"/>
     </g>
    </g>
    <g id="text_31">
     <!-- Gradient norm -->
     <g transform="translate(448.728873 148.892164) scale(0.079 -0.079)">
      <use xlink:href="#DejaVuSans-2a"/>
      <use xlink:href="#DejaVuSans-55" transform="translate(77.484375 0)"/>
      <use xlink:href="#DejaVuSans-44" transform="translate(118.59375 0)"/>
      <use xlink:href="#DejaVuSans-47" transform="translate(179.875 0)"/>
      <use xlink:href="#DejaVuSans-4c" transform="translate(243.359375 0)"/>
      <use xlink:href="#DejaVuSans-48" transform="translate(271.140625 0)"/>
      <use xlink:href="#DejaVuSans-51" transform="translate(332.671875 0)"/>
      <use xlink:href="#DejaVuSans-57" transform="translate(396.046875 0)"/>
      <use xlink:href="#DejaVuSans-3" transform="translate(435.25 0)"/>
      <use xlink:href="#DejaVuSans-51" transform="translate(467.03125 0)"/>
      <use xlink:href="#DejaVuSans-52" transform="translate(530.40625 0)"/>
      <use xlink:href="#DejaVuSans-55" transform="translate(591.59375 0)"/>
      <use xlink:href="#DejaVuSans-50" transform="translate(630.953125 0)"/>
     </g>
    </g>
    <g id="line2d_44">
     <path d="M 426.608873 157.977781 
L 434.508873 157.977781 
L 442.408873 157.977781 
" style="fill: none; stroke-dasharray: 4.995,2.16; stroke-dashoffset: 0; stroke: #ff7f0e; stroke-width: 1.35"/>
     <g>
      <use xlink:href="#m63c173aa01" x="434.508873" y="157.977781" style="fill: #ff7f0e; stroke: #ff7f0e; stroke-linejoin: miter"/>
     </g>
    </g>
    <g id="text_32">
     <!-- Neg. coeff. -->
     <g transform="translate(448.728873 160.742781) scale(0.079 -0.079)">
      <defs>
       <path id="DejaVuSans-31" d="M 628 4666 
L 1478 4666 
L 3547 763 
L 3547 4666 
L 4159 4666 
L 4159 0 
L 3309 0 
L 1241 3903 
L 1241 0 
L 628 0 
L 628 4666 
z
" transform="scale(0.015625)"/>
       <path id="DejaVuSans-13ae" d="M 4531 4863 
L 4531 4384 
L 3981 4384 
Q 3672 4384 3551 4259 
Q 3431 4134 3431 3809 
L 3431 3500 
L 4378 3500 
L 4378 3053 
L 3431 3053 
L 3431 0 
L 2853 0 
L 2853 3053 
L 1275 3053 
L 1275 0 
L 697 0 
L 697 3053 
L 147 3053 
L 147 3500 
L 697 3500 
L 697 3744 
Q 697 4328 969 4595 
Q 1241 4863 1831 4863 
L 2375 4863 
L 2375 4384 
L 1825 4384 
Q 1516 4384 1394 4259 
Q 1275 4134 1275 3809 
L 1275 3500 
L 2853 3500 
L 2853 3744 
Q 2853 4328 3125 4595 
Q 3397 4863 3988 4863 
L 4531 4863 
z
" transform="scale(0.015625)"/>
      </defs>
      <use xlink:href="#DejaVuSans-31"/>
      <use xlink:href="#DejaVuSans-48" transform="translate(74.8125 0)"/>
      <use xlink:href="#DejaVuSans-4a" transform="translate(136.34375 0)"/>
      <use xlink:href="#DejaVuSans-11" transform="translate(199.828125 0)"/>
      <use xlink:href="#DejaVuSans-3" transform="translate(231.609375 0)"/>
      <use xlink:href="#DejaVuSans-46" transform="translate(263.390625 0)"/>
      <use xlink:href="#DejaVuSans-52" transform="translate(318.375 0)"/>
      <use xlink:href="#DejaVuSans-48" transform="translate(379.5625 0)"/>
      <use xlink:href="#DejaVuSans-13ae" transform="translate(441.09375 0)"/>
      <use xlink:href="#DejaVuSans-11" transform="translate(509.984375 0)"/>
     </g>
    </g>
   </g>
  </g>
 </g>
 <defs>
  <clipPath id="p1355e03ef6">
   <rect x="36.219383" y="13.974187" width="234.794829" height="155.776445"/>
  </clipPath>
  <clipPath id="pe3a2042c0d">
   <rect x="320.924485" y="13.974187" width="192.454778" height="155.776445"/>
  </clipPath>
 </defs>
</svg>
